<?xml version="1.0" encoding="UTF-8" standalone="no"?>
<!-- Created with Inkscape (http://www.inkscape.org/) -->

<svg
   xmlns:dc="http://purl.org/dc/elements/1.1/"
   xmlns:cc="http://creativecommons.org/ns#"
   xmlns:rdf="http://www.w3.org/1999/02/22-rdf-syntax-ns#"
   xmlns:svg="http://www.w3.org/2000/svg"
   xmlns="http://www.w3.org/2000/svg"
   xmlns:sodipodi="http://sodipodi.sourceforge.net/DTD/sodipodi-0.dtd"
   xmlns:inkscape="http://www.inkscape.org/namespaces/inkscape"
   width="360"
   height="120"
   viewBox="0 0 95.249998 31.750001"
   version="1.1"
   id="svg8"
   inkscape:version="0.92.3 (2405546, 2018-03-11)"
   sodipodi:docname="ChessPieceArray.svg"
   inkscape:export-filename="C:\Users\Wes\Source\Repos\ChessLib\src\ChessLib.Graphics\Images\ChessPieceArray.png"
   inkscape:export-xdpi="96"
   inkscape:export-ydpi="96">
  <defs
     id="defs2" />
  <sodipodi:namedview
     id="base"
     pagecolor="#ffffff"
     bordercolor="#666666"
     borderopacity="1.0"
     inkscape:pageopacity="0.0"
     inkscape:pageshadow="2"
     inkscape:zoom="3"
     inkscape:cx="117.49088"
     inkscape:cy="23.771793"
     inkscape:document-units="mm"
     inkscape:current-layer="layer1"
     showgrid="true"
     units="px"
     inkscape:snap-text-baseline="true"
     inkscape:window-width="1920"
     inkscape:window-height="1017"
     inkscape:window-x="-8"
     inkscape:window-y="-8"
     inkscape:window-maximized="1">
    <inkscape:grid
       type="xygrid"
       id="grid815"
       spacingx="7.9375"
       spacingy="15.875"
       color="#3f3fff"
       opacity="0.07843137"
       originx="7.9375" />
  </sodipodi:namedview>
  <metadata
     id="metadata5">
    <rdf:RDF>
      <cc:Work
         rdf:about="">
        <dc:format>image/svg+xml</dc:format>
        <dc:type
           rdf:resource="http://purl.org/dc/dcmitype/StillImage" />
        <dc:title />
      </cc:Work>
    </rdf:RDF>
  </metadata>
  <g
     inkscape:label="Layer 1"
     inkscape:groupmode="layer"
     id="layer1"
     transform="translate(0,-265.24998)">
    <g
       aria-label="l"
       style="fill:#000000;fill-opacity:1;stroke:none;stroke-width:0.26987499"
       id="blackKing"
       inkscape:export-xdpi="96"
       inkscape:export-ydpi="96">
      <title
         id="title971">Black King</title>
      <path
         d="m 8.7683435,290.51898 q 0,-0.214 0.044276,-0.60511 0.051656,-0.39848 0.1549672,-0.61987 0.2730376,-0.59773 0.7822159,-1.1069 0.1475879,-0.14759 0.6346284,-0.39849 0.479661,-0.23614 1.025736,-0.23614 0.413246,0 0.819113,0.14759 0.413246,0.1402 0.619869,0.43538 0.184485,0.2509 0.184485,0.81173 0,0.44277 -0.361591,0.8265 -0.23614,0.24352 -0.509178,0.49441 -0.273038,0.24353 -0.523937,0.5756 -0.428005,-0.14759 -1.195462,-0.22876 -0.760078,-0.0812 -1.6751229,-0.0959 z m -0.5386958,0.5756 q 1.2692559,0.0221 2.0809893,0.12545 0.811733,0.10331 1.46112,0.24352 0.405867,-0.39849 0.900286,-0.76008 0.49442,-0.36159 0.693663,-0.61987 0.354211,-0.47966 0.354211,-1.19546 0,-0.65677 -0.317314,-1.09953 -0.568213,-0.83387 -1.734157,-0.83387 -0.678905,0 -1.416844,0.29517 -0.6715251,0.26566 -0.9740803,0.5756 -0.6272485,0.60511 -0.9150449,1.59394 -0.1106909,0.33946 -0.1254497,0.86339 -0.00738,0.52394 -0.00738,0.81174 z m 3.3797623,1.27663 q -1.357808,-0.37635 -3.6159029,-0.37635 -2.2728535,0 -3.6601797,0.38373 l 0.1106909,0.74532 q 1.3947056,-0.36159 3.5494888,-0.36159 2.1474039,0 3.4978329,0.35421 z m 0.191865,2.20644 -0.221382,-0.87077 q -1.438982,-0.33207 -3.6159035,-0.33207 -2.1547832,0 -3.6011445,0.33207 l -0.2361406,0.87815 q 1.4020849,-0.428 3.8446645,-0.428 1.1733237,0 2.1769211,0.11807 1.003598,0.11807 1.652985,0.30255 z m -7.9771258,-1.52753 -0.24352,-1.37995 q -0.00738,0 -0.022138,-0.0295 -0.036897,-0.0516 -0.2140025,-0.13283 -0.169726,-0.0885 -0.3984873,-0.29517 -0.3246933,-0.27304 -0.5091782,-0.44277 -0.1771054,-0.16972 -0.3246933,-0.36897 -0.4501431,-0.61987 -0.5017989,-1.49801 -0.073794,-0.84863 0.6862837,-1.68988 0.7674571,-0.84126 2.0736099,-0.7896 0.48704,0.0295 1.1438061,0.23614 0.2140025,0.0885 0.4353843,0.17711 0.2287612,0.0812 0.4501431,0.16972 0.1180703,0.059 0.206623,0.11807 -0.036897,-0.15496 -0.036897,-0.30993 0,-0.57559 0.4058667,-0.98146 0.4132461,-0.40587 0.9888389,-0.41325 0.5755928,0 0.9814595,0.41325 0.4058667,0.40587 0.4058667,0.97408 0,0.11807 -0.029518,0.30993 0.1033115,-0.0664 0.1992436,-0.11069 0.3394522,-0.14759 0.8929065,-0.34683 0.634628,-0.214 1.143807,-0.24352 1.306152,-0.059 2.06623,0.7896 0.745319,0.84125 0.693663,1.68988 -0.05903,0.87815 -0.509178,1.49801 -0.147588,0.19925 -0.332073,0.37635 -0.184485,0.16973 -0.494419,0.43539 -0.24352,0.20662 -0.413246,0.29517 -0.169726,0.0812 -0.199244,0.13283 -0.0074,0.0148 -0.01476,0.0221 -0.0074,0.007 -0.0074,0.0148 l -0.236141,1.38733 0.48704,1.82271 q -0.368969,0.33207 -1.652984,0.54607 -1.284015,0.214 -2.9665169,0.214 -1.7120195,0 -3.010793,-0.22138 -1.2987734,-0.22876 -1.6308461,-0.56821 z m 3.8741821,-1.96292 q 0,-0.29518 -0.014759,-0.81174 -0.014759,-0.52393 -0.1106909,-0.87076 -0.3025552,-0.98884 -0.9150449,-1.59395 -0.317314,-0.30994 -0.9740801,-0.5756 -0.7526982,-0.29517 -1.4242231,-0.29517 -1.1659444,0 -1.7267783,0.83387 -0.317314,0.44276 -0.317314,1.10691 0,0.72318 0.3542109,1.18808 0.1844849,0.26566 0.7084219,0.65677 0.523937,0.39111 0.8855273,0.72318 0.6420074,-0.14021 1.4463614,-0.24352 0.8117333,-0.10331 2.0883688,-0.11807 z m 0.2656582,-1.85223 q 0.051656,-0.20662 0.088553,-0.2878 0.073794,-0.28779 0.1697261,-0.48704 0.044276,-0.12545 0.1254497,-0.28779 0.088553,-0.16973 0.1844849,-0.38373 0.059035,-0.12545 0.1254497,-0.30256 0.066414,-0.18448 0.1328291,-0.36159 0.059035,-0.14758 0.059035,-0.31731 0,-0.36159 -0.2582788,-0.61249 -0.2582788,-0.25828 -0.6272485,-0.25828 -0.8781479,0 -0.8781479,0.87815 0,0.16972 0.059035,0.31731 0.1623467,0.47966 0.2508994,0.66415 0.095932,0.214 0.1771055,0.38373 0.081173,0.16234 0.1402085,0.28779 0.095932,0.24352 0.1623467,0.48704 0.014759,0.0443 0.088553,0.28042 z m 0.2582788,-3.83729 h -0.523937 v -0.9667 H 7.0858416 q -0.2508995,0 -0.2508995,-0.24352 v -0.007 q 0,-0.24352 0.2508995,-0.24352 h 0.6124897 v -0.62724 q 0,-0.25828 0.2656582,-0.25828 v 0 q 0.2582788,0 0.2582788,0.25828 v 0.62724 h 0.6346279 q 0.24352,0 0.24352,0.24352 v 0.007 q 0,0.24352 -0.24352,0.24352 l -0.6272485,0.007 z m -1.084771,5.1213 q -0.9224243,0.0148 -1.6898813,0.0959 -0.7600777,0.0812 -1.1807031,0.22876 -0.2213819,-0.27304 -0.5165577,-0.54608 -0.2877963,-0.28041 -0.5091782,-0.52393 -0.3689697,-0.37635 -0.3689697,-0.8265 0,-0.55345 0.1844849,-0.81173 0.1992436,-0.29518 0.6124897,-0.43538 0.4132461,-0.14759 0.8338716,-0.14759 0.5313164,0 1.0183564,0.23614 0.4796607,0.2509 0.6346279,0.39849 0.5017989,0.50917 0.7822159,1.1069 0.095932,0.22139 0.1402085,0.61987 0.051656,0.39111 0.059035,0.60511 z m 0.8264922,-2.54589 q -0.014759,-0.0738 -0.036897,-0.12545 -0.044276,-0.14758 -0.073794,-0.214 -0.022138,-0.0516 -0.059035,-0.12545 -0.036897,-0.0812 -0.073794,-0.16972 -0.022138,-0.0517 -0.059035,-0.13283 -0.029518,-0.0886 -0.051656,-0.16235 -0.022138,-0.0664 -0.022138,-0.14021 0,-0.39111 0.3763491,-0.39111 0.3911079,0 0.3911079,0.38373 0,0.0959 -0.029518,0.14021 -0.1033115,0.28042 -0.1106909,0.30256 -0.1106909,0.22138 -0.1402085,0.28779 -0.051656,0.11807 -0.066415,0.214 -0.022138,0.0443 -0.029518,0.0812 -0.00738,0.0295 -0.014759,0.0516 z"
         style="stroke-width:0.26987499"
         id="path968"
         inkscape:connector-curvature="0" />
    </g>
    <g
       aria-label="w"
       style="fill:#000000;fill-opacity:1;stroke:none;stroke-width:0.26987499"
       id="blackQueen"
       inkscape:export-xdpi="96"
       inkscape:export-ydpi="96">
      <title
         id="title966">Black Queen</title>
      <path
         d="m 28.080167,291.1319 q -0.61249,-0.22138 -1.726778,-0.36159 -1.106909,-0.14758 -2.449959,-0.14758 -1.313532,0 -2.405683,0.14021 -1.09215,0.13282 -1.719399,0.35421 l 0.36897,0.67152 q 0.619869,-0.18448 1.608708,-0.26566 0.988839,-0.0812 2.162163,-0.0812 1.173323,0 2.169542,0.0812 0.996218,0.0812 1.616087,0.27304 z m 1.667743,-4.92943 q -0.420625,0 -0.715801,-0.2878 -0.295176,-0.29517 -0.295176,-0.7158 0,-0.41324 0.295176,-0.70842 0.295176,-0.30256 0.715801,-0.30256 0.413246,0 0.708422,0.30256 0.295176,0.29518 0.295176,0.70842 0,0.42063 -0.295176,0.7158 -0.295176,0.2878 -0.708422,0.2878 z m -11.644684,0 q -0.420626,0 -0.715802,-0.2878 -0.287796,-0.29517 -0.287796,-0.7158 0,-0.41324 0.287796,-0.70842 0.295176,-0.30256 0.715802,-0.30256 0.420625,0 0.715801,0.30256 0.295176,0.29518 0.295176,0.70842 0,0.42063 -0.295176,0.7158 -0.295176,0.2878 -0.715801,0.2878 z m 8.914308,-0.81173 q -0.420625,0 -0.715801,-0.2878 -0.287796,-0.29518 -0.287796,-0.7158 0,-0.41325 0.287796,-0.70842 0.295176,-0.29518 0.715801,-0.29518 0.420626,0 0.715802,0.29518 0.295175,0.29517 0.295175,0.70842 0,0.42062 -0.295175,0.7158 -0.295176,0.2878 -0.715802,0.2878 z m -6.198691,0 q -0.420626,0 -0.715801,-0.2878 -0.295176,-0.29518 -0.295176,-0.7158 0,-0.41325 0.295176,-0.70842 0.295175,-0.29518 0.715801,-0.29518 0.413246,0 0.708422,0.29518 0.295176,0.29517 0.295176,0.70842 0,0.42062 -0.295176,0.7158 -0.295176,0.2878 -0.708422,0.2878 z m 7.645053,9.50466 q -0.361591,0.31731 -1.623467,0.53131 -1.261877,0.214 -2.907482,0.214 -1.675122,0 -2.944378,-0.22138 -1.269256,-0.22138 -1.601329,-0.55345 l 0.464902,-1.77106 -0.206623,-1.15856 -0.649387,-1.12905 -0.627248,-4.58998 0.36159,-0.14021 2.021954,3.40928 0.04428,-4.05867 0.501799,-0.0885 1.542293,4.08081 0.826492,-4.39074 h 0.509178 l 0.826493,4.37598 1.527534,-4.06605 0.509178,0.0885 0.04428,4.05867 2.029333,-3.41666 0.346832,0.16235 -0.61249,4.56784 -0.656766,1.12905 -0.206623,1.17332 z m -0.708422,-0.23614 -0.221382,-0.87077 q -1.438982,-0.33208 -3.615903,-0.33208 -2.154784,0 -3.601145,0.33208 l -0.236141,0.87814 q 1.402085,-0.428 3.844665,-0.428 1.173324,0 2.176921,0.11807 1.003598,0.11807 1.652985,0.30256 z m -0.191865,-2.20644 q -1.357808,-0.37635 -3.615903,-0.37635 -2.272853,0 -3.66018,0.38373 l 0.110691,0.74531 q 1.394706,-0.36159 3.549489,-0.36159 2.147404,0 3.497833,0.35422 z m -3.64542,-7.43105 q -0.420626,0 -0.715802,-0.29518 -0.287796,-0.29518 -0.287796,-0.7158 0,-0.41325 0.287796,-0.70842 0.295176,-0.29518 0.715802,-0.29518 0.413246,0 0.708421,0.29518 0.302556,0.29517 0.302556,0.70842 0,0.42062 -0.302556,0.7158 -0.295175,0.29518 -0.708421,0.29518 z"
         style="stroke-width:0.26987499"
         id="path963"
         inkscape:connector-curvature="0" />
    </g>
    <g
       aria-label="t"
       style="fill:#000000;fill-opacity:1;stroke:none;stroke-width:0.26987499"
       id="blackRook"
       inkscape:export-xdpi="96"
       inkscape:export-ydpi="96">
      <title
         id="title961">Black Rook</title>
      <path
         d="m 40.777926,284.55889 h 1.254497 v -1.01098 h 2.021954 v 2.76727 l -1.638225,1.26188 v 3.52735 l 1.254497,1.2545 v 1.51277 h 1.129047 v 1.76368 H 34.726823 v -1.76368 h 1.129047 v -1.51277 l 1.261877,-1.2545 v -3.52735 l -1.638226,-1.26188 v -2.76727 h 2.014575 v 1.01098 h 1.261876 v -1.01098 h 2.021954 z m -4.405498,9.19472 v 0.7527 h 6.789043 v -0.7527 z m 3.394521,-8.0583 h -3.77825 v 0.33945 l 0.538696,0.40587 h 6.486488 l 0.523937,-0.40587 v -0.33945 z m 0,1.24712 h -2.582788 l 0.442764,0.34683 v 0.42063 h 4.280049 v -0.42063 l 0.442763,-0.34683 z m 0,4.02915 h -2.140024 v 0.33945 l -0.442764,0.42801 h 5.165576 l -0.442763,-0.42801 v -0.33945 z m 0,1.26925 H 36.71188 l -0.339452,0.31732 v 0.428 h 6.789043 v -0.428 l -0.339453,-0.31732 z"
         style="stroke-width:0.26987499"
         id="path958"
         inkscape:connector-curvature="0" />
    </g>
    <g
       aria-label="v"
       style="fill:#000000;fill-opacity:1;stroke:none;stroke-width:0.26987499"
       id="blackBishop"
       inkscape:export-xdpi="96"
       inkscape:export-ydpi="96">
      <title
         id="title956">Black Bishop</title>
      <path
         d="m 57.578345,292.91167 -0.309935,-0.75269 q -0.752698,-0.16235 -1.652984,-0.16235 -0.892907,0 -1.638226,0.16235 l -0.309935,0.74531 q 0.915045,-0.22876 1.948161,-0.22876 1.018356,0 1.962919,0.23614 z m -0.61987,-1.52015 -0.214002,-0.51656 v -0.19924 q -0.560834,-0.0812 -1.129047,-0.0812 -0.553455,0 -1.121668,0.0812 l -0.0074,0.19924 -0.199243,0.51656 q 0.627248,-0.11069 1.328291,-0.11069 0.708421,0 1.343049,0.11069 z m -0.258278,2.78941 q -0.295176,-0.22138 -0.590352,-0.70104 h -0.236141 q 0,0.36159 0.169726,0.70104 z m -1.520156,0 q 0.169726,-0.36159 0.169726,-0.70104 h -0.23614 q -0.287797,0.47228 -0.597731,0.70104 z m 0.435385,0.13283 q -0.103312,0.42062 -0.2509,0.58297 -0.147588,0.16235 -0.391108,0.33945 -0.265658,0.18449 -0.627248,0.31732 -0.361591,0.12545 -0.804354,0.059 l -2.07361,-0.28779 q -0.12545,-0.0148 -0.228761,0 -0.09593,0.0148 -0.184485,0.0148 -0.154967,0 -0.398488,0.0738 -0.23614,0.0664 -0.368969,0.19924 l -0.715802,-1.17332 q 0.13283,-0.14759 0.236141,-0.20662 0.103312,-0.059 0.24352,-0.12545 0.428005,-0.19925 0.915045,-0.24352 0.206623,-0.0148 0.405867,-0.007 0.199243,0.007 0.413246,-0.0148 0.398487,0.0664 0.796974,0.12545 0.405867,0.0516 0.811734,0.11069 0.442764,0 0.597731,-0.0885 0.08117,-0.0443 0.258279,-0.16235 0.177105,-0.11807 0.354211,-0.34683 -0.391108,-0.0443 -0.796975,-0.14759 -0.405867,-0.11069 -0.715801,-0.22876 l 0.767457,-1.90389 q -0.575593,-0.33207 -0.804354,-0.53131 -0.228762,-0.20662 -0.361591,-0.47228 -0.191864,-0.33945 -0.250899,-0.65677 -0.05166,-0.31731 -0.04428,-0.56821 0.0074,-0.44277 0.206623,-0.97408 0.206623,-0.5387 0.767457,-0.95932 0.464902,-0.35421 0.907665,-0.73056 0.442764,-0.37635 0.878148,-0.87815 -0.546075,-0.28042 -0.546075,-0.89291 0,-0.41324 0.287796,-0.70842 0.295176,-0.29518 0.715802,-0.29518 0.413246,0 0.708421,0.29518 0.295176,0.29518 0.295176,0.70842 0,0.60511 -0.546075,0.89291 0.428005,0.5018 0.863389,0.87815 0.442764,0.37635 0.922425,0.73056 0.553454,0.42062 0.752698,0.95932 0.199243,0.53131 0.214002,0.97408 0,0.2509 -0.05166,0.56821 -0.05166,0.31732 -0.23614,0.65677 -0.147588,0.26566 -0.376349,0.47228 -0.221382,0.19924 -0.789596,0.53131 l 0.767458,1.90389 q -0.324694,0.11807 -0.730561,0.22876 -0.405866,0.10331 -0.782215,0.14759 0.169726,0.22876 0.346831,0.34683 0.177106,0.11807 0.265658,0.16235 0.154968,0.0885 0.597731,0.0885 0.398488,-0.059 0.796975,-0.11069 0.405867,-0.059 0.811733,-0.12545 0.199244,0.0221 0.398488,0.0148 0.206623,-0.007 0.420625,0.007 0.472281,0.0443 0.915045,0.24352 0.132829,0.0664 0.236141,0.12545 0.110691,0.059 0.24352,0.20662 l -0.723181,1.17332 q -0.132829,-0.13283 -0.376349,-0.19924 -0.236141,-0.0738 -0.383729,-0.0738 -0.09593,0 -0.199243,-0.0148 -0.09593,-0.0148 -0.221382,0 l -2.066231,0.28779 q -0.442763,0.0664 -0.826492,-0.059 -0.376349,-0.12545 -0.619869,-0.33208 -0.24352,-0.19924 -0.391108,-0.33945 -0.140208,-0.14759 -0.23614,-0.56821 z m -0.273038,-5.49027 v 0.62725 q 0,0.27304 0.273038,0.27304 v 0 q 0.273037,0 0.273037,-0.27304 v -0.63463 h 0.664146 q 0.258278,0 0.258278,-0.26566 v 0 q 0,-0.26566 -0.258278,-0.26566 h -0.664146 v -0.66414 q 0,-0.27304 -0.273037,-0.27304 v 0 q -0.273038,0 -0.273038,0.27304 v 0.66414 h -0.649387 q -0.258279,0 -0.258279,0.26566 v 0 q 0,0.26566 0.258279,0.26566 z"
         style="stroke-width:0.26987499"
         id="path953"
         inkscape:connector-curvature="0" />
    </g>
    <g
       aria-label="m"
       style="fill:#000000;fill-opacity:1;stroke:none;stroke-width:0.26987499"
       id="blackKnight"
       inkscape:export-xdpi="96"
       inkscape:export-ydpi="96">
      <title
         id="title951">Black Knight</title>
      <path
         d="m 67.576135,292.09644 q 0.02952,-0.0664 0.09593,-0.19924 0.12545,-0.30994 0.12545,-0.36897 -0.01476,-0.20663 -0.214003,-0.20663 -0.147587,0 -0.346831,0.42063 -0.02952,0.059 -0.08855,0.10331 -0.199243,0.20662 0.05904,0.34683 v 0 q 0.236141,0.14021 0.36897,-0.0959 z m 4.353843,-2.73776 q 0.516557,-0.6789 0.509178,-1.51277 -0.02952,-0.24352 -0.280417,-0.24352 -0.339452,0 -0.265658,0.2509 0.02214,0.40586 -0.08117,0.67152 -0.169727,0.42063 -0.37635,0.62725 -0.110691,0.22138 0.13283,0.32469 v 0 q 0.23614,0.1107 0.36159,-0.11807 z m -1.926022,-3.60114 q -0.0369,-0.26566 0.01476,-0.57559 -0.442764,0.0886 -0.833872,0.41324 -0.236141,0.12545 -0.110691,0.34683 0.12545,0.22877 0.346832,0.0738 0.154967,-0.0812 0.280417,-0.14759 0.132829,-0.0738 0.302554,-0.11069 z m 6.914493,9.35707 q -0.0074,0 0.01476,-0.39849 0.02214,-0.40586 0.02214,-0.87076 0.0074,-0.92243 0,-1.90389 -0.0074,-0.98884 -0.265658,-1.9703 -0.250899,-0.94456 -0.553454,-1.6087 -0.302555,-0.67153 -0.656766,-1.15857 -0.531317,-0.79697 -1.446362,-1.35043 -0.915045,-0.55345 -1.911263,-0.72318 0.02952,0.16973 0.01476,0.34683 -0.0074,0.17711 0.0074,0.33946 0.715802,0.24352 1.350429,0.60511 0.634628,0.36159 0.929804,0.78221 0.354211,0.48704 0.656766,1.15857 0.302555,0.66414 0.553455,1.6087 0.250899,0.98146 0.258279,1.9703 0.0074,0.98146 0.0074,1.90389 0,0.4649 -0.02214,0.87076 -0.02214,0.39849 0,0.39849 z m -4.995851,-10.50088 q 1.158565,0.0738 2.147404,0.59773 0.988839,0.52394 1.682502,1.34305 0.48704,0.5756 0.915045,1.38733 0.435384,0.81173 0.693663,1.7194 0.295176,1.05525 0.36897,2.2212 0.08117,1.15856 0.08117,2.1474 v 1.60871 q 0,0 -1.151185,0 -1.143806,0 -2.973896,0 H 68.7347 q -0.06642,0 -0.06642,-0.36159 0.0074,-0.36159 0.05166,-0.58297 0.02952,-0.17711 0.140209,-0.5018 0.110691,-0.3247 0.368969,-0.7896 0.118071,-0.23614 0.560834,-0.68628 0.442764,-0.45752 1.018357,-1.05525 0.332073,-0.33946 0.516557,-0.85601 0.191865,-0.51656 0.162347,-0.93719 -0.273037,0.22138 -0.597731,0.36159 -1.564431,0.56084 -2.265474,1.62347 -0.05166,0.0664 -0.332073,0.59773 -0.147588,0.28042 -0.250899,0.38373 -0.140209,0.14021 -0.405867,0.15497 -0.413246,0.0221 -0.642007,-0.39849 -0.309935,0.0885 -0.553455,0.0738 -0.413246,-0.15496 -0.597731,-0.33207 -0.376349,-0.37635 -0.494419,-0.7527 -0.110691,-0.37635 -0.110691,-0.81173 0,-0.61987 0.767457,-1.63823 0.900286,-1.17332 0.959321,-1.78581 0,-0.26566 0.05166,-0.59773 0.04428,-0.22876 0.184485,-0.44276 0.09593,-0.14759 0.12545,-0.19925 0.0369,-0.059 0.125449,-0.16972 0.06642,-0.0886 0.110691,-0.13283 0.04428,-0.0517 0.110691,-0.13283 0.08117,-0.0959 0.206623,-0.22138 -0.391108,-1.0774 -0.317314,-2.2212 1.4685,0.52393 2.464718,1.6456 0.24352,-0.83387 0.959321,-1.35043 0.590352,0.41325 0.937183,1.09215 z m -4.981091,6.16918 q 0.214003,-0.14759 0.04428,-0.35421 -0.177106,-0.16973 -0.391108,-0.0295 -0.450143,0.29517 -0.479661,0.77484 0.0074,0.24352 0.287796,0.22876 0.265659,-0.0221 0.258279,-0.27304 0.05903,-0.23614 0.280417,-0.34683 z m 1.859608,-3.67494 q 0.162346,-0.0812 0.162346,-0.0812 0.221382,-0.0886 0.140209,-0.3247 -0.08855,-0.22138 -0.339452,-0.14759 -0.870769,0.31732 -1.202842,1.16595 -0.05165,0.24352 0.177106,0.33207 0.228761,0.0738 0.309934,-0.16235 0.05903,-0.12544 0.08855,-0.16234 0.08117,0.0664 0.214003,0.0885 0.450143,0.0738 0.523937,-0.39849 0.02214,-0.16234 -0.07379,-0.30993 z"
         style="stroke-width:0.26987499"
         id="path948"
         inkscape:connector-curvature="0" />
    </g>
    <g
       aria-label="o"
       style="fill:#000000;fill-opacity:1;stroke:none;stroke-width:0.26987499"
       id="blackPawn"
       inkscape:export-xdpi="96"
       inkscape:export-ydpi="96">
      <title
         id="title946">Black Pawn</title>
      <path
         d="M 87.391949,295.6353 H 83.407076 Q 83.1119,294.89736 83.1119,294.093 q 0,-1.36519 0.774837,-2.44996 0.774836,-1.08477 1.992436,-1.54967 -0.523937,-0.24352 -0.856009,-0.73056 -0.324694,-0.49442 -0.324694,-1.11429 0,-0.77483 0.516558,-1.34305 0.516557,-0.56821 1.269256,-0.65676 -0.597731,-0.45015 -0.597731,-1.18809 0,-0.61987 0.435384,-1.06263 0.442764,-0.44276 1.070012,-0.44276 0.619869,0 1.062633,0.44276 0.442764,0.44276 0.442764,1.06263 0,0.73794 -0.597731,1.18809 0.752698,0.0885 1.269256,0.65676 0.516557,0.56822 0.516557,1.34305 0,0.61987 -0.339452,1.11429 -0.332073,0.48704 -0.84863,0.73056 1.2176,0.4649 1.992436,1.54967 0.774837,1.08477 0.774837,2.44996 0,0.79698 -0.287797,1.5423 z"
         style="stroke-width:0.26987499"
         id="path943"
         inkscape:connector-curvature="0" />
    </g>
    <g
       id="whiteQueen"
       style="fill:#000000;fill-opacity:1;stroke:#000000;stroke-width:0.26987499;stroke-opacity:0"
       aria-label="q"
       inkscape:export-xdpi="96"
       inkscape:export-ydpi="96">
      <title
         id="title2719">White Queen</title>
      <path
         id="path2721"
         style="stroke:#000000;stroke-width:0.26987499;stroke-opacity:0"
         d="m 23.918189,269.14677 q -0.420626,0 -0.715802,-0.29518 -0.287796,-0.29518 -0.287796,-0.7158 0,-0.41325 0.287796,-0.70842 0.295176,-0.29518 0.715802,-0.29518 0.413246,0 0.708421,0.29518 0.302556,0.29517 0.302556,0.70842 0,0.42062 -0.302556,0.7158 -0.295175,0.29518 -0.708421,0.29518 z m 0,-0.51656 q 0.494419,0 0.494419,-0.49442 0,-0.48704 -0.494419,-0.48704 -0.48704,0 -0.48704,0.48704 0,0.49442 0.48704,0.49442 z m 3.756111,7.43105 q -1.424223,-0.36159 -3.726594,-0.36159 -2.361406,0 -3.77087,0.36897 l 0.11069,0.70842 q 1.438982,-0.33945 3.66018,-0.33945 2.206439,0 3.601145,0.33207 z m 0.184485,-0.44276 0.479661,-0.84864 q -0.354211,0.14021 -0.723181,0.14021 -0.988839,0 -1.57919,-0.80435 -0.442764,0.36897 -0.988839,0.36897 -0.708422,0 -1.129047,-0.55346 -0.472282,0.51656 -1.129048,0.51656 -0.531316,0 -0.97408,-0.36159 -0.619869,0.7896 -1.601328,0.7896 -0.37635,0 -0.745319,-0.14021 l 0.516557,0.88553 q 1.431603,-0.41325 3.933218,-0.41325 2.545891,0 3.940596,0.42063 z m -3.305969,-1.76368 -0.627248,-3.60852 -0.627249,3.56424 q 0.02214,-0.0148 0.103312,-0.0738 0.169726,-0.33207 0.516558,-0.33207 0.376349,0 0.48704,0.33207 0.04428,0.0443 0.147587,0.11807 z m 2.044093,0.14021 v -3.41666 l -1.2176,3.35024 q 0.140208,-0.0516 0.23614,-0.13283 0.147588,-0.18448 0.398488,-0.18448 0.295175,0 0.472281,0.25828 0.02214,0.0295 0.05166,0.0664 0.02952,0.0295 0.05904,0.059 z m -4.14722,-0.10331 -1.210221,-3.31335 v 3.37238 q 0.02214,-0.0295 0.06642,-0.0738 0.147588,-0.30994 0.48704,-0.30994 0.280417,0 0.457522,0.23614 0.199244,0.0886 0.199244,0.0886 z m -1.874366,0.41324 -1.58657,-2.73775 0.405867,2.49423 q 0.420625,0.29518 0.819113,0.29518 0.154967,0 0.36159,-0.0517 z m 6.663593,0.0369 q 0.169726,0.0517 0.376349,0.0517 0.450143,0 0.841251,-0.28042 l 0.405867,-2.55327 z m 0.442764,3.73397 -0.221382,-0.83387 q -1.446361,-0.31731 -3.542109,-0.31731 -2.07361,0 -3.53473,0.31731 l -0.228762,0.84125 q 1.372568,-0.41324 3.770871,-0.41324 2.339268,0 3.756112,0.40586 z m 0.782216,0.94457 q -0.361591,0.31731 -1.623467,0.53131 -1.261877,0.214 -2.907482,0.214 -1.675122,0 -2.944378,-0.22138 -1.269256,-0.22138 -1.601329,-0.55345 l 0.464902,-1.77106 -0.206623,-1.15856 -0.649387,-1.12905 -0.627248,-4.58998 0.36159,-0.14021 2.021954,3.40928 0.04428,-4.05867 0.501799,-0.0885 1.542293,4.08081 0.826492,-4.39074 h 0.509178 l 0.826493,4.37598 1.527534,-4.06605 0.509178,0.0885 0.04428,4.05867 2.029333,-3.41666 0.346832,0.16235 -0.61249,4.56784 -0.656766,1.12905 -0.206623,1.17332 z m -0.597731,-0.26566 q -1.35043,-0.56084 -3.918459,-0.56084 -2.619685,0 -3.962735,0.5756 1.291394,0.50917 3.940597,0.50917 1.269256,0 2.31713,-0.1402 1.055253,-0.14021 1.623467,-0.38373 z m -7.047322,-9.239 q -0.420626,0 -0.715801,-0.2878 -0.295176,-0.29518 -0.295176,-0.7158 0,-0.41325 0.295176,-0.70842 0.295175,-0.29518 0.715801,-0.29518 0.413246,0 0.708422,0.29518 0.295176,0.29517 0.295176,0.70842 0,0.42062 -0.295176,0.7158 -0.295176,0.2878 -0.708422,0.2878 z m 0,-0.51656 q 0.48704,0 0.48704,-0.48704 0,-0.48704 -0.48704,-0.48704 -0.49442,0 -0.49442,0.48704 0,0.48704 0.49442,0.48704 z m 6.198691,0 q 0.49442,0 0.49442,-0.48704 0,-0.48704 -0.49442,-0.48704 -0.48704,0 -0.48704,0.48704 0,0.48704 0.48704,0.48704 z m 0,0.51656 q -0.420625,0 -0.715801,-0.2878 -0.287796,-0.29518 -0.287796,-0.7158 0,-0.41325 0.287796,-0.70842 0.295176,-0.29518 0.715801,-0.29518 0.420626,0 0.715802,0.29518 0.295175,0.29517 0.295175,0.70842 0,0.42062 -0.295175,0.7158 -0.295176,0.2878 -0.715802,0.2878 z m -8.914308,0.81173 q -0.420626,0 -0.715802,-0.2878 -0.287796,-0.29517 -0.287796,-0.7158 0,-0.41324 0.287796,-0.70842 0.295176,-0.30256 0.715802,-0.30256 0.420625,0 0.715801,0.30256 0.295176,0.29518 0.295176,0.70842 0,0.42063 -0.295176,0.7158 -0.295176,0.2878 -0.715801,0.2878 z m 0,-0.51656 q 0.494419,0 0.494419,-0.48704 0,-0.49442 -0.494419,-0.49442 -0.48704,0 -0.48704,0.49442 0,0.48704 0.48704,0.48704 z m 11.644684,0 q 0.48704,0 0.48704,-0.48704 0,-0.49442 -0.48704,-0.49442 -0.494419,0 -0.494419,0.49442 0,0.48704 0.494419,0.48704 z m 0,0.51656 q -0.420625,0 -0.715801,-0.2878 -0.295176,-0.29517 -0.295176,-0.7158 0,-0.41324 0.295176,-0.70842 0.295176,-0.30256 0.715801,-0.30256 0.413246,0 0.708422,0.30256 0.295176,0.29518 0.295176,0.70842 0,0.42063 -0.295176,0.7158 -0.295176,0.2878 -0.708422,0.2878 z m -5.829721,-1.1807 q -0.420626,0 -0.715802,-0.29518 -0.287796,-0.29518 -0.287796,-0.7158 0,-0.41325 0.287796,-0.70842 0.295176,-0.29518 0.715802,-0.29518 0.413246,0 0.708421,0.29518 0.302556,0.29517 0.302556,0.70842 0,0.42062 -0.302556,0.7158 -0.295175,0.29518 -0.708421,0.29518 z m 0,-0.51656 q 0.494419,0 0.494419,-0.49442 0,-0.48704 -0.494419,-0.48704 -0.48704,0 -0.48704,0.48704 0,0.49442 0.48704,0.49442 z m 3.756111,7.43105 q -1.424223,-0.36159 -3.726594,-0.36159 -2.361406,0 -3.77087,0.36897 l 0.11069,0.70842 q 1.438982,-0.33945 3.66018,-0.33945 2.206439,0 3.601145,0.33207 z m 0.184485,-0.44276 0.479661,-0.84864 q -0.354211,0.14021 -0.723181,0.14021 -0.988839,0 -1.57919,-0.80435 -0.442764,0.36897 -0.988839,0.36897 -0.708422,0 -1.129047,-0.55346 -0.472282,0.51656 -1.129048,0.51656 -0.531316,0 -0.97408,-0.36159 -0.619869,0.7896 -1.601328,0.7896 -0.37635,0 -0.745319,-0.14021 l 0.516557,0.88553 q 1.431603,-0.41325 3.933218,-0.41325 2.545891,0 3.940596,0.42063 z m -3.305969,-1.76368 -0.627248,-3.60852 -0.627249,3.56424 q 0.02214,-0.0148 0.103312,-0.0738 0.169726,-0.33207 0.516558,-0.33207 0.376349,0 0.48704,0.33207 0.04428,0.0443 0.147587,0.11807 z m 2.044093,0.14021 v -3.41666 l -1.2176,3.35024 q 0.140208,-0.0516 0.23614,-0.13283 0.147588,-0.18448 0.398488,-0.18448 0.295175,0 0.472281,0.25828 0.02214,0.0295 0.05166,0.0664 0.02952,0.0295 0.05904,0.059 z m -4.14722,-0.10331 -1.210221,-3.31335 v 3.37238 q 0.02214,-0.0295 0.06642,-0.0738 0.147588,-0.30994 0.48704,-0.30994 0.280417,0 0.457522,0.23614 0.199244,0.0886 0.199244,0.0886 z m -1.874366,0.41324 -1.58657,-2.73775 0.405867,2.49423 q 0.420625,0.29518 0.819113,0.29518 0.154967,0 0.36159,-0.0517 z m 6.663593,0.0369 q 0.169726,0.0517 0.376349,0.0517 0.450143,0 0.841251,-0.28042 l 0.405867,-2.55327 z m 0.442764,3.73397 -0.221382,-0.83387 q -1.446361,-0.31731 -3.542109,-0.31731 -2.07361,0 -3.53473,0.31731 l -0.228762,0.84125 q 1.372568,-0.41324 3.770871,-0.41324 2.339268,0 3.756112,0.40586 z m 0.782216,0.94457 q -0.361591,0.31731 -1.623467,0.53131 -1.261877,0.214 -2.907482,0.214 -1.675122,0 -2.944378,-0.22138 -1.269256,-0.22138 -1.601329,-0.55345 l 0.464902,-1.77106 -0.206623,-1.15856 -0.649387,-1.12905 -0.627248,-4.58998 0.36159,-0.14021 2.021954,3.40928 0.04428,-4.05867 0.501799,-0.0885 1.542293,4.08081 0.826492,-4.39074 h 0.509178 l 0.826493,4.37598 1.527534,-4.06605 0.509178,0.0885 0.04428,4.05867 2.029333,-3.41666 0.346832,0.16235 -0.61249,4.56784 -0.656766,1.12905 -0.206623,1.17332 z m -0.597731,-0.26566 q -1.35043,-0.56084 -3.918459,-0.56084 -2.619685,0 -3.962735,0.5756 1.291394,0.50917 3.940597,0.50917 1.269256,0 2.31713,-0.1402 1.055253,-0.14021 1.623467,-0.38373 z m -7.047322,-9.239 q -0.420626,0 -0.715801,-0.2878 -0.295176,-0.29518 -0.295176,-0.7158 0,-0.41325 0.295176,-0.70842 0.295175,-0.29518 0.715801,-0.29518 0.413246,0 0.708422,0.29518 0.295176,0.29517 0.295176,0.70842 0,0.42062 -0.295176,0.7158 -0.295176,0.2878 -0.708422,0.2878 z m 0,-0.51656 q 0.48704,0 0.48704,-0.48704 0,-0.48704 -0.48704,-0.48704 -0.49442,0 -0.49442,0.48704 0,0.48704 0.49442,0.48704 z m 6.198691,0 q 0.49442,0 0.49442,-0.48704 0,-0.48704 -0.49442,-0.48704 -0.48704,0 -0.48704,0.48704 0,0.48704 0.48704,0.48704 z m 0,0.51656 q -0.420625,0 -0.715801,-0.2878 -0.287796,-0.29518 -0.287796,-0.7158 0,-0.41325 0.287796,-0.70842 0.295176,-0.29518 0.715801,-0.29518 0.420626,0 0.715802,0.29518 0.295175,0.29517 0.295175,0.70842 0,0.42062 -0.295175,0.7158 -0.295176,0.2878 -0.715802,0.2878 z m -8.914308,0.81173 q -0.420626,0 -0.715802,-0.2878 -0.287796,-0.29517 -0.287796,-0.7158 0,-0.41324 0.287796,-0.70842 0.295176,-0.30256 0.715802,-0.30256 0.420625,0 0.715801,0.30256 0.295176,0.29518 0.295176,0.70842 0,0.42063 -0.295176,0.7158 -0.295176,0.2878 -0.715801,0.2878 z m 0,-0.51656 q 0.494419,0 0.494419,-0.48704 0,-0.49442 -0.494419,-0.49442 -0.48704,0 -0.48704,0.49442 0,0.48704 0.48704,0.48704 z m 11.644684,0 q 0.48704,0 0.48704,-0.48704 0,-0.49442 -0.48704,-0.49442 -0.494419,0 -0.494419,0.49442 0,0.48704 0.494419,0.48704 z m 0,0.51656 q -0.420625,0 -0.715801,-0.2878 -0.295176,-0.29517 -0.295176,-0.7158 0,-0.41324 0.295176,-0.70842 0.295176,-0.30256 0.715801,-0.30256 0.413246,0 0.708422,0.30256 0.295176,0.29518 0.295176,0.70842 0,0.42063 -0.295176,0.7158 -0.295176,0.2878 -0.708422,0.2878 z"
         inkscape:connector-curvature="0" />
    </g>
    <g
       id="whiteRook"
       style="fill:#000000;fill-opacity:1;stroke:none;stroke-width:0.26987499"
       aria-label="r"
       inkscape:export-xdpi="96"
       inkscape:export-ydpi="96">
      <title
         id="title2750">White Rook</title>
      <path
         inkscape:connector-curvature="0"
         id="path2752"
         style="fill:#000000;fill-opacity:1;stroke-width:0.26987499"
         d="m 40.777926,268.68389 h 1.254497 v -1.01098 h 2.021954 v 2.76727 l -1.638225,1.26188 v 3.52735 l 1.254497,1.2545 v 1.51277 h 1.129047 v 1.76368 H 34.726823 v -1.76368 h 1.129047 v -1.51277 l 1.261877,-1.2545 v -3.52735 l -1.638226,-1.26188 v -2.76727 h 2.014575 v 1.01098 h 1.261876 v -1.01098 h 2.021954 z m 3.527351,9.81459 h -9.076655 v 0.76008 h 9.076655 z m -1.143806,-1.5054 h -6.789043 v 1.0036 h 6.789043 z m -1.254497,-5.29102 h -4.280049 v 3.52735 h 4.280049 z m 1.638225,-1.76368 v -1.76367 h -1.010977 v 1.01097 h -2.272853 v -1.01097 H 39.26515 v 1.01097 h -2.265474 v -1.01097 h -1.010977 v 1.76367 z m -0.568213,6.54553 -0.760078,-0.7527 H 37.32437 l -0.774837,0.7527 z m -0.811734,-5.28365 0.937183,-0.76008 h -6.670972 l 0.944562,0.76008 z" />
    </g>
    <g
       id="whiteBishop"
       style="fill:#000000;fill-opacity:1;stroke:none;stroke-width:0.26987499"
       aria-label="b"
       inkscape:export-xdpi="96"
       inkscape:export-ydpi="96">
      <title
         id="title2756">White Bishop</title>
      <path
         inkscape:connector-curvature="0"
         id="path2758"
         style="fill:#000000;fill-opacity:1;stroke-width:0.26987499"
         d="m 55.349767,272.93373 -0.612489,-0.007 q -0.2509,0 -0.2509,-0.2509 v 0 q 0,-0.2509 0.2509,-0.2509 h 0.612489 v -0.63463 q 0,-0.25827 0.265659,-0.25827 v 0 q 0.258278,0 0.258278,0.25827 v 0.63463 h 0.634628 q 0.24352,0 0.24352,0.2509 v 0 q 0,0.2509 -0.24352,0.2509 h -0.634628 v 0.60511 q 0,0.26566 -0.258278,0.26566 v 0 q -0.265659,0 -0.265659,-0.26566 z m 0.265659,4.26529 q 0.501798,0 0.97408,-0.0812 0.47966,-0.0886 0.922424,-0.20663 -0.863389,-0.22876 -1.896504,-0.22876 -1.047874,0 -1.896505,0.22876 0.428005,0.11807 0.907666,0.20663 0.47966,0.0812 0.988839,0.0812 z m 0,-8.03616 q 0.501798,0 0.501798,-0.5018 0,-0.5018 -0.501798,-0.5018 -0.501799,0 -0.501799,0.5018 0,0.5018 0.501799,0.5018 z m 0,7.00305 q 0.863389,0 1.660363,0.16972 l -0.354211,-0.90766 q -0.649386,-0.10332 -1.306152,-0.10332 -0.671525,0 -1.313533,0.10332 l -0.354211,0.90766 q 0.789596,-0.16972 1.667744,-0.16972 z m 0,-1.34305 q 0.715801,0 1.372567,0.11069 0.723181,-0.25828 1.047874,-0.80436 0.280417,-0.47228 0.280417,-1.04049 0,-0.33945 -0.169726,-0.74532 -0.169726,-0.41325 -0.553455,-0.74532 -0.435384,-0.36159 -0.951942,-0.78959 -0.516557,-0.43539 -1.025735,-1.01098 -0.516558,0.57559 -1.033116,1.01098 -0.516557,0.428 -0.944562,0.78959 -0.391108,0.33207 -0.560834,0.74532 -0.162347,0.40587 -0.162347,0.74532 0,0.56821 0.273038,1.04049 0.317314,0.54608 1.055253,0.80436 0.649387,-0.11069 1.372568,-0.11069 z m -0.265659,2.78203 h -0.23614 q -0.413246,0.66414 -0.789595,0.83387 -0.177106,0.0885 -0.391108,0.16235 -0.214003,0.0738 -0.49442,0.0738 -0.05166,0 -0.789595,-0.11807 -0.354211,-0.0517 -0.560834,-0.11069 -0.206623,-0.059 -0.324693,-0.0738 -0.420626,-0.0516 -0.98146,0.0443 -0.339452,0.059 -0.634628,0.214 l 0.354211,0.5756 q 0.08855,-0.0886 0.228761,-0.11069 0.147588,-0.0295 0.265659,-0.059 0.309934,-0.0517 0.590351,-0.0148 0.09593,0.0221 0.376349,0.059 0.280417,0.0295 0.745319,0.10331 0.553455,0.0812 0.752698,0.0812 0.774837,0 1.188083,-0.29517 0.250899,-0.19187 0.472281,-0.53132 0.228761,-0.34683 0.228761,-0.83387 z m 0.265659,0.83387 q -0.103312,0.42062 -0.2509,0.58297 -0.147588,0.16235 -0.391108,0.33945 -0.265658,0.18449 -0.627248,0.31732 -0.361591,0.12545 -0.804354,0.059 l -2.07361,-0.28779 q -0.12545,-0.0148 -0.228761,0 -0.09593,0.0148 -0.184485,0.0148 -0.154967,0 -0.398488,0.0738 -0.23614,0.0664 -0.368969,0.19924 l -0.715802,-1.17332 q 0.13283,-0.14759 0.236141,-0.20662 0.103312,-0.059 0.24352,-0.12545 0.428005,-0.19925 0.915045,-0.24352 0.206623,-0.0148 0.405867,-0.007 0.199243,0.007 0.413246,-0.0148 0.398487,0.0664 0.796974,0.12545 0.405867,0.0516 0.811734,0.11069 0.442764,0 0.597731,-0.0885 0.08117,-0.0443 0.258279,-0.16235 0.177105,-0.11807 0.354211,-0.34683 -0.391108,-0.0443 -0.796975,-0.14759 -0.405867,-0.11069 -0.715801,-0.22876 l 0.767457,-1.90389 q -0.575593,-0.33207 -0.804354,-0.53131 -0.228762,-0.20662 -0.361591,-0.47228 -0.191864,-0.33945 -0.250899,-0.65677 -0.05166,-0.31731 -0.04428,-0.56821 0.0074,-0.44277 0.206623,-0.97408 0.206623,-0.5387 0.767457,-0.95932 0.464902,-0.35421 0.907665,-0.73056 0.442764,-0.37635 0.878148,-0.87815 -0.546075,-0.28042 -0.546075,-0.89291 0,-0.41324 0.287796,-0.70842 0.295176,-0.29518 0.715802,-0.29518 0.413246,0 0.708421,0.29518 0.295176,0.29518 0.295176,0.70842 0,0.60511 -0.546075,0.89291 0.428005,0.5018 0.863389,0.87815 0.442764,0.37635 0.922425,0.73056 0.553454,0.42062 0.752698,0.95932 0.199243,0.53131 0.214002,0.97408 0,0.2509 -0.05166,0.56821 -0.05166,0.31732 -0.23614,0.65677 -0.147588,0.26566 -0.376349,0.47228 -0.221382,0.19924 -0.789596,0.53131 l 0.767458,1.90389 q -0.324694,0.11807 -0.730561,0.22876 -0.405866,0.10331 -0.782215,0.14759 0.169726,0.22876 0.346831,0.34683 0.177106,0.11807 0.265658,0.16235 0.154968,0.0885 0.597731,0.0885 0.398488,-0.059 0.796975,-0.11069 0.405867,-0.059 0.811733,-0.12545 0.199244,0.0221 0.398488,0.0148 0.206623,-0.007 0.420625,0.007 0.472281,0.0443 0.915045,0.24352 0.132829,0.0664 0.236141,0.12545 0.110691,0.059 0.24352,0.20662 l -0.723181,1.17332 q -0.132829,-0.13283 -0.376349,-0.19924 -0.236141,-0.0738 -0.383729,-0.0738 -0.09593,0 -0.199243,-0.0148 -0.09593,-0.0148 -0.221382,0 l -2.066231,0.28779 q -0.442763,0.0664 -0.826492,-0.059 -0.376349,-0.12545 -0.619869,-0.33208 -0.24352,-0.19924 -0.391108,-0.33945 -0.140208,-0.14759 -0.23614,-0.56821 z m 0.258278,-0.83387 q 0,0.48704 0.221382,0.83387 0.228761,0.33945 0.48704,0.53132 0.405867,0.29517 1.188083,0.29517 0.191864,0 0.752698,-0.0812 0.457522,-0.0738 0.737939,-0.10331 0.280417,-0.0369 0.37635,-0.059 0.280417,-0.0369 0.590351,0.0148 0.11807,0.0295 0.258279,0.059 0.147588,0.0221 0.24352,0.11069 l 0.354211,-0.5756 q -0.302555,-0.15496 -0.642007,-0.214 -0.560834,-0.0959 -0.98146,-0.0443 -0.12545,0.0148 -0.332073,0.0738 -0.199243,0.059 -0.546075,0.11069 -0.745319,0.11807 -0.789595,0.11807 -0.287796,0 -0.501799,-0.0738 -0.214002,-0.0738 -0.383728,-0.16235 -0.391108,-0.17711 -0.796975,-0.83387 z" />
    </g>
    <g
       id="whiteKnight"
       style="fill:#000000;fill-opacity:1;stroke:none;stroke-width:0.26987499"
       aria-label="n"
       inkscape:export-xdpi="96"
       inkscape:export-ydpi="96">
      <title
         id="title2762">White Knight</title>
      <path
         inkscape:connector-curvature="0"
         id="path2764"
         style="fill:#000000;fill-opacity:1;stroke-width:0.26987499"
         d="m 69.10367,271.23297 q 0.09593,0.14759 0.07379,0.30993 -0.07379,0.47228 -0.523937,0.39849 -0.132829,-0.0221 -0.214003,-0.0885 -0.02952,0.0369 -0.08855,0.16234 -0.08117,0.23615 -0.309935,0.16235 -0.228761,-0.0885 -0.177106,-0.33207 0.332073,-0.84863 1.202842,-1.16595 0.250899,-0.0738 0.332073,0.14759 0.08855,0.23614 -0.13283,0.3247 -0.04428,0.0221 -0.08117,0.0443 -0.0369,0.0148 -0.08117,0.0369 z m -2.19168,3.51997 q -0.214003,0.13283 -0.258279,0.35421 0.0074,0.24352 -0.228761,0.26566 -0.258279,0.0295 -0.265659,-0.22138 0.02952,-0.48704 0.435385,-0.77484 0.191864,-0.15497 0.354211,0.0295 0.162346,0.19924 -0.0369,0.34683 z m 5.010608,-6.01421 q 1.158565,0.0738 2.147404,0.59773 0.988839,0.52394 1.682502,1.34305 0.48704,0.5756 0.915045,1.38733 0.435384,0.81173 0.693663,1.7194 0.295176,1.05525 0.36897,2.2212 0.08117,1.15856 0.08117,2.1474 v 1.60871 q 0,0 -1.151185,0 -1.143806,0 -2.973896,0 H 68.7347 q -0.06642,0 -0.06642,-0.36159 0.0074,-0.36159 0.05166,-0.58297 0.02952,-0.17711 0.140209,-0.5018 0.110691,-0.3247 0.368969,-0.7896 0.118071,-0.23614 0.560834,-0.68628 0.442764,-0.45752 1.018357,-1.05525 0.332073,-0.33946 0.516557,-0.85601 0.191865,-0.51656 0.162347,-0.93719 -0.273037,0.22138 -0.597731,0.36159 -1.564431,0.56084 -2.265474,1.62347 -0.05166,0.0664 -0.332073,0.59773 -0.147588,0.28042 -0.250899,0.38373 -0.140209,0.14021 -0.405867,0.15497 -0.413246,0.0221 -0.642007,-0.39849 -0.309935,0.0885 -0.553455,0.0738 -0.413246,-0.15496 -0.597731,-0.33207 -0.376349,-0.37635 -0.494419,-0.7527 -0.110691,-0.37635 -0.110691,-0.81173 0,-0.61987 0.767457,-1.63823 0.900286,-1.17332 0.959321,-1.78581 0,-0.26566 0.05166,-0.59773 0.04428,-0.22876 0.184485,-0.44276 0.09593,-0.14759 0.12545,-0.19925 0.0369,-0.059 0.125449,-0.16972 0.06642,-0.0886 0.110691,-0.13283 0.04428,-0.0517 0.110691,-0.13283 0.08117,-0.0959 0.206623,-0.22138 -0.391108,-1.0774 -0.317314,-2.2212 1.4685,0.52393 2.464718,1.6456 0.24352,-0.83387 0.959321,-1.35043 0.590352,0.41325 0.937183,1.09215 z m 4.995851,10.50088 q -0.0074,0 0.01476,-0.39849 0.02214,-0.40586 0.02214,-0.87076 0.0074,-0.92243 0,-1.90389 -0.0074,-0.98884 -0.265658,-1.9703 -0.250899,-0.94456 -0.553454,-1.6087 -0.302555,-0.67153 -0.656766,-1.15857 -0.531317,-0.79697 -1.446362,-1.35043 -0.915045,-0.55345 -1.911263,-0.72318 0.06641,0.36159 0.05903,0.70842 -0.01476,0.26566 -0.250899,0.26566 -0.273038,0 -0.24352,-0.26566 0.02214,-0.97408 -0.693663,-1.66774 -0.560834,0.59035 -0.605111,1.37257 -0.01476,0.25828 -0.265658,0.22876 -0.23614,-0.007 -0.23614,-0.27304 0,0 0.01476,-0.059 -0.302555,0.0959 -0.634628,0.27303 -0.214002,0.14759 -0.346831,-0.0738 -0.132829,-0.22138 0.11807,-0.34683 0.317314,-0.16235 0.479661,-0.24352 -0.634628,-0.64939 -1.446361,-1.04788 0.08855,1.02574 0.560833,1.94078 0.12545,0.19187 -0.05903,0.33946 -0.206623,0.16234 -0.346831,-0.0517 -0.05166,-0.0738 -0.147588,-0.26566 -0.154967,0.15497 -0.206623,0.22876 -0.05166,0.0664 -0.184485,0.29518 -0.12545,0.22876 -0.184485,0.37635 -0.06641,0.18448 -0.05903,0.30255 0.01476,0.1107 0.02214,0.2509 -0.06641,0.43539 -0.302555,0.81912 -0.228761,0.38372 -0.590352,0.93718 -0.346831,0.53132 -0.531316,0.79697 -0.184485,0.26566 -0.280417,0.67891 -0.06641,0.2509 0,0.61249 0.06642,0.35421 0.287796,0.55345 0.339453,0.34683 0.656767,0.31732 0.103311,0 0.273037,-0.0812 0.177106,-0.0812 0.273038,-0.30993 0.191864,-0.42063 0.317314,-0.42063 0.184485,0 0.199243,0.20663 0,0.0443 -0.11807,0.36897 -0.06642,0.14758 -0.177105,0.30993 -0.140209,0.19186 -0.12545,0.16235 0.11807,0.42062 0.391108,0.14759 0.08117,-0.0812 0.184485,-0.30256 0.103311,-0.22138 0.324693,-0.59773 0.258279,-0.43539 0.553455,-0.70842 0.295175,-0.27304 0.523937,-0.44277 0.132829,-0.0959 0.324693,-0.22138 0.191864,-0.12545 0.516558,-0.25828 0.258278,-0.10331 0.568213,-0.2509 0.317314,-0.15496 0.560834,-0.3911 0.339452,-0.33208 0.523937,-0.81912 0.09593,-0.27303 0.07379,-0.67152 -0.06641,-0.2509 0.250899,-0.2509 0.236141,0 0.265658,0.24352 0,0.83387 -0.472281,1.52015 0.154968,0.47229 0.08117,1.03312 -0.06641,0.45014 -0.317314,0.9667 -0.24352,0.50918 -0.996219,1.13643 -1.527534,1.26925 -1.446361,2.6123 0,0 1.254497,0 1.261877,0 2.368786,0 z" />
    </g>
    <g
       id="whitePawn"
       style="fill:#000000;fill-opacity:1;stroke:#000000;stroke-width:0.05;stroke-miterlimit:4;stroke-dasharray:none;stroke-opacity:1"
       aria-label="p"
       inkscape:export-xdpi="96"
       inkscape:export-ydpi="96">
      <title
         id="title2768">White Pawn</title>
      <path
         inkscape:connector-curvature="0"
         id="path2770"
         style="fill:#000000;fill-opacity:1;stroke:#000000;stroke-width:0.05;stroke-miterlimit:4;stroke-dasharray:none;stroke-opacity:1"
         d="m 87.391949,279.2585 h 3.623283 q 0.154967,-0.53132 0.154967,-1.0405 0,-1.15118 -0.642007,-2.08837 -0.634628,-0.93718 -1.638226,-1.37994 -0.48704,-0.0369 -0.48704,-0.53132 0,-0.39111 0.49442,-0.57559 0.686283,-0.47966 0.686283,-1.26926 0,-0.56821 -0.383728,-0.99622 -0.383729,-0.428 -0.929804,-0.49442 -0.442764,-0.0369 -0.442764,-0.50179 0,-0.20663 0.162347,-0.38373 0.398487,-0.30994 0.398487,-0.81174 0,-0.41324 -0.295175,-0.70842 -0.295176,-0.29517 -0.701043,-0.29517 -0.420625,0 -0.715801,0.29517 -0.287796,0.29518 -0.287796,0.70842 0,0.49442 0.398487,0.81174 0.162347,0.16234 0.162347,0.38373 0,0.4649 -0.435385,0.50179 -0.553454,0.0664 -0.937183,0.49442 -0.376349,0.42801 -0.376349,0.99622 0,0.7896 0.686284,1.26926 0.494419,0.19186 0.494419,0.57559 0,0.49442 -0.494419,0.53132 -1.003598,0.44276 -1.638226,1.37994 -0.634628,0.93719 -0.634628,2.08837 0,0.54608 0.154967,1.0405 z m 0,0.5018 H 83.407076 Q 83.1119,279.02236 83.1119,278.218 q 0,-1.36519 0.774837,-2.44996 0.774836,-1.08477 1.992436,-1.54967 -0.523937,-0.24352 -0.856009,-0.73056 -0.324694,-0.49442 -0.324694,-1.11429 0,-0.77483 0.516558,-1.34305 0.516557,-0.56821 1.269256,-0.65676 -0.597731,-0.45015 -0.597731,-1.18809 0,-0.61987 0.435384,-1.06263 0.442764,-0.44276 1.070012,-0.44276 0.619869,0 1.062633,0.44276 0.442764,0.44276 0.442764,1.06263 0,0.73794 -0.597731,1.18809 0.752698,0.0885 1.269256,0.65676 0.516557,0.56822 0.516557,1.34305 0,0.61987 -0.339452,1.11429 -0.332073,0.48704 -0.84863,0.73056 1.2176,0.4649 1.992436,1.54967 0.774837,1.08477 0.774837,2.44996 0,0.79698 -0.287797,1.5423 z" />
    </g>
    <g
       id="g922"
       inkscape:export-xdpi="96"
       inkscape:export-ydpi="96"
       style="fill:#000000;fill-opacity:1">
      <g
         inkscape:export-ydpi="96"
         inkscape:export-xdpi="96"
         aria-label="k"
         style="fill:#000000;fill-opacity:1;stroke:none;stroke-width:0;stroke-miterlimit:4;stroke-dasharray:none;stroke-opacity:1"
         id="whiteKing">
        <title
           id="title2446">White King</title>
        <path
           inkscape:connector-curvature="0"
           d="m 4.2742923,276.72497 q 1.4020849,-0.35421 3.7192148,-0.35421 2.2728539,0 3.6675589,0.33945 l 0.184485,-1.08477 q -1.483258,-0.3911 -3.8815615,-0.3911 -2.413062,0 -3.8741821,0.39848 z m -0.4501431,0.45015 -0.24352,-1.37995 q -0.00738,0 -0.022138,-0.0295 -0.036897,-0.0516 -0.2140025,-0.13283 -0.169726,-0.0885 -0.3984873,-0.29517 -0.3246933,-0.27304 -0.5091782,-0.44277 -0.1771054,-0.16972 -0.3246933,-0.36897 -0.4501431,-0.61987 -0.5017989,-1.49801 -0.073794,-0.84863 0.6862837,-1.68988 0.7674571,-0.84126 2.0736099,-0.7896 0.48704,0.0295 1.1438061,0.23614 0.2140025,0.0885 0.4353843,0.17711 0.2287612,0.0812 0.4501431,0.16972 0.1180703,0.059 0.206623,0.11807 -0.036897,-0.15496 -0.036897,-0.30993 0,-0.57559 0.4058667,-0.98146 0.4132461,-0.40587 0.9888389,-0.41325 0.5755928,0 0.9814595,0.41325 0.4058667,0.40587 0.4058667,0.97408 0,0.11807 -0.029518,0.30993 0.1033115,-0.0664 0.1992436,-0.11069 0.3394522,-0.14759 0.8929065,-0.34683 0.634628,-0.214 1.143807,-0.24352 1.306152,-0.059 2.06623,0.7896 0.745319,0.84125 0.693663,1.68988 -0.05903,0.87815 -0.509178,1.49801 -0.147588,0.19925 -0.332073,0.37635 -0.184485,0.16973 -0.494419,0.43539 -0.24352,0.20662 -0.413246,0.29517 -0.169726,0.0812 -0.199244,0.13283 -0.0074,0.0148 -0.01476,0.0221 -0.0074,0.007 -0.0074,0.0148 l -0.236141,1.38733 0.48704,1.82271 q -0.368969,0.33207 -1.652984,0.54607 -1.284015,0.214 -2.9665169,0.214 -1.7120195,0 -3.010793,-0.22138 -1.2987734,-0.22876 -1.6308461,-0.56821 z m 7.9771258,0.86339 -0.221382,-0.84863 q -1.46112,-0.3247 -3.6159035,-0.3247 -2.1474038,0 -3.6085239,0.3247 l -0.2361406,0.85601 q 1.4094643,-0.41325 3.8520439,-0.41325 2.4278211,0 3.8299061,0.40587 z m 0.191864,0.69366 q -1.424223,-0.57559 -3.9996319,-0.57559 -2.6713408,0 -4.0439082,0.59035 1.2987734,0.51656 4.02177,0.51656 1.2987734,0 2.3687861,-0.14021 1.070012,-0.14759 1.652984,-0.39111 z m -4.2874283,-3.99963 q -0.00738,-0.2878 -0.022138,-0.56822 -0.014759,-0.28779 -0.1106909,-0.63462 -0.3025552,-0.98884 -0.9150449,-1.59395 -0.317314,-0.30994 -0.9740801,-0.5756 -0.7526982,-0.29517 -1.4242231,-0.29517 -1.1659444,0 -1.7267783,0.83387 -0.317314,0.44276 -0.317314,1.10691 0,0.72318 0.3542109,1.18808 0.2140025,0.27304 0.5460752,0.54608 0.3320728,0.27303 0.6198692,0.49442 1.291394,-0.46491 3.970114,-0.5018 z m 0.2582788,-1.37257 q 0.051656,-0.20662 0.088553,-0.2878 0.073794,-0.28779 0.1697261,-0.48704 0.044276,-0.12545 0.1254497,-0.28779 0.088553,-0.16973 0.1844849,-0.38373 0.059035,-0.12545 0.1254497,-0.30256 0.066414,-0.18448 0.1328291,-0.36159 0.059035,-0.14758 0.059035,-0.31731 0,-0.36159 -0.2582788,-0.61249 -0.2582788,-0.25828 -0.6272485,-0.25828 -0.8781479,0 -0.8781479,0.87815 0,0.16972 0.059035,0.31731 0.1623467,0.47966 0.2508994,0.66415 0.095932,0.214 0.1771055,0.38373 0.081173,0.16234 0.1402085,0.28779 0.095932,0.24352 0.1623467,0.48704 0.014759,0.0443 0.088553,0.28042 z m 0.2508994,1.37257 q 1.2692559,0.0148 2.3245091,0.15496 1.055254,0.13283 1.652985,0.33946 0.280417,-0.22139 0.612489,-0.48704 0.332073,-0.27304 0.553455,-0.55346 0.354211,-0.45014 0.354211,-1.18808 0,-0.66415 -0.317314,-1.10691 -0.568214,-0.82649 -1.726778,-0.82649 -0.693664,0 -1.424224,0.28779 -0.6420069,0.25828 -0.9740797,0.5756 -0.6198691,0.61987 -0.9150449,1.59395 -0.1033115,0.34683 -0.1254497,0.63462 -0.014759,0.28042 -0.014759,0.5756 z m 0.00738,-5.20986 h -0.523937 v -0.9667 H 7.0858416 q -0.2508995,0 -0.2508995,-0.24352 v -0.007 q 0,-0.24352 0.2508995,-0.24352 h 0.6124897 v -0.62724 q 0,-0.25828 0.2656582,-0.25828 v 0 q 0.2582788,0 0.2582788,0.25828 v 0.62724 h 0.6346279 q 0.24352,0 0.24352,0.24352 v 0.007 q 0,0.24352 -0.24352,0.24352 l -0.6272485,0.007 z m -3.9479766,7.20229 q 1.4020849,-0.35421 3.7192148,-0.35421 2.2728539,0 3.6675589,0.33945 l 0.184485,-1.08477 q -1.483258,-0.3911 -3.8815615,-0.3911 -2.413062,0 -3.8741821,0.39848 z m -0.4501431,0.45015 -0.24352,-1.37995 q -0.00738,0 -0.022138,-0.0295 -0.036897,-0.0516 -0.2140025,-0.13283 -0.169726,-0.0885 -0.3984873,-0.29517 -0.3246933,-0.27304 -0.5091782,-0.44277 -0.1771054,-0.16972 -0.3246933,-0.36897 -0.4501431,-0.61987 -0.5017989,-1.49801 -0.073794,-0.84863 0.6862837,-1.68988 0.7674571,-0.84126 2.0736099,-0.7896 0.48704,0.0295 1.1438061,0.23614 0.2140025,0.0885 0.4353843,0.17711 0.2287612,0.0812 0.4501431,0.16972 0.1180703,0.059 0.206623,0.11807 -0.036897,-0.15496 -0.036897,-0.30993 0,-0.57559 0.4058667,-0.98146 0.4132461,-0.40587 0.9888389,-0.41325 0.5755928,0 0.9814595,0.41325 0.4058667,0.40587 0.4058667,0.97408 0,0.11807 -0.029518,0.30993 0.1033115,-0.0664 0.1992436,-0.11069 0.3394522,-0.14759 0.8929065,-0.34683 0.634628,-0.214 1.143807,-0.24352 1.306152,-0.059 2.06623,0.7896 0.745319,0.84125 0.693663,1.68988 -0.05903,0.87815 -0.509178,1.49801 -0.147588,0.19925 -0.332073,0.37635 -0.184485,0.16973 -0.494419,0.43539 -0.24352,0.20662 -0.413246,0.29517 -0.169726,0.0812 -0.199244,0.13283 -0.0074,0.0148 -0.01476,0.0221 -0.0074,0.007 -0.0074,0.0148 l -0.236141,1.38733 0.48704,1.82271 q -0.368969,0.33207 -1.652984,0.54607 -1.284015,0.214 -2.9665169,0.214 -1.7120195,0 -3.010793,-0.22138 -1.2987734,-0.22876 -1.6308461,-0.56821 z m 7.9771258,0.86339 -0.221382,-0.84863 q -1.46112,-0.3247 -3.6159035,-0.3247 -2.1474038,0 -3.6085239,0.3247 l -0.2361406,0.85601 q 1.4094643,-0.41325 3.8520439,-0.41325 2.4278211,0 3.8299061,0.40587 z m 0.191864,0.69366 q -1.424223,-0.57559 -3.9996319,-0.57559 -2.6713408,0 -4.0439082,0.59035 1.2987734,0.51656 4.02177,0.51656 1.2987734,0 2.3687861,-0.14021 1.070012,-0.14759 1.652984,-0.39111 z m -4.2874283,-3.99963 q -0.00738,-0.2878 -0.022138,-0.56822 -0.014759,-0.28779 -0.1106909,-0.63462 -0.3025552,-0.98884 -0.9150449,-1.59395 -0.317314,-0.30994 -0.9740801,-0.5756 -0.7526982,-0.29517 -1.4242231,-0.29517 -1.1659444,0 -1.7267783,0.83387 -0.317314,0.44276 -0.317314,1.10691 0,0.72318 0.3542109,1.18808 0.2140025,0.27304 0.5460752,0.54608 0.3320728,0.27303 0.6198692,0.49442 1.291394,-0.46491 3.970114,-0.5018 z m 0.2582788,-1.37257 q 0.051656,-0.20662 0.088553,-0.2878 0.073794,-0.28779 0.1697261,-0.48704 0.044276,-0.12545 0.1254497,-0.28779 0.088553,-0.16973 0.1844849,-0.38373 0.059035,-0.12545 0.1254497,-0.30256 0.066414,-0.18448 0.1328291,-0.36159 0.059035,-0.14758 0.059035,-0.31731 0,-0.36159 -0.2582788,-0.61249 -0.2582788,-0.25828 -0.6272485,-0.25828 -0.8781479,0 -0.8781479,0.87815 0,0.16972 0.059035,0.31731 0.1623467,0.47966 0.2508994,0.66415 0.095932,0.214 0.1771055,0.38373 0.081173,0.16234 0.1402085,0.28779 0.095932,0.24352 0.1623467,0.48704 0.014759,0.0443 0.088553,0.28042 z m 0.2508994,1.37257 q 1.2692559,0.0148 2.3245091,0.15496 1.055254,0.13283 1.652985,0.33946 0.280417,-0.22139 0.612489,-0.48704 0.332073,-0.27304 0.553455,-0.55346 0.354211,-0.45014 0.354211,-1.18808 0,-0.66415 -0.317314,-1.10691 -0.568214,-0.82649 -1.726778,-0.82649 -0.693664,0 -1.424224,0.28779 -0.6420069,0.25828 -0.9740797,0.5756 -0.6198691,0.61987 -0.9150449,1.59395 -0.1033115,0.34683 -0.1254497,0.63462 -0.014759,0.28042 -0.014759,0.5756 z m 0.00738,-5.20986 h -0.523937 v -0.9667 H 7.0858416 q -0.2508995,0 -0.2508995,-0.24352 v -0.007 q 0,-0.24352 0.2508995,-0.24352 h 0.6124897 v -0.62724 q 0,-0.25828 0.2656582,-0.25828 v 0 q 0.2582788,0 0.2582788,0.25828 v 0.62724 h 0.6346279 q 0.24352,0 0.24352,0.24352 v 0.007 q 0,0.24352 -0.24352,0.24352 l -0.6272485,0.007 z"
           style="fill:#ffffff;fill-opacity:1;stroke:#00ffff;stroke-width:0;stroke-miterlimit:4;stroke-dasharray:none;stroke-opacity:1"
           id="path2448" />
      </g>
      <g
         id="g912"
         style="fill:#000000;fill-opacity:1;stroke:#ffffff;stroke-width:0;stroke-miterlimit:4;stroke-dasharray:none;stroke-opacity:1"
         aria-label="k"
         inkscape:export-xdpi="96"
         inkscape:export-ydpi="96">
        <title
           id="title908">White King</title>
        <path
           id="path910"
           style="fill:#000000;fill-opacity:1;stroke:#ffffff;stroke-width:0;stroke-miterlimit:4;stroke-dasharray:none;stroke-opacity:1"
           d="m 4.2742923,276.72497 q 1.4020849,-0.35421 3.7192148,-0.35421 2.2728539,0 3.6675589,0.33945 l 0.184485,-1.08477 q -1.483258,-0.3911 -3.8815615,-0.3911 -2.413062,0 -3.8741821,0.39848 z m -0.4501431,0.45015 -0.24352,-1.37995 q -0.00738,0 -0.022138,-0.0295 -0.036897,-0.0516 -0.2140025,-0.13283 -0.169726,-0.0885 -0.3984873,-0.29517 -0.3246933,-0.27304 -0.5091782,-0.44277 -0.1771054,-0.16972 -0.3246933,-0.36897 -0.4501431,-0.61987 -0.5017989,-1.49801 -0.073794,-0.84863 0.6862837,-1.68988 0.7674571,-0.84126 2.0736099,-0.7896 0.48704,0.0295 1.1438061,0.23614 0.2140025,0.0885 0.4353843,0.17711 0.2287612,0.0812 0.4501431,0.16972 0.1180703,0.059 0.206623,0.11807 -0.036897,-0.15496 -0.036897,-0.30993 0,-0.57559 0.4058667,-0.98146 0.4132461,-0.40587 0.9888389,-0.41325 0.5755928,0 0.9814595,0.41325 0.4058667,0.40587 0.4058667,0.97408 0,0.11807 -0.029518,0.30993 0.1033115,-0.0664 0.1992436,-0.11069 0.3394522,-0.14759 0.8929065,-0.34683 0.634628,-0.214 1.143807,-0.24352 1.306152,-0.059 2.06623,0.7896 0.745319,0.84125 0.693663,1.68988 -0.05903,0.87815 -0.509178,1.49801 -0.147588,0.19925 -0.332073,0.37635 -0.184485,0.16973 -0.494419,0.43539 -0.24352,0.20662 -0.413246,0.29517 -0.169726,0.0812 -0.199244,0.13283 -0.0074,0.0148 -0.01476,0.0221 -0.0074,0.007 -0.0074,0.0148 l -0.236141,1.38733 0.48704,1.82271 q -0.368969,0.33207 -1.652984,0.54607 -1.284015,0.214 -2.9665169,0.214 -1.7120195,0 -3.010793,-0.22138 -1.2987734,-0.22876 -1.6308461,-0.56821 z m 7.9771258,0.86339 -0.221382,-0.84863 q -1.46112,-0.3247 -3.6159035,-0.3247 -2.1474038,0 -3.6085239,0.3247 l -0.2361406,0.85601 q 1.4094643,-0.41325 3.8520439,-0.41325 2.4278211,0 3.8299061,0.40587 z m 0.191864,0.69366 q -1.424223,-0.57559 -3.9996319,-0.57559 -2.6713408,0 -4.0439082,0.59035 1.2987734,0.51656 4.02177,0.51656 1.2987734,0 2.3687861,-0.14021 1.070012,-0.14759 1.652984,-0.39111 z m -4.2874283,-3.99963 q -0.00738,-0.2878 -0.022138,-0.56822 -0.014759,-0.28779 -0.1106909,-0.63462 -0.3025552,-0.98884 -0.9150449,-1.59395 -0.317314,-0.30994 -0.9740801,-0.5756 -0.7526982,-0.29517 -1.4242231,-0.29517 -1.1659444,0 -1.7267783,0.83387 -0.317314,0.44276 -0.317314,1.10691 0,0.72318 0.3542109,1.18808 0.2140025,0.27304 0.5460752,0.54608 0.3320728,0.27303 0.6198692,0.49442 1.291394,-0.46491 3.970114,-0.5018 z m 0.2582788,-1.37257 q 0.051656,-0.20662 0.088553,-0.2878 0.073794,-0.28779 0.1697261,-0.48704 0.044276,-0.12545 0.1254497,-0.28779 0.088553,-0.16973 0.1844849,-0.38373 0.059035,-0.12545 0.1254497,-0.30256 0.066414,-0.18448 0.1328291,-0.36159 0.059035,-0.14758 0.059035,-0.31731 0,-0.36159 -0.2582788,-0.61249 -0.2582788,-0.25828 -0.6272485,-0.25828 -0.8781479,0 -0.8781479,0.87815 0,0.16972 0.059035,0.31731 0.1623467,0.47966 0.2508994,0.66415 0.095932,0.214 0.1771055,0.38373 0.081173,0.16234 0.1402085,0.28779 0.095932,0.24352 0.1623467,0.48704 0.014759,0.0443 0.088553,0.28042 z m 0.2508994,1.37257 q 1.2692559,0.0148 2.3245091,0.15496 1.055254,0.13283 1.652985,0.33946 0.280417,-0.22139 0.612489,-0.48704 0.332073,-0.27304 0.553455,-0.55346 0.354211,-0.45014 0.354211,-1.18808 0,-0.66415 -0.317314,-1.10691 -0.568214,-0.82649 -1.726778,-0.82649 -0.693664,0 -1.424224,0.28779 -0.6420069,0.25828 -0.9740797,0.5756 -0.6198691,0.61987 -0.9150449,1.59395 -0.1033115,0.34683 -0.1254497,0.63462 -0.014759,0.28042 -0.014759,0.5756 z m 0.00738,-5.20986 h -0.523937 v -0.9667 H 7.0858416 q -0.2508995,0 -0.2508995,-0.24352 v -0.007 q 0,-0.24352 0.2508995,-0.24352 h 0.6124897 v -0.62724 q 0,-0.25828 0.2656582,-0.25828 v 0 q 0.2582788,0 0.2582788,0.25828 v 0.62724 h 0.6346279 q 0.24352,0 0.24352,0.24352 v 0.007 q 0,0.24352 -0.24352,0.24352 l -0.6272485,0.007 z m -3.9479766,7.20229 q 1.4020849,-0.35421 3.7192148,-0.35421 2.2728539,0 3.6675589,0.33945 l 0.184485,-1.08477 q -1.483258,-0.3911 -3.8815615,-0.3911 -2.413062,0 -3.8741821,0.39848 z m -0.4501431,0.45015 -0.24352,-1.37995 q -0.00738,0 -0.022138,-0.0295 -0.036897,-0.0516 -0.2140025,-0.13283 -0.169726,-0.0885 -0.3984873,-0.29517 -0.3246933,-0.27304 -0.5091782,-0.44277 -0.1771054,-0.16972 -0.3246933,-0.36897 -0.4501431,-0.61987 -0.5017989,-1.49801 -0.073794,-0.84863 0.6862837,-1.68988 0.7674571,-0.84126 2.0736099,-0.7896 0.48704,0.0295 1.1438061,0.23614 0.2140025,0.0885 0.4353843,0.17711 0.2287612,0.0812 0.4501431,0.16972 0.1180703,0.059 0.206623,0.11807 -0.036897,-0.15496 -0.036897,-0.30993 0,-0.57559 0.4058667,-0.98146 0.4132461,-0.40587 0.9888389,-0.41325 0.5755928,0 0.9814595,0.41325 0.4058667,0.40587 0.4058667,0.97408 0,0.11807 -0.029518,0.30993 0.1033115,-0.0664 0.1992436,-0.11069 0.3394522,-0.14759 0.8929065,-0.34683 0.634628,-0.214 1.143807,-0.24352 1.306152,-0.059 2.06623,0.7896 0.745319,0.84125 0.693663,1.68988 -0.05903,0.87815 -0.509178,1.49801 -0.147588,0.19925 -0.332073,0.37635 -0.184485,0.16973 -0.494419,0.43539 -0.24352,0.20662 -0.413246,0.29517 -0.169726,0.0812 -0.199244,0.13283 -0.0074,0.0148 -0.01476,0.0221 -0.0074,0.007 -0.0074,0.0148 l -0.236141,1.38733 0.48704,1.82271 q -0.368969,0.33207 -1.652984,0.54607 -1.284015,0.214 -2.9665169,0.214 -1.7120195,0 -3.010793,-0.22138 -1.2987734,-0.22876 -1.6308461,-0.56821 z m 7.9771258,0.86339 -0.221382,-0.84863 q -1.46112,-0.3247 -3.6159035,-0.3247 -2.1474038,0 -3.6085239,0.3247 l -0.2361406,0.85601 q 1.4094643,-0.41325 3.8520439,-0.41325 2.4278211,0 3.8299061,0.40587 z m 0.191864,0.69366 q -1.424223,-0.57559 -3.9996319,-0.57559 -2.6713408,0 -4.0439082,0.59035 1.2987734,0.51656 4.02177,0.51656 1.2987734,0 2.3687861,-0.14021 1.070012,-0.14759 1.652984,-0.39111 z m -4.2874283,-3.99963 q -0.00738,-0.2878 -0.022138,-0.56822 -0.014759,-0.28779 -0.1106909,-0.63462 -0.3025552,-0.98884 -0.9150449,-1.59395 -0.317314,-0.30994 -0.9740801,-0.5756 -0.7526982,-0.29517 -1.4242231,-0.29517 -1.1659444,0 -1.7267783,0.83387 -0.317314,0.44276 -0.317314,1.10691 0,0.72318 0.3542109,1.18808 0.2140025,0.27304 0.5460752,0.54608 0.3320728,0.27303 0.6198692,0.49442 1.291394,-0.46491 3.970114,-0.5018 z m 0.2582788,-1.37257 q 0.051656,-0.20662 0.088553,-0.2878 0.073794,-0.28779 0.1697261,-0.48704 0.044276,-0.12545 0.1254497,-0.28779 0.088553,-0.16973 0.1844849,-0.38373 0.059035,-0.12545 0.1254497,-0.30256 0.066414,-0.18448 0.1328291,-0.36159 0.059035,-0.14758 0.059035,-0.31731 0,-0.36159 -0.2582788,-0.61249 -0.2582788,-0.25828 -0.6272485,-0.25828 -0.8781479,0 -0.8781479,0.87815 0,0.16972 0.059035,0.31731 0.1623467,0.47966 0.2508994,0.66415 0.095932,0.214 0.1771055,0.38373 0.081173,0.16234 0.1402085,0.28779 0.095932,0.24352 0.1623467,0.48704 0.014759,0.0443 0.088553,0.28042 z m 0.2508994,1.37257 q 1.2692559,0.0148 2.3245091,0.15496 1.055254,0.13283 1.652985,0.33946 0.280417,-0.22139 0.612489,-0.48704 0.332073,-0.27304 0.553455,-0.55346 0.354211,-0.45014 0.354211,-1.18808 0,-0.66415 -0.317314,-1.10691 -0.568214,-0.82649 -1.726778,-0.82649 -0.693664,0 -1.424224,0.28779 -0.6420069,0.25828 -0.9740797,0.5756 -0.6198691,0.61987 -0.9150449,1.59395 -0.1033115,0.34683 -0.1254497,0.63462 -0.014759,0.28042 -0.014759,0.5756 z m 0.00738,-5.20986 h -0.523937 v -0.9667 H 7.0858416 q -0.2508995,0 -0.2508995,-0.24352 v -0.007 q 0,-0.24352 0.2508995,-0.24352 h 0.6124897 v -0.62724 q 0,-0.25828 0.2656582,-0.25828 v 0 q 0.2582788,0 0.2582788,0.25828 v 0.62724 h 0.6346279 q 0.24352,0 0.24352,0.24352 v 0.007 q 0,0.24352 -0.24352,0.24352 l -0.6272485,0.007 z"
           inkscape:connector-curvature="0" />
      </g>
    </g>
  </g>
</svg>
