<?xml version="1.0" encoding="UTF-8" standalone="no"?>
<svg
   xmlns:dc="http://purl.org/dc/elements/1.1/"
   xmlns:cc="http://creativecommons.org/ns#"
   xmlns:rdf="http://www.w3.org/1999/02/22-rdf-syntax-ns#"
   xmlns:svg="http://www.w3.org/2000/svg"
   xmlns="http://www.w3.org/2000/svg"
   xmlns:sodipodi="http://sodipodi.sourceforge.net/DTD/sodipodi-0.dtd"
   xmlns:inkscape="http://www.inkscape.org/namespaces/inkscape"
   version="1.1"
   viewBox="0 0 270 90"
   id="svg2610"
   sodipodi:docname="Chess_Pieces_Sprite.svg"
   inkscape:version="0.92.3 (2405546, 2018-03-11)">
  <metadata
     id="metadata2616">
    <rdf:RDF>
      <cc:Work
         rdf:about="">
        <dc:format>image/svg+xml</dc:format>
        <dc:type
           rdf:resource="http://purl.org/dc/dcmitype/StillImage" />
        <dc:title></dc:title>
      </cc:Work>
    </rdf:RDF>
  </metadata>
  <defs
     id="defs2614" />
  <sodipodi:namedview
     pagecolor="#ffffff"
     bordercolor="#666666"
     borderopacity="1"
     objecttolerance="10"
     gridtolerance="10"
     guidetolerance="10"
     inkscape:pageopacity="0"
     inkscape:pageshadow="2"
     inkscape:window-width="1920"
     inkscape:window-height="1017"
     id="namedview2612"
     showgrid="false"
     inkscape:zoom="1.0518519"
     inkscape:cx="350.80986"
     inkscape:cy="-210.26408"
     inkscape:window-x="-8"
     inkscape:window-y="-8"
     inkscape:window-maximized="1"
     inkscape:current-layer="svg2610" />
  <g
     id="g2452"
     style="fill-rule:evenodd;stroke:#000000;stroke-width:1.5;stroke-linecap:round;stroke-linejoin:round">
    <path
       d="M 22.5,11.63 V 6"
       id="path2438"
       inkscape:connector-curvature="0"
       style="fill:none;stroke-linejoin:miter" />
    <path
       d="m 20,8 h 5"
       id="path2440"
       inkscape:connector-curvature="0"
       style="fill:none;stroke-linejoin:miter" />
    <path
       d="m 22.5,25 c 0,0 4.5,-7.5 3,-10.5 0,0 -1,-2.5 -3,-2.5 -2,0 -3,2.5 -3,2.5 -1.5,3 3,10.5 3,10.5"
       id="path2442"
       inkscape:connector-curvature="0"
       style="fill:#ffffff;stroke-linecap:butt;stroke-linejoin:miter" />
    <path
       d="m 11.5,37 c 5.5,3.5 15.5,3.5 21,0 v -7 c 0,0 9,-4.5 6,-10.5 -4,-6.5 -13.5,-3.5 -16,4 V 27 23.5 C 19,16 9.5,13 6.5,19.5 c -3,6 5,10 5,10 z"
       id="path2444"
       inkscape:connector-curvature="0"
       style="fill:#ffffff" />
    <path
       d="M 11.5,30 C 17,27 27,27 32.5,30"
       id="path2446"
       inkscape:connector-curvature="0"
       style="fill:none" />
    <path
       d="m 11.5,33.5 c 5.5,-3 15.5,-3 21,0"
       id="path2448"
       inkscape:connector-curvature="0"
       style="fill:none" />
    <path
       d="M 11.5,37 C 17,34 27,34 32.5,37"
       id="path2450"
       inkscape:connector-curvature="0"
       style="fill:none" />
  </g>
  <g
     transform="translate(45)"
     id="g2472"
     style="fill:#ffffff;fill-rule:evenodd;stroke:#000000;stroke-width:1.5;stroke-linecap:round;stroke-linejoin:round">
    <path
       transform="translate(-1,-1)"
       d="m 9,13 a 2,2 0 1 1 -4,0 2,2 0 1 1 4,0 z"
       id="path2454"
       inkscape:connector-curvature="0" />
    <path
       transform="translate(15.5,-5.5)"
       d="m 9,13 a 2,2 0 1 1 -4,0 2,2 0 1 1 4,0 z"
       id="path2456"
       inkscape:connector-curvature="0" />
    <path
       transform="translate(32,-1)"
       d="m 9,13 a 2,2 0 1 1 -4,0 2,2 0 1 1 4,0 z"
       id="path2458"
       inkscape:connector-curvature="0" />
    <path
       transform="translate(7,-4.5)"
       d="m 9,13 a 2,2 0 1 1 -4,0 2,2 0 1 1 4,0 z"
       id="path2460"
       inkscape:connector-curvature="0" />
    <path
       transform="translate(24,-4)"
       d="m 9,13 a 2,2 0 1 1 -4,0 2,2 0 1 1 4,0 z"
       id="path2462"
       inkscape:connector-curvature="0" />
    <path
       d="m 9,26 c 8.5,-1.5 21,-1.5 27,0 L 38,14 31,25 V 11 l -5.5,13.5 -3,-15 -3,15 -5.5,-14 V 25 L 7,14 Z"
       id="path2464"
       inkscape:connector-curvature="0"
       style="stroke-linecap:butt" />
    <path
       d="m 9,26 c 0,2 1.5,2 2.5,4 1,1.5 1,1 0.5,3.5 -1.5,1 -1.5,2.5 -1.5,2.5 -1.5,1.5 0.5,2.5 0.5,2.5 6.5,1 16.5,1 23,0 0,0 1.5,-1 0,-2.5 0,0 0.5,-1.5 -1,-2.5 -0.5,-2.5 -0.5,-2 0.5,-3.5 1,-2 2.5,-2 2.5,-4 -8.5,-1.5 -18.5,-1.5 -27,0 z"
       id="path2466"
       inkscape:connector-curvature="0"
       style="stroke-linecap:butt" />
    <path
       d="M 11.5,30 C 15,29 30,29 33.5,30"
       id="path2468"
       inkscape:connector-curvature="0"
       style="fill:none" />
    <path
       d="m 12,33.5 c 6,-1 15,-1 21,0"
       id="path2470"
       inkscape:connector-curvature="0"
       style="fill:none" />
  </g>
  <g
     transform="translate(90)"
     id="g2484"
     style="fill-rule:evenodd;stroke:#000000;stroke-width:1.5;stroke-linecap:round;stroke-linejoin:round">
    <g
       id="g2480"
       style="fill:#ffffff;stroke-linecap:butt">
      <path
         d="m 9,36 c 3.39,-0.97 10.11,0.43 13.5,-2 3.39,2.43 10.11,1.03 13.5,2 0,0 1.65,0.54 3,2 -0.68,0.97 -1.65,0.99 -3,0.5 -3.39,-0.97 -10.11,0.46 -13.5,-1 C 19.11,38.96 12.39,37.53 9,38.5 7.646,38.99 6.677,38.97 6,38 7.354,36.06 9,36 9,36 Z"
         id="path2474"
         inkscape:connector-curvature="0" />
      <path
         d="m 15,32 c 2.5,2.5 12.5,2.5 15,0 0.5,-1.5 0,-2 0,-2 0,-2.5 -2.5,-4 -2.5,-4 5.5,-1.5 6,-11.5 -5,-15.5 -11,4 -10.5,14 -5,15.5 0,0 -2.5,1.5 -2.5,4 0,0 -0.5,0.5 0,2 z"
         id="path2476"
         inkscape:connector-curvature="0" />
      <path
         d="m 25,8 a 2.5,2.5 0 1 1 -5,0 2.5,2.5 0 1 1 5,0 z"
         id="path2478"
         inkscape:connector-curvature="0" />
    </g>
    <path
       d="m 17.5,26 h 10 M 15,30 H 30 M 22.5,15.5 v 5 M 20,18 h 5"
       id="path2482"
       inkscape:connector-curvature="0"
       style="fill:none;stroke-linejoin:miter" />
  </g>
  <g
     transform="translate(135)"
     id="g2494"
     style="fill-rule:evenodd;stroke:#000000;stroke-width:1.5;stroke-linecap:round;stroke-linejoin:round">
    <path
       d="m 22,10 c 10.5,1 16.5,8 16,29 H 15 c 0,-9 10,-6.5 8,-21"
       id="path2486"
       inkscape:connector-curvature="0"
       style="fill:#ffffff" />
    <path
       d="m 24,18 c 0.38,2.91 -5.55,7.37 -8,9 -3,2 -2.82,4.34 -5,4 -1.042,-0.94 1.41,-3.04 0,-3 -1,0 0.19,1.23 -1,2 -1,0 -4.003,1 -4,-4 0,-2 6,-12 6,-12 0,0 1.89,-1.9 2,-3.5 -0.73,-0.994 -0.5,-2 -0.5,-3 1,-1 3,2.5 3,2.5 h 2 c 0,0 0.78,-1.992 2.5,-3 1,0 1,3 1,3"
       id="path2488"
       inkscape:connector-curvature="0"
       style="fill:#ffffff" />
    <path
       d="m 9.5,25.5 a 0.5,0.5 0 1 1 -1,0 0.5,0.5 0 1 1 1,0 z"
       id="path2490"
       inkscape:connector-curvature="0" />
    <path
       transform="matrix(0.866,0.5,-0.5,0.866,9.693,-5.173)"
       d="m 15,15.5 a 0.5,1.5 0 1 1 -1,0 0.5,1.5 0 1 1 1,0 z"
       id="path2492"
       inkscape:connector-curvature="0" />
  </g>
  <g
     transform="translate(180)"
     id="g2510"
     style="fill:#ffffff;fill-rule:evenodd;stroke:#000000;stroke-width:1.5;stroke-linecap:round;stroke-linejoin:round">
    <path
       d="M 9,39 H 36 V 36 H 9 Z"
       id="path2496"
       inkscape:connector-curvature="0"
       style="stroke-linecap:butt" />
    <path
       d="m 12,36 v -4 h 21 v 4 z"
       id="path2498"
       inkscape:connector-curvature="0"
       style="stroke-linecap:butt" />
    <path
       d="M 11,14 V 9 h 4 v 2 h 5 V 9 h 5 v 2 h 5 V 9 h 4 v 5"
       id="path2500"
       inkscape:connector-curvature="0"
       style="stroke-linecap:butt" />
    <path
       d="m 34,14 -3,3 H 14 l -3,-3"
       id="path2502"
       inkscape:connector-curvature="0" />
    <path
       d="M 31,17 V 29.5 H 14 V 17"
       id="path2504"
       inkscape:connector-curvature="0"
       style="stroke-linecap:butt;stroke-linejoin:miter" />
    <path
       d="m 31,29.5 1.5,2.5 h -20 L 14,29.5"
       id="path2506"
       inkscape:connector-curvature="0" />
    <path
       d="M 11,14 H 34"
       id="path2508"
       inkscape:connector-curvature="0"
       style="fill:none;stroke:#000000;stroke-linejoin:miter" />
  </g>
  <g
     transform="translate(225)"
     id="g2514">
    <path
       d="m 22,9 c -2.21,0 -4,1.79 -4,4 0,0.89 0.29,1.71 0.78,2.38 -1.95,1.12 -3.28,3.21 -3.28,5.62 0,2.03 0.94,3.84 2.41,5.03 -3,1.06 -7.41,5.55 -7.41,13.47 h 23 c 0,-7.92 -4.41,-12.41 -7.41,-13.47 1.47,-1.19 2.41,-3 2.41,-5.03 0,-2.41 -1.33,-4.5 -3.28,-5.62 C 25.71,14.71 26,13.89 26,13 26,10.79 24.21,9 22,9 Z"
       id="path2512"
       inkscape:connector-curvature="0"
       style="fill:#ffffff;stroke:#000000;stroke-width:1.5;stroke-linecap:round" />
  </g>
  <g
     transform="translate(0,45)"
     id="g2528"
     style="fill-rule:evenodd;stroke:#000000;stroke-width:1.5;stroke-linecap:round;stroke-linejoin:round">
    <path
       d="M 22.5,11.63 V 6"
       id="path2516"
       inkscape:connector-curvature="0"
       style="fill:none;stroke:#000000;stroke-linejoin:miter" />
    <path
       d="m 22.5,25 c 0,0 4.5,-7.5 3,-10.5 0,0 -1,-2.5 -3,-2.5 -2,0 -3,2.5 -3,2.5 -1.5,3 3,10.5 3,10.5"
       id="path2518"
       inkscape:connector-curvature="0"
       style="stroke-linecap:butt;stroke-linejoin:miter" />
    <path
       d="m 11.5,37 c 5.5,3.5 15.5,3.5 21,0 v -7 c 0,0 9,-4.5 6,-10.5 -4,-6.5 -13.5,-3.5 -16,4 V 27 23.5 C 19,16 9.5,13 6.5,19.5 c -3,6 5,10 5,10 z"
       id="path2520"
       inkscape:connector-curvature="0"
       style="stroke:#000000" />
    <path
       d="m 20,8 h 5"
       id="path2522"
       inkscape:connector-curvature="0"
       style="fill:none;stroke:#000000;stroke-linejoin:miter" />
    <path
       d="m 32,29.5 c 0,0 8.5,-4 6.03,-9.65 C 34.15,14 25,18 22.5,24.5 l 0.01,2.1 -0.01,-2.1 C 20,18 9.906,14 6.997,19.85 c -2.497,5.65 4.853,9 4.853,9"
       id="path2524"
       inkscape:connector-curvature="0"
       style="fill:none;stroke:#ffffff" />
    <path
       d="m 11.5,30 c 5.5,-3 15.5,-3 21,0 m -21,3.5 c 5.5,-3 15.5,-3 21,0 m -21,3.5 c 5.5,-3 15.5,-3 21,0"
       id="path2526"
       inkscape:connector-curvature="0"
       style="fill:none;stroke:#ffffff" />
  </g>
  <g
     transform="translate(45,45)"
     fill="000000"
     id="g2556"
     style="fill-rule:evenodd;stroke:#000000;stroke-width:1.5;stroke-linecap:round;stroke-linejoin:round">
    <g
       id="g2540"
       style="fill:#000000;stroke:none">
      <circle
         cx="6"
         cy="12"
         r="2.75"
         id="circle2530" />
      <circle
         cx="14"
         cy="9"
         r="2.75"
         id="circle2532" />
      <circle
         cx="22.5"
         cy="8"
         r="2.75"
         id="circle2534" />
      <circle
         cx="31"
         cy="9"
         r="2.75"
         id="circle2536" />
      <circle
         cx="39"
         cy="12"
         r="2.75"
         id="circle2538" />
    </g>
    <path
       d="m 9,26 c 8.5,-1.5 21,-1.5 27,0 L 38.5,13.5 31,25 30.7,10.9 25.5,24.5 22.5,10 19.5,24.5 14.3,10.9 14,25 6.5,13.5 Z"
       id="path2542"
       inkscape:connector-curvature="0"
       style="stroke:#000000;stroke-linecap:butt" />
    <path
       d="m 9,26 c 0,2 1.5,2 2.5,4 1,1.5 1,1 0.5,3.5 -1.5,1 -1.5,2.5 -1.5,2.5 -1.5,1.5 0.5,2.5 0.5,2.5 6.5,1 16.5,1 23,0 0,0 1.5,-1 0,-2.5 0,0 0.5,-1.5 -1,-2.5 -0.5,-2.5 -0.5,-2 0.5,-3.5 1,-2 2.5,-2 2.5,-4 -8.5,-1.5 -18.5,-1.5 -27,0 z"
       id="path2544"
       inkscape:connector-curvature="0"
       style="stroke-linecap:butt" />
    <path
       d="m 11,38.5 a 35,35 1 0 0 23,0"
       id="path2546"
       inkscape:connector-curvature="0"
       style="fill:none;stroke:#000000;stroke-linecap:butt" />
    <path
       d="m 11,29 a 35,35 1 0 1 23,0"
       id="path2548"
       inkscape:connector-curvature="0"
       style="fill:none;stroke:#ffffff" />
    <path
       d="m 12.5,31.5 h 20"
       id="path2550"
       inkscape:connector-curvature="0"
       style="fill:none;stroke:#ffffff" />
    <path
       d="m 11.5,34.5 a 35,35 1 0 0 22,0"
       id="path2552"
       inkscape:connector-curvature="0"
       style="fill:none;stroke:#ffffff" />
    <path
       d="m 10.5,37.5 a 35,35 1 0 0 24,0"
       id="path2554"
       inkscape:connector-curvature="0"
       style="fill:none;stroke:#ffffff" />
  </g>
  <g
     transform="translate(90,45)"
     id="g2568"
     style="fill-rule:evenodd;stroke-width:1.5;stroke-linecap:round;stroke-linejoin:round">
    <g
       id="g2564"
       style="stroke:#000000;stroke-linecap:butt">
      <path
         d="m 9,36 c 3.39,-0.97 10.11,0.43 13.5,-2 3.39,2.43 10.11,1.03 13.5,2 0,0 1.65,0.54 3,2 -0.68,0.97 -1.65,0.99 -3,0.5 -3.39,-0.97 -10.11,0.46 -13.5,-1 C 19.11,38.96 12.39,37.53 9,38.5 7.646,38.99 6.677,38.97 6,38 7.354,36.06 9,36 9,36 Z"
         id="path2558"
         inkscape:connector-curvature="0" />
      <path
         d="m 15,32 c 2.5,2.5 12.5,2.5 15,0 0.5,-1.5 0,-2 0,-2 0,-2.5 -2.5,-4 -2.5,-4 5.5,-1.5 6,-11.5 -5,-15.5 -11,4 -10.5,14 -5,15.5 0,0 -2.5,1.5 -2.5,4 0,0 -0.5,0.5 0,2 z"
         id="path2560"
         inkscape:connector-curvature="0" />
      <path
         d="m 25,8 a 2.5,2.5 0 1 1 -5,0 2.5,2.5 0 1 1 5,0 z"
         id="path2562"
         inkscape:connector-curvature="0" />
    </g>
    <path
       d="m 17.5,26 h 10 M 15,30 H 30 M 22.5,15.5 v 5 M 20,18 h 5"
       id="path2566"
       inkscape:connector-curvature="0"
       style="fill:none;stroke:#ffffff;stroke-linejoin:miter" />
  </g>
  <g
     transform="translate(135,45)"
     id="g2580"
     style="fill-rule:evenodd;stroke-width:1.5;stroke-linecap:round;stroke-linejoin:round">
    <path
       d="m 22,10 c 10.5,1 16.5,8 16,29 H 15 c 0,-9 10,-6.5 8,-21"
       id="path2570"
       inkscape:connector-curvature="0"
       style="stroke:#000000" />
    <path
       d="m 24,18 c 0.38,2.91 -5.55,7.37 -8,9 -3,2 -2.82,4.34 -5,4 -1.042,-0.94 1.41,-3.04 0,-3 -1,0 0.19,1.23 -1,2 -1,0 -4.003,1 -4,-4 0,-2 6,-12 6,-12 0,0 1.89,-1.9 2,-3.5 -0.73,-0.994 -0.5,-2 -0.5,-3 1,-1 3,2.5 3,2.5 h 2 c 0,0 0.78,-1.992 2.5,-3 1,0 1,3 1,3"
       id="path2572"
       inkscape:connector-curvature="0"
       style="stroke:#000000" />
    <path
       d="m 9.5,25.5 a 0.5,0.5 0 1 1 -1,0 0.5,0.5 0 1 1 1,0 z"
       id="path2574"
       inkscape:connector-curvature="0"
       style="fill:#ffffff;stroke:#ffffff" />
    <path
       transform="matrix(0.866,0.5,-0.5,0.866,9.693,-5.173)"
       d="m 15,15.5 a 0.5,1.5 0 1 1 -1,0 0.5,1.5 0 1 1 1,0 z"
       id="path2576"
       inkscape:connector-curvature="0"
       style="fill:#ffffff;stroke:#ffffff" />
    <path
       d="M 24.55,10.4 24.1,11.85 24.6,12 c 3.15,1 5.65,2.49 7.9,6.75 2.25,4.26 3.25,10.31 2.75,20.25 l -0.05,0.5 h 2.25 L 37.5,39 C 38,28.94 36.62,22.15 34.25,17.66 31.88,13.17 28.46,11.02 25.06,10.5 Z"
       id="path2578"
       inkscape:connector-curvature="0"
       style="fill:#ffffff" />
  </g>
  <g
     transform="translate(180,45)"
     fill="000000"
     id="g2604"
     style="fill-rule:evenodd;stroke:#000000;stroke-width:1.5;stroke-linecap:round;stroke-linejoin:round">
    <path
       d="M 9,39 H 36 V 36 H 9 Z"
       id="path2582"
       inkscape:connector-curvature="0"
       style="stroke-linecap:butt" />
    <path
       d="M 12.5,32 14,29.5 h 17 l 1.5,2.5 z"
       id="path2584"
       inkscape:connector-curvature="0"
       style="stroke-linecap:butt" />
    <path
       d="m 12,36 v -4 h 21 v 4 z"
       id="path2586"
       inkscape:connector-curvature="0"
       style="stroke-linecap:butt" />
    <path
       d="m 14,29.5 v -13 h 17 v 13 z"
       id="path2588"
       inkscape:connector-curvature="0"
       style="stroke-linecap:butt;stroke-linejoin:miter" />
    <path
       d="M 14,16.5 11,14 h 23 l -3,2.5 z"
       id="path2590"
       inkscape:connector-curvature="0"
       style="stroke-linecap:butt" />
    <path
       d="M 11,14 V 9 h 4 v 2 h 5 V 9 h 5 v 2 h 5 V 9 h 4 v 5 z"
       id="path2592"
       inkscape:connector-curvature="0"
       style="stroke-linecap:butt" />
    <path
       d="M 12,35.5 H 33"
       id="path2594"
       inkscape:connector-curvature="0"
       style="fill:none;stroke:#ffffff;stroke-width:1;stroke-linejoin:miter" />
    <path
       d="M 13,31.5 H 32"
       id="path2596"
       inkscape:connector-curvature="0"
       style="fill:none;stroke:#ffffff;stroke-width:1;stroke-linejoin:miter" />
    <path
       d="M 14,29.5 H 31"
       id="path2598"
       inkscape:connector-curvature="0"
       style="fill:none;stroke:#ffffff;stroke-width:1;stroke-linejoin:miter" />
    <path
       d="M 14,16.5 H 31"
       id="path2600"
       inkscape:connector-curvature="0"
       style="fill:none;stroke:#ffffff;stroke-width:1;stroke-linejoin:miter" />
    <path
       d="M 11,14 H 34"
       id="path2602"
       inkscape:connector-curvature="0"
       style="fill:none;stroke:#ffffff;stroke-width:1;stroke-linejoin:miter" />
  </g>
  <g
     transform="translate(225,45)"
     id="g2608">
    <path
       d="m 22,9 c -2.21,0 -4,1.79 -4,4 0,0.89 0.29,1.71 0.78,2.38 -1.95,1.12 -3.28,3.21 -3.28,5.62 0,2.03 0.94,3.84 2.41,5.03 -3,1.06 -7.41,5.55 -7.41,13.47 h 23 c 0,-7.92 -4.41,-12.41 -7.41,-13.47 1.47,-1.19 2.41,-3 2.41,-5.03 0,-2.41 -1.33,-4.5 -3.28,-5.62 C 25.71,14.71 26,13.89 26,13 26,10.79 24.21,9 22,9 Z"
       id="path2606"
       inkscape:connector-curvature="0"
       style="stroke:#000000;stroke-width:1.5;stroke-linecap:round" />
  </g>
</svg>
