<?xml version="1.0" encoding="UTF-8" standalone="no"?>
<!-- Created with Inkscape (http://www.inkscape.org/) -->

<svg
   xmlns:dc="http://purl.org/dc/elements/1.1/"
   xmlns:cc="http://creativecommons.org/ns#"
   xmlns:rdf="http://www.w3.org/1999/02/22-rdf-syntax-ns#"
   xmlns:svg="http://www.w3.org/2000/svg"
   xmlns="http://www.w3.org/2000/svg"
   xmlns:sodipodi="http://sodipodi.sourceforge.net/DTD/sodipodi-0.dtd"
   xmlns:inkscape="http://www.inkscape.org/namespaces/inkscape"
   width="360"
   height="120"
   viewBox="0 0 360 120"
   version="1.1"
   id="pieceArray"
   inkscape:export-filename="C:\Users\idewes\tmp\wk.png"
   inkscape:export-xdpi="96"
   inkscape:export-ydpi="96"
   inkscape:version="0.92.4 (5da689c313, 2019-01-14)"
   sodipodi:docname="pieceArray.svg">
  <title
     id="title6910">Chess Piece Array</title>
  <defs
     id="defs2" />
  <sodipodi:namedview
     id="base"
     pagecolor="#b2b4d7"
     bordercolor="#666666"
     borderopacity="1.0"
     inkscape:pageopacity="0"
     inkscape:pageshadow="2"
     inkscape:zoom="2.4748737"
     inkscape:cx="45.459996"
     inkscape:cy="131.39164"
     inkscape:document-units="px"
     inkscape:current-layer="layer1"
     showgrid="true"
     units="px"
     fit-margin-top="0"
     fit-margin-left="0"
     fit-margin-right="0"
     fit-margin-bottom="0"
     inkscape:window-width="2560"
     inkscape:window-height="1377"
     inkscape:window-x="4472"
     inkscape:window-y="-8"
     inkscape:window-maximized="1">
    <inkscape:grid
       type="xygrid"
       id="grid10"
       spacingx="60"
       spacingy="60"
       empspacing="2" />
  </sodipodi:namedview>
  <metadata
     id="metadata5">
    <rdf:RDF>
      <cc:Work
         rdf:about="">
        <dc:format>image/svg+xml</dc:format>
        <dc:type
           rdf:resource="http://purl.org/dc/dcmitype/StillImage" />
        <dc:title>Chess Piece Array</dc:title>
        <cc:license
           rdf:resource="http://creativecommons.org/licenses/by-sa/4.0/" />
        <dc:date>2019.05.09</dc:date>
        <dc:creator>
          <cc:Agent>
            <dc:title>Wes Idell &lt;wesidell@gmail.com&gt;</dc:title>
          </cc:Agent>
        </dc:creator>
        <dc:source>http://www.enpassant.dk/chess/fonteng.htm</dc:source>
        <dc:description>A chess piece array in SVG format, derived from Armando H. Marroquin's work on the Chess Mérida chess font.</dc:description>
      </cc:Work>
      <cc:License
         rdf:about="http://creativecommons.org/licenses/by-sa/4.0/">
        <cc:permits
           rdf:resource="http://creativecommons.org/ns#Reproduction" />
        <cc:permits
           rdf:resource="http://creativecommons.org/ns#Distribution" />
        <cc:requires
           rdf:resource="http://creativecommons.org/ns#Notice" />
        <cc:requires
           rdf:resource="http://creativecommons.org/ns#Attribution" />
        <cc:permits
           rdf:resource="http://creativecommons.org/ns#DerivativeWorks" />
        <cc:requires
           rdf:resource="http://creativecommons.org/ns#ShareAlike" />
      </cc:License>
    </rdf:RDF>
  </metadata>
  <g
     inkscape:label="Layer 1"
     inkscape:groupmode="layer"
     id="layer1"
     transform="translate(0,-221.12499)">
    
    <g
       id="bk"
       transform="translate(30.93559,96.35157)">
      <g
         transform="translate(-26.594709,-29.20371)"
         id="g6236">
        <path
           inkscape:connector-curvature="0"
           style="fill:#ffffff;fill-opacity:1;stroke:none"
           d="m 11.993149,197.71152 q 5.195312,-1.3125 13.78125,-1.3125 8.421875,0 13.589844,1.25781 l 0.683593,-4.01953 q -5.496093,-1.44922 -14.382812,-1.44922 -8.941406,0 -14.355469,1.47656 z"
           id="path6225" />
        <path
           inkscape:connector-curvature="0"
           style="fill:#ffffff;fill-opacity:1;stroke:none"
           d="M 10.32518,199.37949 9.4228363,194.2662 q -0.027344,0 -0.082031,-0.10937 -0.1367188,-0.19141 -0.7929688,-0.49219 -0.6289062,-0.32812 -1.4765625,-1.09375 -1.203125,-1.01172 -1.8867187,-1.64062 -0.65625,-0.62891 -1.203125,-1.36719 -1.6679688,-2.29688 -1.859375,-5.55078 -0.2734375,-3.14453 2.5429687,-6.26172 2.84375,-3.11719 7.683594,-2.92578 1.804687,0.10937 4.238281,0.875 0.792969,0.32812 1.613281,0.65625 0.847656,0.30078 1.667969,0.6289 0.4375,0.21875 0.765625,0.4375 -0.136719,-0.57421 -0.136719,-1.14843 0,-2.13282 1.503906,-3.63672 1.53125,-1.50391 3.664063,-1.53125 2.132812,0 3.636719,1.53125 1.503906,1.5039 1.503906,3.60937 0,0.4375 -0.109375,1.14844 0.382812,-0.24609 0.738281,-0.41016 1.257813,-0.54687 3.308594,-1.28515 2.351562,-0.79297 4.238281,-0.90235 4.839844,-0.21875 7.65625,2.92579 2.761719,3.11718 2.570313,6.26171 -0.21875,3.25391 -1.886719,5.55079 -0.546875,0.73828 -1.230469,1.39453 -0.683594,0.6289 -1.832031,1.61328 -0.902344,0.76562 -1.53125,1.09375 -0.628906,0.30078 -0.738281,0.49219 -0.02734,0.0547 -0.05469,0.082 -0.02734,0.0273 -0.02734,0.0547 l -0.875,5.14063 1.804688,6.75391 q -1.367188,1.23046 -6.125,2.02343 -4.757813,0.79297 -10.992188,0.79297 -6.34375,0 -11.15625,-0.82031 -4.8124995,-0.84766 -6.0429682,-2.10547 z"
           id="path6223" />
        <path
           inkscape:connector-curvature="0"
           style="fill:#ffffff;fill-opacity:1;stroke:none"
           d="m 39.883774,202.5787 -0.820313,-3.14453 q -5.414062,-1.20312 -13.398437,-1.20312 -7.957031,0 -13.371094,1.20312 l -0.875,3.17188 q 5.222656,-1.53125 14.273438,-1.53125 8.996093,0 14.191406,1.5039 z"
           id="path6221" />
        <path
           inkscape:connector-curvature="0"
           style="fill:#ffffff;fill-opacity:1;stroke:none"
           d="m 40.594711,205.14902 q -5.277343,-2.13282 -14.820312,-2.13282 -9.898438,0 -14.984375,2.1875 4.8125,1.91407 14.902344,1.91407 4.8125,0 8.777343,-0.51953 3.964844,-0.54688 6.125,-1.44922 z"
           id="path6219" />
        <path
           inkscape:connector-curvature="0"
           style="fill:#ffffff;fill-opacity:1;stroke:none"
           d="m 24.707993,190.3287 q -0.02734,-1.0664 -0.08203,-2.10546 -0.05469,-1.06641 -0.410156,-2.35157 -1.121094,-3.66406 -3.390625,-5.90625 -1.175781,-1.14843 -3.609375,-2.13281 -2.789062,-1.09375 -5.277344,-1.09375 -4.3203122,0 -6.3984372,3.08984 -1.1757812,1.64063 -1.1757812,4.10157 0,2.67968 1.3125,4.40234 0.7929687,1.01172 2.0234375,2.02344 1.2304687,1.01172 2.296875,1.83203 4.7851559,-1.72266 14.7109379,-1.85938 z"
           id="path6217" />
        <path
           inkscape:connector-curvature="0"
           style="fill:#ffffff;fill-opacity:1;stroke:none"
           d="m 25.665024,185.24277 q 0.191406,-0.76563 0.328125,-1.06641 0.273437,-1.06641 0.628906,-1.80469 0.164063,-0.46484 0.464844,-1.0664 0.328125,-0.62891 0.683594,-1.42188 0.21875,-0.46484 0.464843,-1.12109 0.246094,-0.6836 0.492188,-1.33985 0.21875,-0.54687 0.21875,-1.17578 0,-1.33984 -0.957031,-2.26953 -0.957032,-0.95703 -2.324219,-0.95703 -3.253906,0 -3.253906,3.25391 0,0.6289 0.21875,1.17578 0.601562,1.77734 0.929687,2.46094 0.355469,0.79296 0.65625,1.42187 0.300781,0.60156 0.519531,1.06641 0.355469,0.90234 0.601563,1.80468 0.05469,0.16407 0.328125,1.03907 z"
           id="path6215" />
        <path
           inkscape:connector-curvature="0"
           style="fill:#ffffff;fill-opacity:1;stroke:none"
           d="m 26.594711,190.3287 q 4.703125,0.0547 8.613282,0.57422 3.910156,0.49219 6.125,1.25782 1.039062,-0.82032 2.269531,-1.80469 1.230469,-1.01172 2.050781,-2.05078 1.3125,-1.66797 1.3125,-4.40235 0,-2.46093 -1.175781,-4.10156 -2.105469,-3.0625 -6.398438,-3.0625 -2.570312,0 -5.277343,1.06641 -2.378907,0.95703 -3.609375,2.13281 -2.296875,2.29687 -3.390625,5.90625 -0.382813,1.28516 -0.464844,2.35156 -0.05469,1.03906 -0.05469,2.13281 z"
           id="path6213" />
        <path
           inkscape:connector-curvature="0"
           style="fill:#ffffff;fill-opacity:1;stroke:none"
           d="m 26.622051,171.02402 h -1.941406 v -3.58203 h -2.269531 q -0.929688,0 -0.929688,-0.90235 v -0.0273 q 0,-0.90235 0.929688,-0.90235 h 2.269531 v -2.32421 q 0,-0.95704 0.984375,-0.95704 v 0 q 0.957031,0 0.957031,0.95704 v 2.32421 h 2.351563 q 0.902343,0 0.902343,0.90235 v 0.0273 q 0,0.90235 -0.902343,0.90235 l -2.324219,0.0273 z"
           id="path6110" />
      </g>
      <path
         d="m 2.0507831,160.79687 q 0,-0.79297 0.164063,-2.24219 0.191406,-1.47656 0.574218,-2.29687 1.011719,-2.21484 2.898438,-4.10156 0.546875,-0.54688 2.351562,-1.47657 1.777344,-0.875 3.8007819,-0.875 1.53125,0 3.035156,0.54688 1.53125,0.51953 2.296875,1.61328 0.683594,0.92969 0.683594,3.00781 0,1.64063 -1.339844,3.0625 -0.875,0.90235 -1.886719,1.83203 -1.011719,0.90235 -1.941406,2.13282 -1.585938,-0.54688 -4.4296879,-0.84766 -2.816406,-0.30078 -6.207031,-0.35547 z m -1.99609399,2.13281 q 4.70312499,0.082 7.71093799,0.46485 3.0078119,0.38281 5.4140619,0.90234 1.503907,-1.47656 3.335938,-2.8164 1.832031,-1.33985 2.570312,-2.29688 1.3125,-1.77734 1.3125,-4.42969 0,-2.43359 -1.175781,-4.07422 -2.105469,-3.08984 -6.425781,-3.08984 -2.515625,0 -5.2499999,1.09375 -2.488281,0.98438 -3.609375,2.13281 -2.324219,2.24219 -3.39062499,5.90625 -0.410156,1.25782 -0.464844,3.19922 -0.02734,1.94141 -0.02734,3.00781 z m 12.52343789,4.73047 q -5.0312499,-1.39453 -13.39843789,-1.39453 -8.42187501,0 -13.56250011,1.42188 l 0.410157,2.76172 q 5.1679681,-1.33985 13.15234311,-1.33985 7.95703199,0 12.96093789,1.3125 z m 0.710937,8.17578 -0.820312,-3.22656 q -5.3320309,-1.23047 -13.39843789,-1.23047 -7.98437501,0 -13.34375011,1.23047 l -0.875,3.25391 q 5.1953131,-1.58594 14.24609411,-1.58594 4.34765599,0 8.06640599,0.4375 3.7187499,0.4375 6.1249999,1.12109 z m -29.558593,-5.66015 -0.902344,-5.11328 q -0.02734,0 -0.08203,-0.10938 -0.136719,-0.1914 -0.792969,-0.49219 -0.628906,-0.32812 -1.476563,-1.09375 -1.203125,-1.01171 -1.886718,-1.64062 -0.65625,-0.62891 -1.203126,-1.36719 -1.667968,-2.29687 -1.859375,-5.55078 -0.273437,-3.14453 2.542969,-6.26172 2.84375,-3.11719 7.683594,-2.92578 1.804688,0.10938 4.238281,0.875 0.7929691,0.32813 1.6132821,0.65625 0.847656,0.30078 1.667968,0.62891 0.4375,0.21875 0.765625,0.4375 -0.136718,-0.57422 -0.136718,-1.14844 0,-2.13281 1.503906,-3.63672 1.53125,-1.50391 3.66406201,-1.53125 2.13281299,0 3.63671899,1.53125 1.503906,1.50391 1.503906,3.60938 0,0.4375 -0.109375,1.14843 0.382813,-0.24609 0.738282,-0.41015 1.257812,-0.54688 3.308593,-1.28516 2.3515629,-0.79297 4.2382819,-0.90234 4.839843,-0.21875 7.65625,2.92578 2.761718,3.11719 2.570312,6.26172 -0.21875,3.2539 -1.886719,5.55078 -0.546875,0.73828 -1.230468,1.39453 -0.683594,0.62891 -1.832032,1.61328 -0.902343,0.76563 -1.53125,1.09375 -0.628906,0.30078 -0.738281,0.49219 -0.02734,0.0547 -0.05469,0.082 -0.02734,0.0273 -0.02734,0.0547 l -0.875,5.14062 1.804687,6.75391 q -1.367187,1.23047 -6.125,2.02344 -4.7578119,0.79296 -10.99218689,0.79296 -6.34375001,0 -11.15625011,-0.82031 -4.8125,-0.84765 -6.042969,-2.10547 z m 14.3554681,-7.27344 q 0,-1.09375 -0.05469,-3.00781 -0.05469,-1.94141 -0.410156,-3.22656 -1.121094,-3.66407 -3.390625,-5.90625 -1.175782,-1.14844 -3.609375,-2.13282 -2.7890631,-1.09375 -5.2773441,-1.09375 -4.320313,0 -6.398438,3.08985 -1.175781,1.64062 -1.175781,4.10156 0,2.67969 1.3125,4.40234 0.683594,0.98438 2.625,2.4336 1.941406,1.44922 3.28125,2.67968 2.378906,-0.51953 5.3593751,-0.90234 3.007813,-0.38281 7.738281,-0.4375 z m 0.98437501,-6.86328 q 0.191407,-0.76563 0.328125,-1.06641 0.273438,-1.0664 0.628907,-1.80468 0.164062,-0.46485 0.464843,-1.06641 0.328125,-0.62891 0.68359399,-1.42188 0.21875,-0.46484 0.464844,-1.12109 0.246094,-0.68359 0.492187,-1.33984 0.21875,-0.54688 0.21875,-1.17578 0,-1.33985 -0.957031,-2.26954 -0.95703099,-0.95703 -2.32421899,-0.95703 -3.25390601,0 -3.25390601,3.25391 0,0.62891 0.21875,1.17578 0.601563,1.77734 0.929688,2.46094 0.355468,0.79297 0.65625,1.42187 0.300781,0.60157 0.519531,1.06641 0.355469,0.90234 0.601562,1.80469 0.05469,0.16406 0.32812501,1.03906 z m 0.957032,-14.21875 H -1.9140609 v -3.58203 h -2.269531 q -0.929687,0 -0.929687,-0.90235 v -0.0273 q 0,-0.90234 0.929687,-0.90234 h 2.269531 v -2.32422 q 0,-0.95703 0.98437501,-0.95703 v 0 q 0.957032,0 0.957032,0.95703 v 2.32422 H 2.3789081 q 0.902344,0 0.902344,0.90234 v 0.0273 q 0,0.90235 -0.902344,0.90235 l -2.32421899,0.0273 z m -4.01953201,18.97656 q -3.417968,0.0547 -6.2617181,0.35547 -2.816407,0.30078 -4.375,0.84766 -0.820313,-1.01172 -1.914063,-2.02344 -1.066406,-1.03906 -1.886719,-1.94141 -1.367187,-1.39453 -1.367187,-3.0625 0,-2.05078 0.683594,-3.00781 0.738281,-1.09375 2.269531,-1.61328 1.53125,-0.54688 3.089844,-0.54688 1.96875,0 3.7734371,0.875 1.777344,0.92969 2.351563,1.47657 1.859375,1.88672 2.898437,4.10156 0.355469,0.82031 0.519531,2.29687 0.191407,1.44922 0.21875,2.24219 z m 3.06250001,-9.43359 q -0.05469,-0.27344 -0.13671801,-0.46485 -0.164063,-0.54687 -0.273438,-0.79296 -0.08203,-0.19141 -0.21875,-0.46485 -0.136719,-0.30078 -0.273437,-0.6289 -0.08203,-0.19141 -0.21875,-0.49219 -0.109375,-0.32813 -0.191407,-0.60156 -0.08203,-0.2461 -0.08203,-0.51954 0,-1.44921 1.39453101,-1.44921 1.449219,0 1.449219,1.42187 0,0.35547 -0.109375,0.51953 -0.382812,1.03906 -0.4101560036072,1.1211 Q -0.41015289,149.83203 -0.51952789,150.07812 q -0.191407,0.4375 -0.246094,0.79297 -0.08203,0.16406 -0.109375,0.30078 -0.02734,0.10938 -0.054689,0.19141 z"
         style="fill:#000000;fill-opacity:1;stroke:none"
         id="path6087"
         inkscape:connector-curvature="0" />
    </g>
    <g
       id="bq"
       transform="translate(8.3089311,67.44863)">
      <g
         id="g6258">
        <path
           style="fill:#ffffff;fill-opacity:1;stroke:none"
           d="m 81.665024,169.3287 q -1.558594,0 -2.652344,-1.09375 -1.066406,-1.09375 -1.066406,-2.65234 0,-1.53125 1.066406,-2.625 1.09375,-1.09375 2.652344,-1.09375 1.53125,0 2.625,1.09375 1.121094,1.09375 1.121094,2.625 0,1.55859 -1.121094,2.65234 -1.09375,1.09375 -2.625,1.09375 z"
           id="path6209"
           inkscape:connector-curvature="0" />
        <path
           style="fill:#ffffff;fill-opacity:1;stroke:none"
           d="m 81.665024,167.41464 q 1.832031,0 1.832031,-1.83203 0,-1.80469 -1.832031,-1.80469 -1.804688,0 -1.804688,1.80469 0,1.83203 1.804688,1.83203 z"
           id="path6207"
           inkscape:connector-curvature="0" />
        <path
           style="fill:#ffffff;fill-opacity:1;stroke:none"
           d="m 95.582993,194.9498 q -5.277344,-1.33985 -13.808594,-1.33985 -8.75,0 -13.972656,1.36719 l 0.410156,2.625 q 5.332031,-1.25781 13.5625,-1.25781 8.175781,0 13.34375,1.23047 z"
           id="path6205"
           inkscape:connector-curvature="0" />
        <path
           style="fill:#ffffff;fill-opacity:1;stroke:none"
           d="m 96.266586,193.30917 1.777344,-3.14453 q -1.3125,0.51953 -2.679687,0.51953 -3.664063,0 -5.851563,-2.98047 -1.640625,1.36719 -3.664062,1.36719 -2.625,0 -4.183594,-2.05078 -1.75,1.91406 -4.183594,1.91406 -1.96875,0 -3.609375,-1.33984 -2.296875,2.92578 -5.933594,2.92578 -1.394531,0 -2.761718,-0.51953 l 1.914062,3.28125 q 5.304688,-1.53125 14.574219,-1.53125 9.433594,0 14.601562,1.55859 z"
           id="path6203"
           inkscape:connector-curvature="0" />
        <path
           style="fill:#ffffff;fill-opacity:1;stroke:none"
           d="m 84.016586,186.77402 -2.324218,-13.3711 -2.324219,13.20703 q 0.08203,-0.0547 0.382812,-0.27343 0.628907,-1.23047 1.914063,-1.23047 1.394531,0 1.804687,1.23047 0.164063,0.16406 0.546875,0.4375 z"
           id="path6201"
           inkscape:connector-curvature="0" />
        <path
           style="fill:#ffffff;fill-opacity:1;stroke:none"
           d="m 91.590805,187.29355 v -12.66016 l -4.511719,12.41406 q 0.519532,-0.1914 0.875,-0.49218 0.546875,-0.6836 1.476563,-0.6836 1.09375,0 1.75,0.95703 0.08203,0.10938 0.191406,0.2461 0.109375,0.10937 0.21875,0.21875 z"
           id="path6199"
           inkscape:connector-curvature="0" />
        <path
           style="fill:#ffffff;fill-opacity:1;stroke:none"
           d="m 76.223618,186.91074 -4.484375,-12.27735 v 12.4961 q 0.08203,-0.10938 0.246093,-0.27344 0.546875,-1.14844 1.804688,-1.14844 1.039062,0 1.695312,0.875 0.738282,0.32813 0.738282,0.32813 z"
           id="path6197"
           inkscape:connector-curvature="0" />
        <path
           style="fill:#ffffff;fill-opacity:1;stroke:none"
           d="m 69.278305,188.44199 -5.878906,-10.14454 1.503906,9.24219 q 1.558594,1.09375 3.035156,1.09375 0.574219,0 1.339844,-0.1914 z"
           id="path6195"
           inkscape:connector-curvature="0" />
        <path
           style="fill:#ffffff;fill-opacity:1;stroke:none"
           d="m 93.969711,188.5787 q 0.628907,0.19141 1.394532,0.19141 1.667968,0 3.117187,-1.03906 l 1.503906,-9.46094 z"
           id="path6193"
           inkscape:connector-curvature="0" />
        <path
           style="fill:#ffffff;fill-opacity:1;stroke:none"
           d="m 95.610336,202.41464 -0.820312,-3.08984 q -5.359375,-1.17578 -13.125,-1.17578 -7.683594,0 -13.097656,1.17578 l -0.847657,3.11719 q 5.085938,-1.53125 13.972657,-1.53125 8.667968,0 13.917968,1.5039 z"
           id="path6191"
           inkscape:connector-curvature="0" />
        <path
           style="fill:#ffffff;fill-opacity:1;stroke:none"
           d="m 98.508774,205.91464 q -1.339844,1.17578 -6.015625,1.96875 -4.675781,0.79297 -10.773438,0.79297 -6.207031,0 -10.910156,-0.82031 -4.703125,-0.82031 -5.933594,-2.05078 l 1.722657,-6.5625 -0.765625,-4.29297 -2.40625,-4.1836 -2.324219,-17.00781 1.339844,-0.51953 7.492187,12.63281 0.164063,-15.03906 1.859375,-0.32812 5.714843,15.12109 3.0625,-16.26953 h 1.886719 l 3.0625,16.21484 5.660156,-15.0664 1.886719,0.32812 0.164063,15.03906 7.519527,-12.66015 1.28516,0.60156 -2.269531,16.92578 -2.433594,4.18359 -0.765625,4.34766 z"
           id="path6189"
           inkscape:connector-curvature="0" />
        <path
           style="fill:#ffffff;fill-opacity:1;stroke:none"
           d="m 96.29393,204.93027 q -5.003906,-2.07813 -14.519531,-2.07813 -9.707031,0 -14.683594,2.13281 4.785156,1.88672 14.601563,1.88672 4.703125,0 8.585937,-0.51953 3.910156,-0.51953 6.015625,-1.42187 z"
           id="path6187"
           inkscape:connector-curvature="0" />
        <path
           style="fill:#ffffff;fill-opacity:1;stroke:none"
           d="m 70.180649,170.69589 q -1.558594,0 -2.652344,-1.0664 -1.09375,-1.09375 -1.09375,-2.65235 0,-1.53125 1.09375,-2.625 1.09375,-1.09375 2.652344,-1.09375 1.53125,0 2.625,1.09375 1.09375,1.09375 1.09375,2.625 0,1.5586 -1.09375,2.65235 -1.09375,1.0664 -2.625,1.0664 z"
           id="path6185"
           inkscape:connector-curvature="0" />
        <path
           style="fill:#ffffff;fill-opacity:1;stroke:none"
           d="m 70.180649,168.78183 q 1.804687,0 1.804687,-1.80469 0,-1.80469 -1.804687,-1.80469 -1.832031,0 -1.832031,1.80469 0,1.80469 1.832031,1.80469 z"
           id="path6183"
           inkscape:connector-curvature="0" />
        <path
           style="fill:#ffffff;fill-opacity:1;stroke:none"
           d="m 93.149399,168.78183 q 1.832031,0 1.832031,-1.80469 0,-1.80469 -1.832031,-1.80469 -1.804688,0 -1.804688,1.80469 0,1.80469 1.804688,1.80469 z"
           id="path6181"
           inkscape:connector-curvature="0" />
        <path
           style="fill:#ffffff;fill-opacity:1;stroke:none"
           d="m 93.149399,170.69589 q -1.558594,0 -2.652344,-1.0664 -1.066406,-1.09375 -1.066406,-2.65235 0,-1.53125 1.066406,-2.625 1.09375,-1.09375 2.652344,-1.09375 1.558594,0 2.652344,1.09375 1.09375,1.09375 1.09375,2.625 0,1.5586 -1.09375,2.65235 -1.09375,1.0664 -2.652344,1.0664 z"
           id="path6179"
           inkscape:connector-curvature="0" />
        <path
           style="fill:#ffffff;fill-opacity:1;stroke:none"
           d="m 60.118149,173.7037 q -1.558594,0 -2.652344,-1.0664 -1.066406,-1.09375 -1.066406,-2.65235 0,-1.53125 1.066406,-2.625 1.09375,-1.12109 2.652344,-1.12109 1.558594,0 2.652344,1.12109 1.09375,1.09375 1.09375,2.625 0,1.5586 -1.09375,2.65235 -1.09375,1.0664 -2.652344,1.0664 z"
           id="path6177"
           inkscape:connector-curvature="0" />
        <path
           style="fill:#ffffff;fill-opacity:1;stroke:none"
           d="m 60.118149,171.78964 q 1.832031,0 1.832031,-1.80469 0,-1.83203 -1.832031,-1.83203 -1.804688,0 -1.804688,1.83203 0,1.80469 1.804688,1.80469 z"
           id="path6175"
           inkscape:connector-curvature="0" />
        <path
           style="fill:#ffffff;fill-opacity:1;stroke:none"
           d="m 103.26659,171.78964 q 1.80468,0 1.80468,-1.80469 0,-1.83203 -1.80468,-1.83203 -1.83203,0 -1.83203,1.83203 0,1.80469 1.83203,1.80469 z"
           id="path6173"
           inkscape:connector-curvature="0" />
        <path
           style="fill:#ffffff;fill-opacity:1;stroke:none"
           d="m 103.26659,173.7037 q -1.5586,0 -2.65235,-1.0664 -1.093747,-1.09375 -1.093747,-2.65235 0,-1.53125 1.093747,-2.625 1.09375,-1.12109 2.65235,-1.12109 1.53125,0 2.625,1.12109 1.09375,1.09375 1.09375,2.625 0,1.5586 -1.09375,2.65235 -1.09375,1.0664 -2.625,1.0664 z"
           id="path6112"
           inkscape:connector-curvature="0" />
      </g>
      <path
         d="m 97.086899,191.96933 q -2.26953,-0.82031 -6.398436,-1.33984 -4.101563,-0.54688 -9.078125,-0.54688 -4.867188,0 -8.914063,0.51953 -4.046875,0.49219 -6.371093,1.3125 l 1.367187,2.48829 q 2.296875,-0.6836 5.960938,-0.98438 3.664062,-0.30078 8.011718,-0.30078 4.347657,0 8.039063,0.30078 3.691401,0.30078 5.988281,1.01172 z m 6.179691,-18.26562 q -1.5586,0 -2.65235,-1.06641 -1.093751,-1.09375 -1.093751,-2.65234 0,-1.53125 1.093751,-2.625 1.09375,-1.1211 2.65235,-1.1211 1.53125,0 2.625,1.1211 1.09375,1.09375 1.09375,2.625 0,1.55859 -1.09375,2.65234 -1.09375,1.06641 -2.625,1.06641 z m -43.14844,0 q -1.558593,0 -2.652343,-1.06641 -1.066407,-1.09375 -1.066407,-2.65234 0,-1.53125 1.066407,-2.625 1.09375,-1.1211 2.652343,-1.1211 1.558594,0 2.652344,1.1211 1.09375,1.09375 1.09375,2.625 0,1.55859 -1.09375,2.65234 -1.09375,1.06641 -2.652344,1.06641 z m 33.031249,-3.00782 q -1.558592,0 -2.652342,-1.0664 -1.066407,-1.09375 -1.066407,-2.65235 0,-1.53125 1.066407,-2.625 1.09375,-1.09375 2.652342,-1.09375 1.55859,0 2.65234,1.09375 1.09375,1.09375 1.09375,2.625 0,1.5586 -1.09375,2.65235 -1.09375,1.0664 -2.65234,1.0664 z m -22.968749,0 q -1.558593,0 -2.652343,-1.0664 -1.09375,-1.09375 -1.09375,-2.65235 0,-1.53125 1.09375,-2.625 1.09375,-1.09375 2.652343,-1.09375 1.53125,0 2.625,1.09375 1.09375,1.09375 1.09375,2.625 0,1.5586 -1.09375,2.65235 -1.09375,1.0664 -2.625,1.0664 z m 28.328129,35.21875 q -1.33985,1.17579 -6.01563,1.96875 -4.67578,0.79297 -10.773436,0.79297 -6.207031,0 -10.910156,-0.82031 -4.703125,-0.82031 -5.933594,-2.05078 l 1.722656,-6.5625 -0.765625,-4.29297 -2.40625,-4.18359 -2.324219,-17.00782 1.339844,-0.51953 7.492188,12.63282 0.164062,-15.03907 1.859375,-0.32812 5.714844,15.12109 3.0625,-16.26953 h 1.886719 l 3.0625,16.21484 5.660156,-15.0664 1.886716,0.32812 0.16406,15.03907 7.519541,-12.66016 1.28515,0.60156 -2.269531,16.92578 -2.43359,4.1836 -0.76563,4.34765 z m -2.625,-0.875 -0.82032,-3.22656 q -5.332027,-1.23047 -13.398434,-1.23047 -7.984375,0 -13.34375,1.23047 l -0.875,3.25391 q 5.195313,-1.58594 14.246094,-1.58594 4.347656,0 8.066406,0.4375 3.718754,0.4375 6.125004,1.12109 z m -0.71094,-8.17578 q -5.031251,-1.39453 -13.398439,-1.39453 -8.421875,0 -13.5625,1.42188 l 0.410157,2.76172 q 5.167968,-1.33985 13.152343,-1.33985 7.957032,0 12.960939,1.3125 z M 81.665025,169.32871 q -1.558593,0 -2.652343,-1.09375 -1.066407,-1.09375 -1.066407,-2.65235 0,-1.53125 1.066407,-2.625 1.09375,-1.09375 2.652343,-1.09375 1.53125,0 2.625,1.09375 1.121094,1.09375 1.121094,2.625 0,1.5586 -1.121094,2.65235 -1.09375,1.09375 -2.625,1.09375 z"
         style="fill:#000000;fill-opacity:1;stroke:none"
         id="path6089"
         inkscape:connector-curvature="0" />
    </g>
    <g
       id="br"
       transform="translate(12.348653,68.07754)">
      <g
         id="g6297">
        <g
           id="g6267">
          <path
             id="path6169"
             d="m 141.41112,167.00449 h 4.64844 v -3.7461 h 7.49218 v 10.25391 l -6.07031,4.67578 v 13.07031 l 4.64844,4.64844 v 5.60547 h 4.18359 v 6.53515 h -37.32422 v -6.53515 h 4.1836 v -5.60547 l 4.67578,-4.64844 v -13.07031 l -6.07031,-4.67578 v -10.25391 h 7.46484 v 3.7461 h 4.67578 v -3.7461 h 7.49219 z"
             style="fill:#ffffff;fill-opacity:1;stroke:none"
             inkscape:connector-curvature="0" />
          <path
             id="path6167"
             d="m 154.48143,203.37167 h -33.63281 v 2.81641 h 33.63281 z"
             style="fill:#ffffff;fill-opacity:1;stroke:none"
             inkscape:connector-curvature="0" />
          <path
             id="path6165"
             d="M 150.24315,197.79355 H 125.0869 v 3.71875 h 25.15625 z"
             style="fill:#ffffff;fill-opacity:1;stroke:none"
             inkscape:connector-curvature="0" />
          <path
             id="path6163"
             d="m 145.59471,178.18808 h -15.85937 v 13.07031 h 15.85937 z"
             style="fill:#ffffff;fill-opacity:1;stroke:none"
             inkscape:connector-curvature="0" />
          <path
             id="path6161"
             d="m 151.66502,171.65292 v -6.53515 h -3.74609 v 3.74609 h -8.42187 v -3.74609 h -3.69141 v 3.74609 h -8.39453 v -3.74609 h -3.7461 v 6.53515 z"
             style="fill:#ffffff;fill-opacity:1;stroke:none"
             inkscape:connector-curvature="0" />
          <path
             id="path6159"
             d="m 149.55956,195.90683 -2.81641,-2.78906 h -18.12891 l -2.87109,2.78906 z"
             style="fill:#ffffff;fill-opacity:1;stroke:none"
             inkscape:connector-curvature="0" />
          <path
             id="path6114"
             d="m 146.55174,176.3287 3.47266,-2.8164 h -24.71875 l 3.5,2.8164 z"
             style="fill:#ffffff;fill-opacity:1;stroke:none"
             inkscape:connector-curvature="0" />
        </g>
      </g>
      <path
         d="m 141.41112,167.00448 h 4.64844 v -3.7461 h 7.49218 v 10.25391 l -6.07031,4.67578 v 13.07031 l 4.64844,4.64844 v 5.60547 h 4.18359 v 6.53516 h -37.32422 v -6.53516 h 4.1836 v -5.60547 l 4.67578,-4.64844 v -13.07031 l -6.07031,-4.67578 v -10.25391 h 7.46484 v 3.7461 h 4.67578 v -3.7461 h 7.49219 z m -16.32422,34.07031 v 2.78906 h 25.15625 v -2.78906 z m 12.57813,-29.85937 h -14 v 1.25781 l 1.99609,1.5039 h 24.03516 l 1.9414,-1.5039 v -1.25781 z m 0,4.62109 h -9.57032 l 1.64063,1.28516 v 1.55859 h 15.85937 v -1.55859 l 1.64063,-1.28516 z m 0,14.92969 h -7.92969 v 1.25781 l -1.64063,1.58594 h 19.14063 l -1.64063,-1.58594 v -1.25781 z m 0,4.70312 h -11.32032 l -1.25781,1.17578 v 1.58594 h 25.15625 v -1.58594 l -1.25781,-1.17578 z"
         style="fill:#000000;fill-opacity:1;stroke:none"
         id="path6091"
         inkscape:connector-curvature="0" />
    </g>
    <g
       id="bb"
       transform="translate(16.334475,68.293075)">
      <g
         id="g6277">
        <path
           style="fill:#ffffff;fill-opacity:1;stroke:none"
           d="m 192.68065,182.53574 -2.26953,-0.0274 q -0.92969,0 -0.92969,-0.92969 v 0 q 0,-0.92968 0.92969,-0.92968 h 2.26953 v -2.35157 q 0,-0.95703 0.98437,-0.95703 v 0 q 0.95704,0 0.95704,0.95703 v 2.35157 h 2.35156 q 0.90234,0 0.90234,0.92968 v 0 q 0,0.92969 -0.90234,0.92969 h -2.35156 v 2.24219 q 0,0.98437 -0.95704,0.98437 v 0 q -0.98437,0 -0.98437,-0.98437 z"
           id="path6155"
           inkscape:connector-curvature="0" />
        <path
           style="fill:#ffffff;fill-opacity:1;stroke:none"
           d="m 193.66502,198.34042 q 1.85938,0 3.60938,-0.30078 1.77734,-0.32812 3.41797,-0.76562 -3.19922,-0.84766 -7.02735,-0.84766 -3.88281,0 -7.02734,0.84766 1.58594,0.4375 3.36328,0.76562 1.77735,0.30078 3.66406,0.30078 z"
           id="path6153"
           inkscape:connector-curvature="0" />
        <path
           style="fill:#ffffff;fill-opacity:1;stroke:none"
           d="m 193.66502,168.56308 q 1.85938,0 1.85938,-1.85938 0,-1.85937 -1.85938,-1.85937 -1.85937,0 -1.85937,1.85937 0,1.85938 1.85937,1.85938 z"
           id="path6151"
           inkscape:connector-curvature="0" />
        <path
           style="fill:#ffffff;fill-opacity:1;stroke:none"
           d="m 193.66502,194.5123 q 3.19922,0 6.15235,0.6289 l -1.3125,-3.36328 q -2.40625,-0.38281 -4.83985,-0.38281 -2.48828,0 -4.86718,0.38281 l -1.3125,3.36328 q 2.92578,-0.6289 6.17968,-0.6289 z"
           id="path6149"
           inkscape:connector-curvature="0" />
        <path
           style="fill:#ffffff;fill-opacity:1;stroke:none"
           d="m 193.66502,189.53574 q 2.65235,0 5.08594,0.41015 2.67969,-0.95703 3.88281,-2.98047 1.03907,-1.75 1.03907,-3.85547 0,-1.25781 -0.62891,-2.76171 -0.62891,-1.53125 -2.05078,-2.76172 -1.61328,-1.33985 -3.52734,-2.92578 -1.91407,-1.61329 -3.80079,-3.7461 -1.91406,2.13281 -3.82812,3.7461 -1.91406,1.58593 -3.5,2.92578 -1.44922,1.23047 -2.07813,2.76172 -0.60156,1.5039 -0.60156,2.76171 0,2.10547 1.01172,3.85547 1.17578,2.02344 3.91016,2.98047 2.40625,-0.41015 5.08593,-0.41015 z"
           id="path6147"
           inkscape:connector-curvature="0" />
        <path
           style="fill:#ffffff;fill-opacity:1;stroke:none"
           d="m 192.68065,199.84433 h -0.875 q -1.53125,2.46094 -2.92578,3.08984 -0.65625,0.32813 -1.44922,0.60157 -0.79297,0.27343 -1.83203,0.27343 -0.19141,0 -2.92578,-0.4375 -1.3125,-0.1914 -2.07813,-0.41015 -0.76562,-0.21875 -1.20312,-0.27344 -1.5586,-0.19141 -3.63672,0.16406 -1.25781,0.21875 -2.35156,0.79297 l 1.3125,2.13281 q 0.32812,-0.32812 0.84765,-0.41015 0.54688,-0.10938 0.98438,-0.21875 1.14843,-0.19141 2.1875,-0.0547 0.35547,0.082 1.39453,0.21875 1.03906,0.10937 2.76172,0.38281 2.05078,0.30078 2.78906,0.30078 2.87109,0 4.40234,-1.09375 0.92969,-0.71093 1.75,-1.96875 0.84766,-1.28515 0.84766,-3.08984 z"
           id="path6145"
           inkscape:connector-curvature="0" />
        <path
           style="fill:#ffffff;fill-opacity:1;stroke:none"
           d="m 193.66502,202.93417 q -0.38281,1.5586 -0.92968,2.16016 -0.54688,0.60156 -1.44922,1.25781 -0.98438,0.6836 -2.32422,1.17578 -1.33984,0.46485 -2.98047,0.21875 l -7.68359,-1.0664 q -0.46485,-0.0547 -0.84766,0 -0.35547,0.0547 -0.68359,0.0547 -0.57422,0 -1.47657,0.27344 -0.875,0.2461 -1.36718,0.73828 l -2.65235,-4.34765 q 0.49219,-0.54688 0.875,-0.76563 0.38282,-0.21875 0.90235,-0.46484 1.58593,-0.73828 3.39062,-0.90235 0.76563,-0.0547 1.50391,-0.0273 0.73828,0.0273 1.53125,-0.0547 1.47656,0.2461 2.95312,0.46485 1.50391,0.1914 3.00782,0.41015 1.64062,0 2.21484,-0.32812 0.30078,-0.16406 0.95703,-0.60156 0.65625,-0.4375 1.3125,-1.28516 -1.44922,-0.16406 -2.95312,-0.54688 -1.50391,-0.41015 -2.65235,-0.84765 l 2.84375,-7.05469 q -2.13281,-1.23047 -2.98047,-1.96875 -0.84765,-0.76562 -1.33984,-1.75 -0.71094,-1.25781 -0.92969,-2.43359 -0.1914,-1.17578 -0.16406,-2.10547 0.0273,-1.64063 0.76562,-3.60938 0.76563,-1.99609 2.84375,-3.55468 1.72266,-1.3125 3.36329,-2.70704 1.64062,-1.39453 3.2539,-3.2539 -2.02344,-1.03906 -2.02344,-3.3086 0,-1.53125 1.06641,-2.625 1.09375,-1.09375 2.65234,-1.09375 1.53125,0 2.625,1.09375 1.09375,1.09375 1.09375,2.625 0,2.24219 -2.02343,3.3086 1.58593,1.85937 3.19922,3.2539 1.64062,1.39454 3.41796,2.70704 2.05079,1.55859 2.78907,3.55468 0.73828,1.96875 0.79297,3.60938 0,0.92969 -0.19141,2.10547 -0.19141,1.17578 -0.875,2.43359 -0.54688,0.98438 -1.39453,1.75 -0.82031,0.73828 -2.92578,1.96875 l 2.84375,7.05469 q -1.20313,0.4375 -2.70703,0.84765 -1.50391,0.38282 -2.89844,0.54688 0.6289,0.84766 1.28515,1.28516 0.65625,0.4375 0.98438,0.60156 0.57422,0.32812 2.21484,0.32812 1.47657,-0.21875 2.95313,-0.41015 1.5039,-0.21875 3.00781,-0.46485 0.73828,0.082 1.47656,0.0547 0.76563,-0.0273 1.5586,0.0273 1.75,0.16407 3.39062,0.90235 0.49219,0.24609 0.875,0.46484 0.41016,0.21875 0.90235,0.76563 l -2.67969,4.34765 q -0.49219,-0.49218 -1.39453,-0.73828 -0.875,-0.27344 -1.42188,-0.27344 -0.35547,0 -0.73828,-0.0547 -0.35547,-0.0547 -0.82031,0 l -7.65625,1.0664 q -1.64063,0.2461 -3.0625,-0.21875 -1.39453,-0.46484 -2.29688,-1.23047 -0.90234,-0.73828 -1.44922,-1.25781 -0.51953,-0.54687 -0.875,-2.10547 z"
           id="path6143"
           inkscape:connector-curvature="0" />
        <path
           style="fill:#ffffff;fill-opacity:1;stroke:none"
           d="m 194.62206,199.84433 q 0,1.80469 0.82031,3.08984 0.84765,1.25782 1.80469,1.96875 1.5039,1.09375 4.40234,1.09375 0.71094,0 2.78906,-0.30078 1.69531,-0.27344 2.73438,-0.38281 1.03906,-0.13672 1.39453,-0.21875 1.03906,-0.13672 2.1875,0.0547 0.4375,0.10937 0.95703,0.21875 0.54687,0.082 0.90234,0.41015 l 1.3125,-2.13281 q -1.12109,-0.57422 -2.3789,-0.79297 -2.07813,-0.35547 -3.63672,-0.16406 -0.46485,0.0547 -1.23047,0.27344 -0.73828,0.21875 -2.02344,0.41015 -2.76172,0.4375 -2.92578,0.4375 -1.06641,0 -1.85937,-0.27343 -0.79297,-0.27344 -1.42188,-0.60157 -1.44922,-0.65625 -2.95312,-3.08984 z"
           id="path6116"
           inkscape:connector-curvature="0" />
      </g>
      <path
         d="m 200.93846,197.73891 -1.14843,-2.78906 q -2.78907,-0.60156 -6.125,-0.60156 -3.3086,0 -6.07032,0.60156 l -1.14843,2.76172 q 3.39062,-0.84766 7.21875,-0.84766 3.77343,0 7.27343,0.875 z m -2.29687,-5.63281 -0.79297,-1.91406 v -0.73828 q -2.07813,-0.30078 -4.18359,-0.30078 -2.05079,0 -4.15625,0.30078 l -0.0273,0.73828 -0.73828,1.91406 q 2.32422,-0.41016 4.92188,-0.41016 2.625,0 4.97656,0.41016 z m -0.95703,10.33594 q -1.09375,-0.82031 -2.1875,-2.59766 h -0.875 q 0,1.33985 0.6289,2.59766 z m -5.63282,0 q 0.62891,-1.33985 0.62891,-2.59766 h -0.875 q -1.06641,1.75 -2.21484,2.59766 z m 1.61329,0.49219 q -0.38282,1.55859 -0.92969,2.16015 -0.54688,0.60156 -1.44922,1.25781 -0.98438,0.6836 -2.32422,1.17579 -1.33984,0.46484 -2.98047,0.21875 l -7.68359,-1.06641 q -0.46485,-0.0547 -0.84766,0 -0.35547,0.0547 -0.68359,0.0547 -0.57422,0 -1.47656,0.27343 -0.875,0.2461 -1.36719,0.73829 l -2.65235,-4.34766 q 0.49219,-0.54688 0.875,-0.76563 0.38282,-0.21875 0.90235,-0.46484 1.58594,-0.73828 3.39062,-0.90234 0.76563,-0.0547 1.50391,-0.0274 0.73828,0.0274 1.53125,-0.0547 1.47656,0.24609 2.95312,0.46484 1.50391,0.19141 3.00782,0.41016 1.64062,0 2.21484,-0.32813 0.30078,-0.16406 0.95703,-0.60156 0.65625,-0.4375 1.3125,-1.28516 -1.44922,-0.16406 -2.95312,-0.54687 -1.50391,-0.41016 -2.65235,-0.84766 l 2.84375,-7.05469 q -2.13281,-1.23047 -2.98047,-1.96875 -0.84765,-0.76562 -1.33984,-1.75 -0.71094,-1.25781 -0.92969,-2.43359 -0.1914,-1.17578 -0.16406,-2.10547 0.0273,-1.64062 0.76563,-3.60937 0.76562,-1.9961 2.84375,-3.55469 1.72265,-1.3125 3.36328,-2.70703 1.64062,-1.39453 3.2539,-3.25391 -2.02343,-1.03906 -2.02343,-3.30859 0,-1.53125 1.0664,-2.625 1.09375,-1.09375 2.65235,-1.09375 1.53125,0 2.625,1.09375 1.09375,1.09375 1.09375,2.625 0,2.24218 -2.02344,3.30859 1.58594,1.85938 3.19922,3.25391 1.64062,1.39453 3.41797,2.70703 2.05078,1.55859 2.78906,3.55469 0.73828,1.96875 0.79297,3.60937 0,0.92969 -0.19141,2.10547 -0.19141,1.17578 -0.875,2.43359 -0.54687,0.98438 -1.39453,1.75 -0.82031,0.73828 -2.92578,1.96875 l 2.84375,7.05469 q -1.20313,0.4375 -2.70703,0.84766 -1.50391,0.38281 -2.89844,0.54687 0.62891,0.84766 1.28516,1.28516 0.65625,0.4375 0.98437,0.60156 0.57422,0.32813 2.21484,0.32813 1.47657,-0.21875 2.95313,-0.41016 1.50391,-0.21875 3.00781,-0.46484 0.73828,0.082 1.47656,0.0547 0.76563,-0.0273 1.5586,0.0274 1.75,0.16406 3.39062,0.90234 0.49219,0.24609 0.875,0.46484 0.41016,0.21875 0.90235,0.76563 l -2.67969,4.34766 q -0.49219,-0.49219 -1.39453,-0.73829 -0.875,-0.27343 -1.42188,-0.27343 -0.35547,0 -0.73828,-0.0547 -0.35547,-0.0547 -0.82031,0 l -7.65625,1.06641 q -1.64063,0.24609 -3.0625,-0.21875 -1.39453,-0.46485 -2.29688,-1.23047 -0.90234,-0.73828 -1.44921,-1.25782 -0.51954,-0.54687 -0.875,-2.10546 z m -1.01172,-20.34375 v 2.32421 q 0,1.01172 1.01172,1.01172 v 0 q 1.01171,0 1.01171,-1.01172 v -2.35156 h 2.46094 q 0.95703,0 0.95703,-0.98437 v 0 q 0,-0.98438 -0.95703,-0.98438 h -2.46094 v -2.46094 q 0,-1.01171 -1.01171,-1.01171 v 0 q -1.01172,0 -1.01172,1.01171 v 2.46094 h -2.40625 q -0.95703,0 -0.95703,0.98438 v 0 q 0,0.98437 0.95703,0.98437 z"
         style="fill:#000000;fill-opacity:1;stroke:none"
         id="path6093"
         inkscape:connector-curvature="0" />
    </g>
    <g
       id="bn"
       transform="translate(20.307514,68.02285)">
      <g
         id="g6283">
        <path
           style="fill:#ffffff;fill-opacity:1;stroke:none"
           d="m 240.72362,176.49277 q 0.35547,0.54687 0.27344,1.14843 -0.27344,1.75 -1.94141,1.47657 -0.49219,-0.082 -0.79297,-0.32813 -0.10937,0.13672 -0.32812,0.60156 -0.30079,0.875 -1.14844,0.60157 -0.84766,-0.32813 -0.65625,-1.23047 1.23047,-3.14453 4.45703,-4.32031 0.92969,-0.27344 1.23047,0.54687 0.32812,0.875 -0.49219,1.20313 -0.16406,0.082 -0.30078,0.16406 -0.13672,0.0547 -0.30078,0.13672 z"
           id="path6139"
           inkscape:connector-curvature="0" />
        <path
           style="fill:#ffffff;fill-opacity:1;stroke:none"
           d="m 232.60252,189.53574 q -0.79296,0.49218 -0.95703,1.3125 0.0274,0.90234 -0.84765,0.98437 -0.95703,0.10938 -0.98438,-0.82031 0.10938,-1.80469 1.61328,-2.8711 0.71094,-0.57421 1.3125,0.10938 0.60157,0.73828 -0.13672,1.28516 z"
           id="path6137"
           inkscape:connector-curvature="0" />
        <path
           style="fill:#ffffff;fill-opacity:1;stroke:none"
           d="m 251.16893,167.25058 q 4.29297,0.27344 7.95703,2.21484 3.66406,1.94141 6.23438,4.97657 1.80468,2.13281 3.39062,5.14062 1.61328,3.00781 2.57031,6.37109 1.09375,3.91016 1.36719,8.23047 0.30078,4.29297 0.30078,7.95703 v 5.96094 q 0,0 -4.26562,0 -4.23828,0 -11.01953,0 h -18.34766 q -0.24609,0 -0.24609,-1.33984 0.0273,-1.33985 0.1914,-2.16016 0.10938,-0.65625 0.51953,-1.85937 0.41016,-1.20313 1.36719,-2.92578 0.4375,-0.875 2.07813,-2.54297 1.64062,-1.69532 3.77343,-3.91016 1.23047,-1.25781 1.91407,-3.17187 0.71093,-1.91407 0.60156,-3.47266 -1.01172,0.82031 -2.21484,1.33984 -5.79688,2.07813 -8.39454,6.01563 -0.1914,0.24609 -1.23046,2.21484 -0.54688,1.03906 -0.92969,1.42188 -0.51953,0.51953 -1.50391,0.57422 -1.53125,0.082 -2.3789,-1.47657 -1.14844,0.32813 -2.05079,0.27344 -1.53125,-0.57422 -2.21484,-1.23047 -1.39453,-1.39453 -1.83203,-2.78906 -0.41016,-1.39453 -0.41016,-3.00781 0,-2.29688 2.84375,-6.07032 3.33594,-4.34765 3.55469,-6.61718 0,-0.98438 0.19141,-2.21485 0.16406,-0.84765 0.68359,-1.64062 0.35547,-0.54688 0.46484,-0.73828 0.13672,-0.21875 0.46485,-0.62891 0.24609,-0.32812 0.41015,-0.49219 0.16407,-0.1914 0.41016,-0.49218 0.30078,-0.35547 0.76563,-0.82032 -1.44922,-3.99218 -1.17579,-8.23047 5.44141,1.94141 9.13282,6.09766 0.90234,-3.08984 3.55468,-5.00391 2.1875,1.53125 3.47266,4.04688 z"
           id="path6135"
           inkscape:connector-curvature="0" />
        <path
           style="fill:#ffffff;fill-opacity:1;stroke:none"
           d="m 269.68065,206.16074 q -0.0273,0 0.0547,-1.47657 0.082,-1.5039 0.082,-3.22656 0.0273,-3.41797 0,-7.05469 -0.0273,-3.66406 -0.98438,-7.30078 -0.92968,-3.5 -2.05078,-5.96094 -1.12109,-2.48828 -2.43359,-4.29296 -1.96875,-2.95313 -5.35938,-5.00391 -3.39062,-2.05078 -7.08203,-2.67969 0.2461,1.33985 0.21875,2.625 -0.0547,0.98438 -0.92969,0.98438 -1.01171,0 -0.90234,-0.98438 0.082,-3.60937 -2.57031,-6.17969 -2.07813,2.1875 -2.24219,5.08594 -0.0547,0.95703 -0.98437,0.84766 -0.875,-0.0274 -0.875,-1.01172 0,0 0.0547,-0.21875 -1.12109,0.35547 -2.35156,1.01172 -0.79297,0.54687 -1.28516,-0.27344 -0.49218,-0.82031 0.4375,-1.28516 1.17579,-0.60156 1.77735,-0.90234 -2.35156,-2.40625 -5.35938,-3.88281 0.32813,3.80078 2.07813,7.1914 0.46484,0.71094 -0.21875,1.25782 -0.76563,0.60156 -1.28516,-0.19141 -0.1914,-0.27344 -0.54687,-0.98437 -0.57422,0.57421 -0.76563,0.84765 -0.1914,0.2461 -0.68359,1.09375 -0.46485,0.84766 -0.6836,1.39453 -0.24609,0.6836 -0.21875,1.1211 0.0547,0.41015 0.082,0.92968 -0.2461,1.61329 -1.1211,3.03516 -0.84765,1.42188 -2.1875,3.47266 -1.28515,1.96875 -1.96875,2.95312 -0.68359,0.98438 -1.03906,2.51563 -0.24609,0.92968 0,2.26953 0.24609,1.3125 1.06641,2.05078 1.25781,1.28516 2.43359,1.17578 0.38281,0 1.01172,-0.30078 0.65625,-0.30078 1.01172,-1.14844 0.71093,-1.55859 1.17578,-1.55859 0.68359,0 0.73828,0.76562 0,0.16407 -0.4375,1.36719 -0.24609,0.54688 -0.65625,1.14844 -0.51953,0.71094 -0.46484,0.60156 0.4375,1.55859 1.44921,0.54688 0.30079,-0.30079 0.6836,-1.1211 0.38281,-0.82031 1.20312,-2.21484 0.95703,-1.61328 2.05078,-2.625 1.09375,-1.01172 1.94141,-1.64063 0.49219,-0.35547 1.20313,-0.82031 0.71093,-0.46484 1.91406,-0.95703 0.95703,-0.38281 2.10547,-0.92969 1.17578,-0.57422 2.07812,-1.44922 1.25781,-1.23047 1.94141,-3.03515 0.35547,-1.01172 0.27344,-2.48828 -0.2461,-0.92969 0.92968,-0.92969 0.875,0 0.98438,0.90234 0,3.08985 -1.75,5.63281 0.57422,1.75 0.30078,3.82813 -0.24609,1.66797 -1.17578,3.58203 -0.90235,1.88672 -3.69141,4.21094 -5.66015,4.70312 -5.35937,9.67969 0,0 4.64843,0 4.67579,0 8.77735,0 z"
           id="path6118"
           inkscape:connector-curvature="0" />
      </g>
      <path
         d="m 235.06346,194.97713 q 0.10938,-0.24609 0.35547,-0.73828 0.46485,-1.14843 0.46485,-1.36718 -0.0547,-0.76563 -0.79297,-0.76563 -0.54688,0 -1.28516,1.55859 -0.10937,0.21875 -0.32812,0.38282 -0.73829,0.76562 0.21875,1.28515 v 0 q 0.875,0.51953 1.36718,-0.35547 z m 16.13282,-10.14453 q 1.91406,-2.51562 1.88671,-5.60547 -0.10937,-0.90234 -1.03906,-0.90234 -1.25781,0 -0.98437,0.92969 0.082,1.5039 -0.30078,2.48828 -0.62891,1.55859 -1.39454,2.32422 -0.41015,0.82031 0.49219,1.20312 v 0 q 0.875,0.41016 1.33985,-0.4375 z m -7.13672,-13.34375 q -0.13672,-0.98437 0.0547,-2.13281 -1.64062,0.32813 -3.08984,1.53125 -0.875,0.46484 -0.41016,1.28516 0.46485,0.84765 1.28516,0.27343 0.57422,-0.30078 1.03906,-0.54687 0.49219,-0.27344 1.1211,-0.41016 z m 25.62109,34.67188 q -0.0273,0 0.0547,-1.47656 0.082,-1.50391 0.082,-3.22657 0.0273,-3.41797 0,-7.05468 -0.0273,-3.66407 -0.98438,-7.30079 -0.92968,-3.5 -2.05078,-5.96093 -1.12109,-2.48828 -2.43359,-4.29297 -1.96875,-2.95313 -5.35938,-5.00391 -3.39062,-2.05078 -7.08203,-2.67969 0.10938,0.62891 0.0547,1.28516 -0.0273,0.65625 0.0273,1.25781 2.65235,0.90236 5.00391,2.24219 2.35156,1.33984 3.44531,2.89844 1.3125,1.80469 2.4336,4.29297 1.12109,2.46093 2.05078,5.96093 0.92969,3.63672 0.95703,7.30079 0.0273,3.63671 0.0273,7.05468 0,1.72267 -0.082,3.22657 -0.082,1.47656 0,1.47656 z m -18.51172,-38.91016 q 4.29297,0.27344 7.95703,2.21485 3.66407,1.9414 6.23438,4.97657 1.80469,2.13281 3.39062,5.14062 1.61328,3.00782 2.57032,6.3711 1.09375,3.91015 1.36718,8.23047 0.30078,4.29296 0.30078,7.95703 v 5.96093 q 0,0 -4.26562,0 -4.23828,0 -11.01953,0 h -18.34766 q -0.24609,0 -0.24609,-1.33984 0.0273,-1.33984 0.1914,-2.16016 0.10938,-0.65625 0.51954,-1.85937 0.41015,-1.20313 1.36718,-2.92578 0.4375,-0.875 2.07813,-2.54297 1.64062,-1.69531 3.77344,-3.91017 1.23046,-1.25781 1.91406,-3.17187 0.71094,-1.91406 0.60156,-3.47266 -1.01172,0.82031 -2.21484,1.33985 -5.79688,2.07812 -8.39453,6.01562 -0.19141,0.24609 -1.23047,2.21484 -0.54688,1.03907 -0.92969,1.42188 -0.51953,0.51953 -1.50391,0.57422 -1.53125,0.082 -2.3789,-1.47656 -1.14844,0.32812 -2.05078,0.27343 -1.53125,-0.57422 -2.21485,-1.23047 -1.39453,-1.39453 -1.83203,-2.78906 -0.41016,-1.39453 -0.41016,-3.00781 0,-2.29688 2.84375,-6.07031 3.33594,-4.34766 3.55469,-6.61719 0,-0.98438 0.19141,-2.21484 0.16406,-0.84766 0.68359,-1.64063 0.35547,-0.54687 0.46485,-0.73828 0.13671,-0.21875 0.46484,-0.62891 0.24609,-0.32812 0.41016,-0.49218 0.16406,-0.19141 0.41015,-0.49219 0.30078,-0.35547 0.76563,-0.82031 -1.44922,-3.99219 -1.17578,-8.23047 5.4414,1.9414 9.13281,6.09765 0.90234,-3.08984 3.55469,-5.0039 2.1875,1.53125 3.47265,4.04687 z m -18.45703,22.85939 q 0.79297,-0.54688 0.16406,-1.3125 -0.65625,-0.62892 -1.44922,-0.10938 -1.66796,1.09375 -1.77734,2.8711 0.0273,0.90234 1.06641,0.84765 0.98437,-0.082 0.95703,-1.01173 0.21875,-0.875 1.03906,-1.28514 z m 6.89063,-13.61719 q 0.60156,-0.30078 0.60156,-0.30078 0.82031,-0.32813 0.51953,-1.20313 -0.32813,-0.82031 -1.25781,-0.54687 -3.22657,1.17578 -4.45703,4.32031 -0.19141,0.90234 0.65625,1.23047 0.84765,0.27344 1.14843,-0.60156 0.21875,-0.46486 0.32813,-0.60158 0.30078,0.24611 0.79297,0.32813 1.66797,0.27344 1.9414,-1.47656 0.082,-0.60157 -0.27343,-1.14843 z"
         style="fill:#000000;fill-opacity:1;stroke:none"
         id="path6095"
         inkscape:connector-curvature="0" />
    </g>
    <g
       id="bp"
       transform="translate(24.348583,68.07753)">
      <g
         id="g6287">
        <path
           style="fill:#ffffff;fill-opacity:1;stroke:none"
           d="m 305.66502,206.18808 h 13.42579 q 0.57421,-1.96875 0.57421,-3.85547 0,-4.26562 -2.3789,-7.73828 -2.35156,-3.47266 -6.07031,-5.11328 -1.80469,-0.13672 -1.80469,-1.96875 0,-1.44922 1.83203,-2.13281 2.54297,-1.77735 2.54297,-4.70313 0,-2.10547 -1.42188,-3.69141 -1.42187,-1.58593 -3.44531,-1.83203 -1.64062,-0.13672 -1.64062,-1.85937 0,-0.76563 0.60156,-1.42188 1.47656,-1.14843 1.47656,-3.00781 0,-1.53125 -1.09375,-2.625 -1.09375,-1.09375 -2.59766,-1.09375 -1.55859,0 -2.65234,1.09375 -1.06641,1.09375 -1.06641,2.625 0,1.83203 1.47657,3.00781 0.60156,0.60157 0.60156,1.42188 0,1.72265 -1.61328,1.85937 -2.05078,0.2461 -3.47266,1.83203 -1.39453,1.58594 -1.39453,3.69141 0,2.92578 2.54297,4.70313 1.83203,0.71093 1.83203,2.13281 0,1.83203 -1.83203,1.96875 -3.71875,1.64062 -6.07031,5.11328 -2.35157,3.47266 -2.35157,7.73828 0,2.02344 0.57422,3.85547 z"
           id="path6131"
           inkscape:connector-curvature="0" />
        <path
           style="fill:#ffffff;fill-opacity:1;stroke:none"
           d="M 305.66502,208.04745 H 290.8994 q -1.09375,-2.73437 -1.09375,-5.71484 0,-5.05859 2.87109,-9.07812 2.8711,-4.01954 7.38282,-5.74219 -1.94141,-0.90235 -3.17188,-2.70703 -1.20312,-1.83203 -1.20312,-4.12891 0,-2.87109 1.91406,-4.97656 1.91406,-2.10547 4.70312,-2.4336 -2.21484,-1.66796 -2.21484,-4.40234 0,-2.29687 1.61328,-3.9375 1.64063,-1.64062 3.96484,-1.64062 2.29688,0 3.9375,1.64062 1.64063,1.64063 1.64063,3.9375 0,2.73438 -2.21484,4.40234 2.78906,0.32813 4.70312,2.4336 1.91406,2.10547 1.91406,4.97656 0,2.29688 -1.25781,4.12891 -1.23047,1.80468 -3.14453,2.70703 4.51172,1.72265 7.38281,5.74219 2.8711,4.01953 2.8711,9.07812 0,2.95313 -1.06641,5.71484 z"
           id="path6120"
           inkscape:connector-curvature="0" />
      </g>
      <path
         d="M 305.66503,208.04746 H 290.8994 q -1.09375,-2.73438 -1.09375,-5.71486 0,-5.05858 2.87109,-9.07812 2.8711,-4.01952 7.38282,-5.74219 -1.94141,-0.90234 -3.17188,-2.70703 -1.20312,-1.83203 -1.20312,-4.12891 0,-2.87109 1.91406,-4.97656 1.91406,-2.10547 4.70312,-2.43359 -2.21484,-1.66797 -2.21484,-4.40235 0,-2.29687 1.61328,-3.9375 1.64063,-1.64062 3.96485,-1.64062 2.29687,0 3.9375,1.64062 1.64062,1.64063 1.64062,3.9375 0,2.73438 -2.21484,4.40235 2.78906,0.32812 4.70312,2.43359 1.91406,2.10547 1.91406,4.97656 0,2.29688 -1.25781,4.12891 -1.23047,1.80469 -3.14453,2.70703 4.51172,1.72267 7.38281,5.74219 2.8711,4.01953 2.8711,9.07812 0,2.95313 -1.06641,5.71486 z"
         style="fill:#000000;fill-opacity:1;stroke:none"
         id="path6097"
         inkscape:connector-curvature="0" />
    </g>
	<g
       id="wk"
       transform="translate(-30.002061,179.66532)">
      <g
         id="text6449"
         style="fill:#000000;fill-opacity:1;stroke:none"
         aria-label="l">
        <path
           style="fill:#ffffff;fill-opacity:1"
           d="m 62.980469,137.47264 c -0.07327,-2.69642 0.727761,-5.39524 2.542968,-7.42938 2.713594,-3.59756 8.537717,-4.8813 12.147461,-1.91364 1.78469,1.95872 1.412453,5.40581 -0.671631,7.03418 -1.832957,1.16567 -2.822784,4.42896 -5.28247,3.02662 -2.879367,-0.51752 -5.816636,-0.65535 -8.736328,-0.71778 z"
           id="path6472"
           inkscape:connector-curvature="0" />
        <path
           style="fill:#ffffff;fill-opacity:1"
           d="m 60.984375,139.60545 c 4.405443,0.0433 8.815205,0.43089 13.125,1.36719 1.97527,-2.21845 5.025207,-3.38936 6.480469,-6.05664 1.667797,-3.43062 0.552469,-8.22798 -3.09668,-9.87793 -3.944443,-1.69153 -8.548486,-0.38451 -11.979981,1.89013 -3.429297,2.80606 -4.818705,7.44177 -4.524959,11.7544 -0.0022,0.30761 -0.0038,0.61524 -0.0038,0.92285 z"
           id="path6470"
           inkscape:connector-curvature="0" />
        <path
           style="fill:#ffffff;fill-opacity:1"
           d="m 73.507812,144.33592 c -6.844277,-1.70772 -14.014061,-1.59889 -21,-1.03906 -1.812065,0.43848 -4.901773,0.16713 -5.902492,1.45994 0.117237,0.78939 0.234474,1.57879 0.351711,2.36818 7.042732,-1.65489 14.397907,-1.59939 21.560226,-0.87713 1.400802,-0.38956 4.386595,1.80646 4.677551,0.0639 0.104335,-0.65862 0.208669,-1.31723 0.313004,-1.97584 z"
           id="path6468"
           inkscape:connector-curvature="0" />
        <path
           style="fill:#ffffff;fill-opacity:1"
           d="m 74.21875,152.5117 c -0.273438,-1.07552 -0.546875,-2.15104 -0.820313,-3.22656 -7.331766,-1.53196 -14.927899,-1.48977 -22.353515,-0.74982 -1.423702,0.57982 -4.314787,-0.2569 -4.629734,1.64627 -0.211313,0.78582 -0.422625,1.57164 -0.633938,2.35746 6.779677,-1.86343 13.935394,-1.77724 20.895859,-1.29712 2.5368,0.25177 5.080156,0.58788 7.541641,1.26977 z"
           id="path6466"
           inkscape:connector-curvature="0" />
        <path
           style="fill:#ffffff;fill-opacity:1"
           d="m 44.660156,146.85155 c -0.348849,-1.7319 -0.537941,-3.53306 -0.984374,-5.22266 -2.812438,-1.82075 -5.822026,-4.08468 -6.768646,-7.48054 -0.990482,-2.92238 -0.405396,-6.2759 1.752884,-8.53595 2.716935,-3.50532 7.711622,-3.97626 11.663284,-2.62169 1.442212,0.3451 3.803345,1.70778 4.585632,1.6167 -0.804064,-3.61705 3.125364,-7.01997 6.602234,-5.81397 3.022744,0.30134 3.589351,4.78822 3.896057,5.84815 4.022513,-1.86528 8.930858,-3.53712 13.16858,-1.33173 3.45137,1.9087 5.860108,6.1365 4.688919,10.08739 -0.726782,3.73929 -3.932594,6.25523 -6.940506,8.2043 -0.430028,1.71736 -0.619198,3.52531 -0.95703,5.27732 0.601563,2.2513 1.203125,4.50261 1.804688,6.75391 -2.688042,1.83037 -6.112428,1.98341 -9.242829,2.4416 -7.216113,0.61013 -14.60252,0.64598 -21.688614,-1.01535 -1.248745,-0.44673 -4.10731,-0.83588 -3.073323,-2.68775 0.497681,-1.83991 0.995363,-3.67982 1.493044,-5.51973 z"
           id="path6464"
           inkscape:connector-curvature="0" />
        <path
           style="fill:#ffffff;fill-opacity:1"
           d="m 59.015625,139.57811 c 0.04912,-3.26598 -0.04829,-6.6969 -1.873049,-9.54297 -2.048108,-3.92158 -6.659347,-5.68135 -10.869141,-5.82422 -3.661613,-0.26756 -7.322486,2.54311 -7.532882,6.2974 -0.376087,2.78171 0.850601,5.64648 3.212356,7.20283 1.812891,0.8455 3.065406,3.6361 5.192109,2.95558 3.909166,-0.77832 7.889676,-1.06653 11.870607,-1.08862 z"
           id="path6462"
           inkscape:connector-curvature="0" />
        <path
           style="fill:#ffffff;fill-opacity:1"
           d="m 60,132.71483 c 0.632429,-3.16276 2.812546,-5.80611 3.28125,-8.9961 0.123759,-2.84255 -3.755183,-4.26874 -5.72168,-2.41308 -1.681392,1.91468 -0.341609,4.49448 0.509277,6.46338 0.816706,1.58667 1.469502,3.21881 1.931153,4.9458 z"
           id="path6460"
           inkscape:connector-curvature="0" />
        <path
           style="fill:#ffffff;fill-opacity:1"
           d="m 60.957031,118.49608 c -0.625884,-0.19807 -2.133464,0.48556 -1.941406,-0.53046 0,-1.01719 0,-2.03438 0,-3.05157 -0.98469,-0.0856 -2.059245,0.20714 -2.966797,-0.22559 -0.976529,-1.62049 1.19292,-1.74112 2.288633,-1.6064 1.144305,0.34359 0.525465,-1.07596 0.678164,-1.72398 -0.475682,-2.12362 2.59392,-1.78762 1.941406,0.19544 -5.96e-4,0.81954 -0.27366,1.91155 0.928297,1.52854 1.195527,-0.33402 3.34316,0.503 1.818041,1.77559 -0.899474,0.11699 -1.813202,0.0488 -2.718994,0.0837 -0.0091,1.18491 -0.01823,2.36982 -0.02734,3.55473 z"
           id="path6458"
           inkscape:connector-curvature="0" />
        <path
           style="fill:#ffffff;fill-opacity:1"
           d="m 56.9375,137.47264 c -3.560359,0.12349 -7.200705,0.15888 -10.636719,1.20313 -1.591074,-2.14521 -4.277365,-3.551 -5.08252,-6.21045 -0.555142,-2.37341 0.700638,-5.11136 3.250916,-5.56616 4.199034,-1.42454 8.953687,0.87369 11.000519,4.68218 1.225857,1.72184 1.30528,3.86419 1.467804,5.8913 z"
           id="path6456"
           inkscape:connector-curvature="0" />
        <path
           style="fill:#ffffff;fill-opacity:1"
           d="m 60,128.03905 c -0.615626,-1.64955 -2.879574,-5.79785 0.634034,-5.3252 2.077886,1.30336 -0.511824,3.63232 -0.634034,5.3252 z"
           id="path6451"
           inkscape:connector-curvature="0" />
      </g>
      <path
         style="fill:#000000;fill-opacity:1;stroke:none"
         d="m 46.328125,145.18359 c 7.13556,-1.6183 14.554837,-1.51074 21.811153,-0.95751 1.732002,-0.27385 4.684619,1.43322 5.648877,0.37988 0.198219,-1.16553 0.396438,-2.33106 0.594657,-3.49658 -7.327549,-1.75288 -14.974753,-1.66812 -22.442382,-1.08008 -1.915621,0.44782 -5.141171,0.18253 -6.229634,1.4997 0.205776,1.2182 0.411553,2.4364 0.617329,3.65459 z m -1.667969,1.66797 c -0.34885,-1.7319 -0.537938,-3.53306 -0.984375,-5.22265 -2.812442,-1.82076 -5.822026,-4.08469 -6.768646,-7.48055 -0.990481,-2.92237 -0.405397,-6.2759 1.752884,-8.53595 2.716937,-3.50531 7.711621,-3.97625 11.663284,-2.62169 1.44221,0.34511 3.803344,1.70778 4.585633,1.6167 -0.804065,-3.61705 3.125366,-7.01996 6.602233,-5.81396 3.022747,0.30133 3.58935,4.78823 3.896058,5.84814 4.022513,-1.86527 8.930857,-3.53712 13.168579,-1.33172 3.451369,1.9087 5.860107,6.13649 4.688919,10.08738 -0.726785,3.73929 -3.932589,6.25524 -6.940506,8.2043 -0.430026,1.71738 -0.619199,3.52532 -0.957031,5.27735 0.601562,2.2513 1.203125,4.5026 1.804687,6.7539 -2.688042,1.83038 -6.112427,1.98342 -9.242828,2.44161 -7.216114,0.61013 -14.60252,0.64598 -21.688614,-1.01535 -1.248746,-0.44673 -4.107311,-0.83589 -3.073325,-2.68775 0.497683,-1.83992 0.995366,-3.67984 1.493048,-5.51976 z m 29.558594,3.19922 c -0.273438,-1.04818 -0.546875,-2.09635 -0.820312,-3.14453 -7.468609,-1.5067 -15.193585,-1.47494 -22.746876,-0.68498 -1.378966,0.54416 -4.139198,-0.26113 -4.304783,1.70769 0.0018,0.67856 -1.206971,2.56707 0.07491,1.96374 6.926482,-1.64019 14.147744,-1.53364 21.204357,-1.01538 2.222372,0.22085 4.442862,0.55606 6.592701,1.17346 z m 0.710938,2.57031 c -6.36744,-2.35822 -13.31552,-2.29259 -20.007508,-1.95977 -3.326192,0.2586 -6.699314,0.71366 -9.79718,2.01446 5.785728,2.04882 12.050583,1.95902 18.110775,1.85267 3.939328,-0.20035 7.97636,-0.49734 11.693913,-1.90736 z M 59.042969,137.80078 c 0.154272,-4.34414 -1.603519,-9.07031 -5.373047,-11.4707 -3.641123,-2.03711 -8.596624,-3.23575 -12.27713,-0.65871 -3.671822,2.72974 -3.57959,8.92293 0.05447,11.6509 1.60988,1.73853 3.333262,2.84322 5.598632,1.57568 3.939802,-0.83202 7.981113,-1.0265 11.997071,-1.09717 z M 60,132.71484 c 0.632432,-3.16276 2.812542,-5.80611 3.28125,-8.99609 0.12376,-2.84255 -3.755181,-4.26874 -5.72168,-2.41309 -1.681392,1.91468 -0.341611,4.49448 0.509278,6.46338 0.816702,1.58667 1.469502,3.21882 1.931152,4.9458 z m 0.929688,5.08594 c 4.948882,0.10787 9.976093,0.3906 14.738281,1.83203 2.38745,-1.8924 5.45059,-3.88672 5.58667,-7.26991 0.575464,-3.57493 -1.853188,-7.38546 -5.518311,-7.96056 -3.935818,-0.6453 -8.246409,0.59078 -11.178894,3.30005 -2.471217,2.7059 -3.818407,6.43552 -3.627746,10.09839 z m 0.02734,-19.30469 c -0.625884,-0.19807 -2.133464,0.48556 -1.941406,-0.53045 0,-1.01719 0,-2.03439 0,-3.05158 -0.98469,-0.0856 -2.059244,0.20714 -2.966797,-0.22558 -0.976541,-1.62052 1.192894,-1.74118 2.288632,-1.60645 1.144306,0.34359 0.525467,-1.07596 0.678165,-1.72398 -0.475681,-2.12361 2.593921,-1.78762 1.941406,0.19545 -5.96e-4,0.81954 -0.273659,1.91154 0.928298,1.52853 1.195553,-0.33403 3.343163,0.50303 1.81804,1.77564 -0.899474,0.11699 -1.813202,0.0488 -2.718994,0.0837 -0.0091,1.18489 -0.01823,2.36979 -0.02734,3.55468 z"
         id="text6445"
         inkscape:connector-curvature="0" />
    </g>
    <g
       id="wq"
       transform="translate(329.97434,269.96844)">
      <g
         id="text5480"
         style="fill:#ffffff;fill-opacity:1;stroke:none"
         aria-label="w">
        <path
           style="fill:#ffffff;fill-opacity:1"
           d="m -224.57812,49.441399 c -6.41072,-1.925358 -13.21771,-2.032969 -19.85931,-1.772564 -3.66766,0.252686 -7.38899,0.569515 -10.90241,1.717876 0.45573,0.829427 0.91145,1.658854 1.36718,2.488281 6.07864,-1.528927 12.43761,-1.307376 18.65613,-1.189987 3.13501,0.161774 6.31617,0.319194 9.34387,1.217331 0.46485,-0.820312 0.92969,-1.640625 1.39454,-2.460937 z"
           id="path5504"
           inkscape:connector-curvature="0" />
        <path
           style="fill:#ffffff;fill-opacity:1"
           d="m -218.39844,31.175774 c -2.87317,0.184806 -4.83082,-3.464272 -3.13086,-5.769531 1.40441,-2.373046 5.2436,-2.176641 6.42236,0.307617 1.3506,2.361006 -0.55134,5.580339 -3.2915,5.461914 z"
           id="path5502"
           inkscape:connector-curvature="0" />
        <path
           style="fill:#ffffff;fill-opacity:1"
           d="m -261.54687,31.175774 c -2.8843,0.189339 -4.77774,-3.464753 -3.1189,-5.769531 1.46739,-2.524308 5.60271,-2.090732 6.59155,0.628906 1.0428,2.380363 -0.85359,5.244962 -3.47265,5.140625 z"
           id="path5500"
           inkscape:connector-curvature="0" />
        <path
           style="fill:#ffffff;fill-opacity:1"
           d="m -228.51562,28.167961 c -2.8843,0.189339 -4.77774,-3.464753 -3.1189,-5.769531 1.54417,-2.623924 5.95588,-1.974663 6.71118,0.963867 0.77054,2.322638 -1.13232,4.909547 -3.59228,4.805664 z"
           id="path5498"
           inkscape:connector-curvature="0" />
        <path
           style="fill:#ffffff;fill-opacity:1"
           d="m -251.48437,28.167961 c -2.87317,0.184813 -4.83083,-3.464268 -3.13087,-5.769531 1.48147,-2.474598 5.58594,-2.075752 6.57618,0.628906 1.03773,2.366487 -0.83818,5.232009 -3.44531,5.140625 z"
           id="path5496"
           inkscape:connector-curvature="0" />
        <path
           style="fill:#ffffff;fill-opacity:1"
           d="m -223.15625,63.386711 c -2.75388,1.809564 -6.21705,1.968599 -9.39824,2.420216 -7.10523,0.577102 -14.38656,0.594084 -21.33998,-1.151722 -1.34258,-0.374842 -3.59223,-0.976163 -2.5446,-2.711154 0.42851,-1.789148 1.01905,-3.571794 1.34846,-5.364919 -0.35436,-1.491227 -0.37267,-3.104829 -0.9476,-4.515737 -0.70997,-1.378318 -1.69534,-2.66265 -2.2374,-4.098273 -0.7623,-5.578221 -1.52459,-11.156441 -2.28689,-16.734661 0.83832,-0.447775 1.61947,-0.730161 1.90237,0.428967 2.30989,3.894772 4.61977,7.789543 6.92966,11.684314 0.0547,-5.013021 0.10937,-10.026041 0.16406,-15.039062 0.73963,0.03768 2.00293,-0.844811 2.10304,0.316594 1.82373,4.825458 3.64745,9.650917 5.47118,14.476375 1.02083,-5.423177 2.04167,-10.846355 3.0625,-16.269532 0.72142,0.165572 2.11829,-0.483817 2.01463,0.677254 0.9782,5.179197 1.95639,10.358393 2.93459,15.53759 1.88672,-5.022135 3.77344,-10.044271 5.66016,-15.066406 0.68945,0.28975 2.19168,-0.111739 1.89424,1.017312 0.0522,4.783291 0.10436,9.566583 0.15654,14.349875 2.50651,-4.220052 5.01302,-8.440104 7.51953,-12.660156 0.8878,0.287277 1.61452,0.662522 1.13861,1.694545 -0.70766,5.2776 -1.41532,10.555199 -2.12298,15.832799 -0.79514,1.496735 -1.83834,2.90276 -2.48141,4.455107 -0.20531,1.40214 -0.57692,2.811524 -0.68219,4.209307 0.58057,2.170456 1.16115,4.340911 1.74172,6.511367 z"
           id="path5494"
           inkscape:connector-curvature="0" />
        <path
           style="fill:#ffffff;fill-opacity:1"
           d="m -225.78125,62.511711 c -0.27344,-1.075521 -0.54687,-2.151041 -0.82031,-3.226562 -7.46177,-1.550305 -15.19591,-1.504157 -22.74744,-0.70055 -1.38979,0.539184 -4.15223,-0.236558 -4.28112,1.765483 0.0198,0.672018 -1.22371,2.628454 0.0758,1.996926 6.90697,-1.693726 14.13731,-1.618052 21.18073,-1.00937 2.21795,0.252278 4.43869,0.572783 6.5923,1.174073 z"
           id="path5492"
           inkscape:connector-curvature="0" />
        <path
           style="fill:#ffffff;fill-opacity:1"
           d="m -226.49219,54.33593 c -6.84427,-1.707723 -14.01406,-1.598887 -20.99999,-1.039062 -1.80604,0.446192 -4.93462,0.154448 -5.90019,1.475456 0.29293,0.654866 -0.0706,2.294891 0.67515,2.270236 7.07524,-1.57627 14.44351,-1.528972 21.61932,-0.744716 1.33638,-0.373953 4.27807,1.885705 4.31919,-0.153229 0.0955,-0.602895 0.19101,-1.20579 0.28652,-1.808685 z"
           id="path5490"
           inkscape:connector-curvature="0" />
        <path
           style="fill:#ffffff;fill-opacity:1"
           d="m -240,26.800774 c -3.03698,0.185848 -4.89697,-3.848182 -2.90228,-6.090821 1.79029,-2.463945 6.0942,-1.371036 6.5783,1.606446 0.51854,2.232452 -1.39243,4.549236 -3.67602,4.484375 z"
           id="path5485"
           inkscape:connector-curvature="0" />
      </g>
      <g
         transform="translate(15,45.000002)"
         id="text5473"
         style="fill:#000000;fill-opacity:1;stroke:none"
         aria-label="q">
        <path
           d="m -255,-18.199228 c -3.03698,0.185848 -4.89697,-3.848182 -2.90228,-6.090821 1.79029,-2.463945 6.0942,-1.371036 6.5783,1.606446 0.51854,2.232452 -1.39243,4.549236 -3.67602,4.484375 z m 0,-1.914063 c 3.20872,0.140907 1.67718,-5.235691 -1.09973,-3.382935 -1.33086,0.912867 -0.75783,3.653949 1.09973,3.382935 z m 13.91797,27.5351565 c -7.23069,-1.6555858 -14.75647,-1.5549013 -22.10996,-0.9539872 -1.6386,0.5161505 -5.04608,-0.00916 -5.58617,1.5261029 0.2853,0.8621389 -0.13948,2.7523788 1.35027,1.855443 7.36015,-1.3344185 14.94258,-1.3080452 22.35731,-0.451439 1.33471,-0.1914752 3.91224,1.6837318 3.74003,-0.5727242 0.0828,-0.4677985 0.16568,-0.935597 0.24852,-1.4033955 z m 0.68359,-1.640625 c 0.59245,-1.0481771 1.1849,-2.0963542 1.77735,-3.1445313 -2.96968,1.2332514 -6.72264,0.2529418 -8.53125,-2.46093749 -2.1956,2.00417879 -6.10488,1.82294419 -7.84766,-0.68359375 -1.88062,2.28484444 -5.59187,2.56180534 -7.79297,0.57421875 -1.91841,2.67785419 -5.67865,3.62617169 -8.69531,2.40624999 0.63802,1.09375 1.27604,2.1875 1.91406,3.28125 7.0082,-1.821535 14.35866,-1.6957194 21.53502,-1.2740211 2.57548,0.2189272 5.15735,0.5625515 7.64076,1.3013649 z m -12.25,-6.53515629 c -0.77474,-4.45703141 -1.54948,-8.91406281 -2.32422,-13.37109421 -0.77474,4.4023439 -1.54947,8.8046878 -2.32421,13.20703171 1.32065,-2.06493561 3.42481,-1.90538951 4.64843,0.1640625 z m 7.57422,0.51953125 c 0,-4.22005216 0,-8.44010426 0,-12.66015646 -1.50391,4.1380209 -3.00781,8.2760418 -4.51172,12.41406271 1.52404,-1.24674101 3.25321,-1.84947291 4.51172,0.24609375 z m -15.36719,-0.3828125 c -1.49479,-4.09244796 -2.98958,-8.18489596 -4.48437,-12.27734396 0,4.1653647 0,8.3307293 0,12.49609396 1.09994,-2.30317016 2.97331,-1.24391346 4.48437,-0.21875 z m -6.94531,1.53125 c -1.95963,-3.38151046 -3.91927,-6.76302086 -5.8789,-10.14453126 0.5013,3.0807292 1.0026,6.1614583 1.5039,9.24218751 1.24612,0.92571275 2.85932,1.37368299 4.375,0.90234375 z m 24.69141,0.13671874 c 1.55226,0.3936268 4.57937,0.2556413 4.6632,-1.80061041 0.45081,-2.83599439 0.90161,-5.67198889 1.35242,-8.50798329 -2.00521,3.4361979 -4.01041,6.8723958 -6.01562,10.3085937 z m 1.64062,13.8359373 c -0.27344,-1.029948 -0.54687,-2.059896 -0.82031,-3.089844 -7.55419,-1.497741 -15.37087,-1.472617 -22.99772,-0.568371 -1.39523,0.354098 -3.61805,-0.06462 -3.58665,1.898524 -0.33281,1.099101 -0.91092,2.405758 0.84493,1.428148 6.98441,-1.49282 14.23567,-1.408611 21.31178,-0.696518 1.76951,0.223317 3.53151,0.538106 5.24797,1.028061 z m 2.89844,3.5 c -2.75388,1.809564 -6.21705,1.968599 -9.39824,2.420216 -7.10523,0.577102 -14.38656,0.594084 -21.33998,-1.151722 -1.34258,-0.374842 -3.59223,-0.976163 -2.5446,-2.711154 0.42851,-1.789148 1.01905,-3.571794 1.34846,-5.364919 -0.35436,-1.491227 -0.37267,-3.1048286 -0.9476,-4.5157366 -0.70997,-1.3783179 -1.69534,-2.6626509 -2.2374,-4.098274 -0.7623,-5.5782201 -1.52459,-11.1564403 -2.28689,-16.7346604 0.83832,-0.447775 1.61947,-0.730161 1.90237,0.428967 2.30989,3.8947718 4.61977,7.7895431 6.92966,11.6843145 0.0547,-5.0130208 0.10937,-10.0260415 0.16406,-15.0390625 0.73963,0.03768 2.00293,-0.844811 2.10304,0.316594 1.82373,4.825458 3.64745,9.6509165 5.47118,14.4763747 1.02083,-5.4231772 2.04167,-10.8463547 3.0625,-16.2695317 0.72142,0.165572 2.11829,-0.483817 2.01463,0.677254 0.9782,5.179197 1.95639,10.3583935 2.93459,15.5375902 1.88672,-5.0221354 3.77344,-10.0442712 5.66016,-15.0664062 0.68945,0.28975 2.19168,-0.111739 1.89424,1.017312 0.0522,4.783292 0.10436,9.5665835 0.15654,14.3498755 2.50651,-4.2200522 5.01302,-8.4401045 7.51953,-12.6601565 0.8878,0.287277 1.61452,0.662522 1.13861,1.694545 -0.70766,5.2775999 -1.41532,10.5551995 -2.12298,15.832799 -0.79514,1.4967353 -1.83834,2.9027602 -2.48141,4.4551069 -0.20531,1.4021401 -0.57692,2.8115241 -0.68219,4.2093071 0.58057,2.170456 1.16115,4.340911 1.74172,6.511367 z m -2.21484,-0.984375 c -6.06133,-2.287483 -12.69288,-2.202809 -19.0774,-1.944824 -3.43394,0.236846 -6.92442,0.664235 -10.12573,1.999512 5.93291,2.07663 12.35263,1.969239 18.55978,1.787277 3.58364,-0.248913 7.26736,-0.520275 10.64335,-1.841965 z m -26.11328,-34.234375 c -2.87317,0.184813 -4.83083,-3.464268 -3.13087,-5.769531 1.48147,-2.474598 5.58594,-2.075752 6.57618,0.628906 1.03773,2.366487 -0.83818,5.232009 -3.44531,5.140625 z m 0,-1.914062 c 3.18213,0.127566 1.63358,-5.206107 -1.1164,-3.355591 -1.36089,0.915687 -0.74865,3.643735 1.1164,3.355591 z m 22.96875,0 c 3.21241,0.150867 1.66513,-5.206956 -1.09973,-3.355591 -1.33182,0.912065 -0.7543,3.632018 1.09973,3.355591 z m 0,1.914062 c -2.8843,0.189339 -4.77774,-3.464753 -3.1189,-5.769531 1.54417,-2.623924 5.95588,-1.974663 6.71118,0.963867 0.77054,2.322638 -1.13232,4.909547 -3.59228,4.805664 z m -33.03125,3.007813 c -2.8843,0.189339 -4.77774,-3.464753 -3.1189,-5.769531 1.46739,-2.524308 5.60271,-2.090732 6.59155,0.628906 1.0428,2.380363 -0.85359,5.244962 -3.47265,5.140625 z m 0,-1.914063 c 3.21455,0.15462 1.66876,-5.23905 -1.09973,-3.37909 -1.32395,0.92151 -0.76766,3.653252 1.09973,3.37909 z m 43.14843,0 c 3.18417,0.131222 1.63738,-5.238206 -1.11639,-3.37909 -1.35299,0.925221 -0.76216,3.665036 1.11639,3.37909 z m 0,1.914063 c -2.87317,0.184806 -4.83082,-3.464272 -3.13086,-5.769531 1.40441,-2.373046 5.2436,-2.176641 6.42236,0.307617 1.3506,2.361006 -0.55134,5.580339 -3.2915,5.461914 z"
           id="path5475"
           inkscape:connector-curvature="0" />
      </g>
    </g>
    <g
       id="wr"
       transform="matrix(0.99999411,0,0,1,330.01261,120.60547)">
      <g
         aria-label="t"
         style="fill:#ffffff;fill-opacity:1;stroke:none"
         id="text5532">
        <path
           style="fill:#ffffff;fill-opacity:1"
           d="m -176.25391,174.47655 c 1.54948,0 3.09896,0 4.64844,0 0,-1.2487 0,-2.4974 0,-3.7461 2.4974,0 4.99479,0 7.49219,0 0,3.41797 0,6.83594 0,10.25391 -2.02344,1.55859 -4.04687,3.11719 -6.07031,4.67578 0,4.35677 0,8.71354 0,13.07031 1.54948,1.54948 3.09895,3.09896 4.64843,4.64844 0,1.86849 0,3.73698 0,5.60547 1.39453,0 2.78907,0 4.1836,0 0,2.17839 0,4.35677 0,6.53516 -12.44141,0 -24.88281,0 -37.32422,0 0,-2.17839 0,-4.35677 0,-6.53516 1.39453,0 2.78906,0 4.18359,0 0,-1.86849 0,-3.73698 0,-5.60547 1.55859,-1.54948 3.11719,-3.09896 4.67578,-4.64844 0,-4.35677 0,-8.71354 0,-13.07031 -2.02344,-1.55859 -4.04687,-3.11719 -6.07031,-4.67578 0,-3.41797 0,-6.83594 0,-10.25391 2.48828,0 4.97657,0 7.46485,0 0,1.2487 0,2.4974 0,3.7461 1.55859,0 3.11719,0 4.67578,0 0,-1.2487 0,-2.4974 0,-3.7461 2.49739,0 4.99479,0 7.49218,0 0,1.2487 0,2.4974 0,3.7461 z"
           id="path5553"
           inkscape:connector-curvature="0" />
        <path
           style="fill:#ffffff;fill-opacity:1"
           d="m -192.57812,208.54686 c 0,0.92969 0,1.85937 0,2.78906 8.38542,0 16.77083,0 25.15625,0 0,-0.92969 0,-1.85937 0,-2.78906 -8.38542,0 -16.77083,0 -25.15625,0 z"
           id="path5551"
           inkscape:connector-curvature="0" />
        <path
           style="fill:#ffffff;fill-opacity:1"
           d="m -180,178.68748 c -4.66667,0 -9.33333,0 -14,0 -0.0675,0.76386 -0.0808,1.50071 0.74504,1.81915 0.6466,0.44121 1.19764,1.16807 2.06728,0.94257 7.73964,0 15.47929,0 23.21893,0 0.64714,-0.5013 1.29427,-1.0026 1.94141,-1.5039 0.0845,-0.81468 0.10113,-1.56157 -0.93284,-1.25782 -4.3466,0 -8.69321,0 -13.03982,0 z"
           id="path5549"
           inkscape:connector-curvature="0" />
        <path
           style="fill:#ffffff;fill-opacity:1"
           d="m -180,183.30858 c -3.1901,0 -6.38021,0 -9.57031,0 0.51635,0.48211 1.27731,0.84512 1.64062,1.40175 0.0787,0.63517 -0.34948,1.77723 0.69963,1.442 5.05325,0 10.1065,0 15.15975,0 0.11088,-0.65988 -0.327,-1.58698 0.45897,-1.91813 0.42233,-0.39882 1.79666,-1.12612 0.48202,-0.92562 -2.95689,0 -5.91379,0 -8.87068,0 z"
           id="path5547"
           inkscape:connector-curvature="0" />
        <path
           style="fill:#ffffff;fill-opacity:1"
           d="m -180,198.23827 c -2.64323,0 -5.28646,0 -7.92969,0 0.0607,0.75598 0.0727,1.49127 -0.6707,1.90615 -0.51787,0.50121 -1.45401,1.17153 -0.15369,0.9376 6.10813,0 12.21626,0 18.32439,0 -0.51664,-0.58034 -1.26466,-1.06253 -1.64062,-1.70254 0.17642,-0.90664 -0.0794,-1.38108 -1.04944,-1.14121 -2.29342,0 -4.58683,0 -6.88025,0 z"
           id="path5545"
           inkscape:connector-curvature="0" />
        <path
           style="fill:#ffffff;fill-opacity:1"
           d="m -180,202.94139 c -3.77344,0 -7.54687,0 -11.32031,0 -0.49176,0.59367 -1.49986,0.9632 -1.25781,1.87541 -0.3209,1.04388 0.50816,0.93782 1.28265,0.88631 7.95787,0 15.91573,0 23.8736,0 -0.0792,-0.72749 0.29045,-1.64979 -0.5111,-2.0637 -0.4633,-0.67435 -1.14174,-0.80351 -1.91277,-0.69802 -3.38475,0 -6.76951,0 -10.15426,0 z"
           id="path5540"
           inkscape:connector-curvature="0" />
      </g>
      <g
         transform="translate(-74.999999)"
         id="text5561"
         style="fill:#000000;fill-opacity:1;stroke:none"
         aria-label="r">
        <path
           d="m -101.25391,174.47655 c 1.54948,0 3.098961,0 4.648441,0 0,-1.2487 0,-2.4974 0,-3.7461 2.497396,0 4.994792,0 7.492188,0 0,3.41797 0,6.83594 0,10.25391 -2.023438,1.55859 -4.046875,3.11719 -6.070313,4.67578 0,4.35677 0,8.71354 0,13.07031 1.549479,1.54948 3.098959,3.09896 4.648438,4.64844 0,1.86849 0,3.73698 0,5.60547 1.394531,0 2.789063,0 4.183594,0 0,2.17839 0,4.35677 0,6.53516 -12.441406,0 -24.882808,0 -37.324218,0 0,-2.17839 0,-4.35677 0,-6.53516 1.39453,0 2.78906,0 4.18359,0 0,-1.86849 0,-3.73698 0,-5.60547 1.55859,-1.54948 3.11719,-3.09896 4.67578,-4.64844 0,-4.35677 0,-8.71354 0,-13.07031 -2.02344,-1.55859 -4.04687,-3.11719 -6.07031,-4.67578 0,-3.41797 0,-6.83594 0,-10.25391 2.48828,0 4.97656,0 7.46484,0 0,1.2487 0,2.4974 0,3.7461 1.5586,0 3.11719,0 4.67579,0 0,-1.2487 0,-2.4974 0,-3.7461 2.49739,0 4.99479,0 7.49218,0 0,1.2487 0,2.4974 0,3.7461 z m 13.070316,36.36718 c -11.210939,0 -22.421876,0 -33.632816,0 0,0.9388 0,1.87761 0,2.81641 11.21094,0 22.421877,0 33.632816,0 0,-0.9388 0,-1.87761 0,-2.81641 z m -4.238281,-5.57812 c -8.385415,0 -16.770835,0 -25.156255,0 0,1.23958 0,2.47917 0,3.71875 8.38542,0 16.77084,0 25.156255,0 0,-1.23958 0,-2.47917 0,-3.71875 z m -4.648437,-19.60547 c -5.286458,0 -10.572918,0 -15.859378,0 0,4.35677 0,8.71354 0,13.07031 5.28646,0 10.57292,0 15.859378,0 0,-4.35677 0,-8.71354 0,-13.07031 z M -91,179.12498 c 0,-2.17838 0,-4.35677 0,-6.53515 -1.248698,0 -2.497396,0 -3.746094,0 0,1.2487 0,2.49739 0,3.74609 -2.807292,0 -5.614586,0 -8.421876,0 0,-1.2487 0,-2.49739 0,-3.74609 -1.23047,0 -2.46094,0 -3.69141,0 0,1.2487 0,2.49739 0,3.74609 -2.79818,0 -5.59635,0 -8.39453,0 0,-1.2487 0,-2.49739 0,-3.74609 -1.2487,0 -2.49739,0 -3.74609,0 0,2.17838 0,4.35677 0,6.53515 9.33333,0 18.66667,0 28,0 z m -2.105469,24.25391 c -0.938802,-0.92969 -1.877604,-1.85937 -2.816406,-2.78906 -6.042965,0 -12.085935,0 -18.128905,0 -0.95703,0.92969 -1.91407,1.85937 -2.8711,2.78906 7.9388,0 15.87761,0 23.816411,0 z m -3.007812,-19.57812 c 1.157552,-0.9388 2.315104,-1.87761 3.472656,-2.81641 -8.239585,0 -16.479175,0 -24.718755,0 1.16667,0.9388 2.33333,1.87761 3.5,2.81641 5.91537,0 11.83073,0 17.746099,0 z"
           id="path5563"
           inkscape:connector-curvature="0" />
      </g>
    </g>
    <g
       id="wb">
      <g
         transform="matrix(0.99999866,0,0,1,1124.9983,405.82107)"
         id="text5675"
         style="fill:#ffffff;fill-opacity:1;stroke:none"
         aria-label="v">
        <path
           inkscape:connector-curvature="0"
           id="path5690"
           d="m -907.72656,-79.789074 -1.14844,-2.789062 q -2.78906,-0.601563 -6.125,-0.601563 -3.30859,0 -6.07031,0.601563 l -1.14844,2.761718 q 3.39063,-0.847656 7.21875,-0.847656 3.77344,0 7.27344,0.875 z"
           style="fill:#ffffff;fill-opacity:1" />
        <path
           inkscape:connector-curvature="0"
           id="path5688"
           d="m -910.02344,-85.421886 -0.79297,-1.914063 v -0.738281 q -2.07812,-0.300781 -4.18359,-0.300781 -2.05078,0 -4.15625,0.300781 l -0.0273,0.738281 -0.73828,1.914063 q 2.32421,-0.410157 4.92187,-0.410157 2.625,0 4.97656,0.410157 z"
           style="fill:#ffffff;fill-opacity:1" />
        <path
           inkscape:connector-curvature="0"
           id="path5686"
           d="m -910.98047,-75.085949 q -1.09375,-0.820312 -2.1875,-2.597656 h -0.875 q 0,1.339844 0.62891,2.597656 z"
           style="fill:#ffffff;fill-opacity:1" />
        <path
           inkscape:connector-curvature="0"
           id="path5684"
           d="m -916.61328,-75.085949 q 0.62891,-1.339844 0.62891,-2.597656 h -0.875 q -1.06641,1.75 -2.21485,2.597656 z"
           style="fill:#ffffff;fill-opacity:1" />
        <path
           inkscape:connector-curvature="0"
           id="path5682"
           d="m -915,-74.593761 q -0.38281,1.558593 -0.92969,2.160156 -0.54687,0.601562 -1.44922,1.257812 -0.98437,0.683594 -2.32421,1.175782 -1.33985,0.464843 -2.98047,0.21875 l -7.6836,-1.066407 q -0.46484,-0.05469 -0.84765,0 -0.35547,0.05469 -0.6836,0.05469 -0.57422,0 -1.47656,0.273437 -0.875,0.246094 -1.36719,0.738282 l -2.65234,-4.347657 q 0.49219,-0.546875 0.875,-0.765625 0.38281,-0.21875 0.90234,-0.464843 1.58594,-0.738282 3.39063,-0.902344 0.76562,-0.05469 1.5039,-0.02734 0.73829,0.02734 1.53125,-0.05469 1.47657,0.246093 2.95313,0.464843 1.50391,0.191407 3.00781,0.410157 1.64063,0 2.21485,-0.328125 0.30078,-0.164063 0.95703,-0.601563 0.65625,-0.4375 1.3125,-1.285156 -1.44922,-0.164063 -2.95313,-0.546875 -1.5039,-0.410156 -2.65234,-0.847656 l 2.84375,-7.054688 q -2.13281,-1.230469 -2.98047,-1.96875 -0.84766,-0.765625 -1.33984,-1.75 -0.71094,-1.257812 -0.92969,-2.433594 -0.19141,-1.175781 -0.16406,-2.105468 0.0273,-1.640625 0.76562,-3.609375 0.76563,-1.996094 2.84375,-3.554692 1.72266,-1.3125 3.36328,-2.70703 1.64063,-1.39453 3.25391,-3.25391 -2.02344,-1.03906 -2.02344,-3.30859 0,-1.53125 1.06641,-2.625 1.09375,-1.09375 2.65234,-1.09375 1.53125,0 2.625,1.09375 1.09375,1.09375 1.09375,2.625 0,2.24219 -2.02344,3.30859 1.58594,1.85938 3.19922,3.25391 1.64063,1.39453 3.41797,2.70703 2.05078,1.558598 2.78906,3.554692 0.73828,1.96875 0.79297,3.609375 0,0.929687 -0.1914,2.105468 -0.19141,1.175782 -0.875,2.433594 -0.54688,0.984375 -1.39454,1.75 -0.82031,0.738281 -2.92578,1.96875 l 2.84375,7.054688 q -1.20312,0.4375 -2.70703,0.847656 -1.5039,0.382812 -2.89844,0.546875 0.62891,0.847656 1.28516,1.285156 0.65625,0.4375 0.98438,0.601563 0.57421,0.328125 2.21484,0.328125 1.47656,-0.21875 2.95312,-0.410157 1.50391,-0.21875 3.00782,-0.464843 0.73828,0.08203 1.47656,0.05469 0.76562,-0.02734 1.55859,0.02734 1.75,0.164062 3.39063,0.902344 0.49219,0.246093 0.875,0.464843 0.41015,0.21875 0.90234,0.765625 l -2.67969,4.347657 q -0.49218,-0.492188 -1.39453,-0.738282 -0.875,-0.273437 -1.42187,-0.273437 -0.35547,0 -0.73828,-0.05469 -0.35547,-0.05469 -0.82032,0 l -7.65625,1.066407 q -1.64062,0.246093 -3.0625,-0.21875 -1.39453,-0.464844 -2.29687,-1.230469 -0.90234,-0.738281 -1.44922,-1.257813 -0.51953,-0.546875 -0.875,-2.105468 z"
           style="fill:#ffffff;fill-opacity:1" />
        <path
           inkscape:connector-curvature="0"
           id="path5677"
           d="m -916.01172,-94.937511 v 2.324218 q 0,1.011719 1.01172,1.011719 v 0 q 1.01172,0 1.01172,-1.011719 v -2.351562 h 2.46094 q 0.95703,0 0.95703,-0.984375 v 0 q 0,-0.984375 -0.95703,-0.984375 h -2.46094 v -2.460938 q 0,-1.011717 -1.01172,-1.011717 v 0 q -1.01172,0 -1.01172,1.011717 v 2.460938 h -2.40625 q -0.95703,0 -0.95703,0.984375 v 0 q 0,0.984375 0.95703,0.984375 z"
           style="fill:#ffffff;fill-opacity:1" />
      </g>
      <g
         transform="matrix(0.99999866,0,0,1,944.99852,210.82105)"
         id="text5694"
         style="fill:#000000;fill-opacity:1;stroke:none"
         aria-label="b">
        <path
           inkscape:connector-curvature="0"
           id="path5696"
           d="m -735.98437,100.0078 -2.26954,-0.02735 q -0.92968,0 -0.92968,-0.929687 v 0 q 0,-0.929688 0.92968,-0.929688 h 2.26954 v -2.351562 q 0,-0.957031 0.98437,-0.957031 v 0 q 0.95703,0 0.95703,0.957031 v 2.351562 h 2.35156 q 0.90235,0 0.90235,0.929688 v 0 q 0,0.929687 -0.90235,0.929687 h -2.35156 v 2.24219 q 0,0.98438 -0.95703,0.98438 v 0 q -0.98437,0 -0.98437,-0.98438 z M -735,115.81248 q 1.85938,0 3.60938,-0.30078 1.77734,-0.32812 3.41796,-0.76562 -3.19921,-0.84766 -7.02734,-0.84766 -3.88281,0 -7.02734,0.84766 1.58593,0.4375 3.36328,0.76562 1.77734,0.30078 3.66406,0.30078 z m 0,-29.777339 q 1.85938,0 1.85938,-1.859375 0,-1.859375 -1.85938,-1.859375 -1.85937,0 -1.85937,1.859375 0,1.859375 1.85937,1.859375 z m 0,25.949219 q 3.19922,0 6.15234,0.62891 l -1.3125,-3.36329 q -2.40625,-0.38281 -4.83984,-0.38281 -2.48828,0 -4.86719,0.38281 l -1.3125,3.36329 q 2.92578,-0.62891 6.17969,-0.62891 z m 0,-4.97656 q 2.65234,0 5.08594,0.41015 2.67969,-0.95703 3.88281,-2.98047 1.03906,-1.75 1.03906,-3.85546 0,-1.257817 -0.6289,-2.761723 -0.62891,-1.53125 -2.05078,-2.761719 -1.61329,-1.339843 -3.52735,-2.925781 -1.91406,-1.613281 -3.80078,-3.746094 -1.91406,2.132813 -3.82812,3.746094 -1.91407,1.585938 -3.5,2.925781 -1.44922,1.230469 -2.07813,2.761719 -0.60156,1.503906 -0.60156,2.761723 0,2.10546 1.01172,3.85546 1.17578,2.02344 3.91015,2.98047 2.40625,-0.41015 5.08594,-0.41015 z m -0.98437,10.30859 h -0.875 q -1.53125,2.46094 -2.92579,3.08984 -0.65625,0.32813 -1.44921,0.60157 -0.79297,0.27343 -1.83204,0.27343 -0.1914,0 -2.92578,-0.4375 -1.3125,-0.1914 -2.07812,-0.41015 -0.76563,-0.21875 -1.20313,-0.27344 -1.55859,-0.19141 -3.63672,0.16406 -1.25781,0.21875 -2.35156,0.79297 l 1.3125,2.13281 q 0.32813,-0.32812 0.84766,-0.41015 0.54687,-0.10938 0.98437,-0.21875 1.14844,-0.19141 2.1875,-0.0547 0.35547,0.082 1.39453,0.21875 1.03907,0.10938 2.76172,0.38281 2.05078,0.30078 2.78907,0.30078 2.87109,0 4.40234,-1.09375 0.92969,-0.71093 1.75,-1.96875 0.84766,-1.28515 0.84766,-3.08984 z M -735,120.40623 q -0.38281,1.5586 -0.92969,2.16016 -0.54687,0.60156 -1.44922,1.25781 -0.98437,0.6836 -2.32421,1.17578 -1.33985,0.46485 -2.98047,0.21875 l -7.6836,-1.0664 q -0.46484,-0.0547 -0.84765,0 -0.35547,0.0547 -0.6836,0.0547 -0.57422,0 -1.47656,0.27343 -0.875,0.2461 -1.36719,0.73828 l -2.65234,-4.34765 q 0.49219,-0.54688 0.875,-0.76563 0.38281,-0.21875 0.90234,-0.46484 1.58594,-0.73828 3.39063,-0.90234 0.76562,-0.0547 1.5039,-0.0273 0.73829,0.0273 1.53125,-0.0547 1.47657,0.2461 2.95313,0.46485 1.50391,0.1914 3.00781,0.41015 1.64063,0 2.21485,-0.32812 0.30078,-0.16406 0.95703,-0.60156 0.65625,-0.4375 1.3125,-1.28516 -1.44922,-0.16406 -2.95313,-0.54687 -1.5039,-0.41016 -2.65234,-0.84766 l 2.84375,-7.05469 q -2.13281,-1.23047 -2.98047,-1.96875 -0.84766,-0.76562 -1.33984,-1.75 -0.71094,-1.25781 -0.92969,-2.43359 -0.19141,-1.17578 -0.16406,-2.10547 0.0273,-1.640625 0.76562,-3.609375 0.76563,-1.996094 2.84375,-3.554688 1.72266,-1.3125 3.36328,-2.707031 1.64063,-1.394531 3.25391,-3.253906 -2.02344,-1.039063 -2.02344,-3.308594 0,-1.53125 1.06641,-2.625 1.09375,-1.09375 2.65234,-1.09375 1.53125,0 2.625,1.09375 1.09375,1.09375 1.09375,2.625 0,2.242187 -2.02344,3.308594 1.58594,1.859375 3.19922,3.253906 1.64063,1.394531 3.41797,2.707031 2.05078,1.558594 2.78906,3.554688 0.73828,1.96875 0.79297,3.609375 0,0.92969 -0.1914,2.10547 -0.19141,1.17578 -0.875,2.43359 -0.54688,0.98438 -1.39454,1.75 -0.82031,0.73828 -2.92578,1.96875 l 2.84375,7.05469 q -1.20312,0.4375 -2.70703,0.84766 -1.5039,0.38281 -2.89844,0.54687 0.62891,0.84766 1.28516,1.28516 0.65625,0.4375 0.98438,0.60156 0.57421,0.32812 2.21484,0.32812 1.47656,-0.21875 2.95312,-0.41015 1.50391,-0.21875 3.00782,-0.46485 0.73828,0.082 1.47656,0.0547 0.76562,-0.0273 1.55859,0.0273 1.75,0.16406 3.39063,0.90234 0.49219,0.24609 0.875,0.46484 0.41015,0.21875 0.90234,0.76563 l -2.67969,4.34765 q -0.49218,-0.49218 -1.39453,-0.73828 -0.875,-0.27343 -1.42187,-0.27343 -0.35547,0 -0.73828,-0.0547 -0.35547,-0.0547 -0.82032,0 l -7.65625,1.0664 q -1.64062,0.2461 -3.0625,-0.21875 -1.39453,-0.46484 -2.29687,-1.23046 -0.90234,-0.73829 -1.44922,-1.25782 -0.51953,-0.54687 -0.875,-2.10547 z m 0.95703,-3.08984 q 0,1.80469 0.82031,3.08984 0.84766,1.25782 1.80469,1.96875 1.50391,1.09375 4.40235,1.09375 0.71093,0 2.78906,-0.30078 1.69531,-0.27343 2.73437,-0.38281 1.03907,-0.13672 1.39453,-0.21875 1.03907,-0.13672 2.1875,0.0547 0.4375,0.10937 0.95704,0.21875 0.54687,0.082 0.90234,0.41015 l 1.3125,-2.13281 q -1.12109,-0.57422 -2.37891,-0.79297 -2.07812,-0.35547 -3.63672,-0.16406 -0.46484,0.0547 -1.23046,0.27344 -0.73829,0.21875 -2.02344,0.41015 -2.76172,0.4375 -2.92578,0.4375 -1.06641,0 -1.85938,-0.27343 -0.79297,-0.27344 -1.42187,-0.60157 -1.44922,-0.65625 -2.95313,-3.08984 z" />
      </g>
    </g>
    <g
       id="wn"
       transform="translate(314.97253,180.55079)">
      <g
         id="text5701"
         style="fill:#ffffff;fill-opacity:1;stroke:none"
         aria-label="m">
        <path
           inkscape:connector-curvature="0"
           id="path5718"
           d="m -59.601562,142.4492 c 1.870479,-1.74951 -0.242058,-4.44374 -1.257813,-1.3125 -1.680785,0.91382 0.479345,2.77046 1.257813,1.3125 z"
           style="fill:#ffffff;fill-opacity:1" />
        <path
           inkscape:connector-curvature="0"
           id="path5716"
           d="m -43.46875,132.30467 c 1.584403,-1.24916 3.322324,-7.96209 -0.177734,-5.98486 1.494684,1.88786 -4.524213,7.96308 0.177734,5.98486 z"
           style="fill:#ffffff;fill-opacity:1" />
        <path
           inkscape:connector-curvature="0"
           id="path5714"
           d="m -50.605469,118.96092 c 1.874182,-4.44712 -6.024082,0.0562 -2.548093,1.15527 0.844835,-0.39061 1.62072,-0.9684 2.548093,-1.15527 z"
           style="fill:#ffffff;fill-opacity:1" />
        <path
           inkscape:connector-curvature="0"
           id="path5712"
           d="m -24.984375,153.6328 c 0.07312,-5.88892 0.61379,-11.87329 -0.521451,-17.69387 -1.530589,-7.02654 -4.950733,-14.47137 -11.884065,-17.55906 -2.074733,-0.81446 -6.587937,-3.41505 -5.28589,0.7998 4.043007,1.36561 8.252813,3.52035 10.015076,7.66352 3.134611,5.82262 4.203473,12.50247 3.897656,19.05389 0.346331,2.43611 -0.631951,5.96336 0.31602,7.73572 1.154218,0 2.308436,0 3.462654,0 z"
           style="fill:#ffffff;fill-opacity:1" />
        <path
           inkscape:connector-curvature="0"
           id="path5710"
           d="m -43.496094,114.72264 c 7.782113,0.34695 14.5766,5.78761 17.781129,12.70939 4.577139,8.64158 3.978201,18.66274 4.039184,28.14217 -11.210938,0 -22.421875,0 -33.632813,0 -0.814219,-3.20396 0.721912,-6.7142 2.570313,-9.35839 2.764783,-3.40349 7.168354,-6.03688 7.595581,-10.80549 0.432465,-2.50965 -3.341726,1.32212 -4.880005,1.27619 -3.447741,1.55799 -5.877797,4.58586 -7.432373,7.95019 -2.020627,3.02263 -4.021026,-1.23144 -6.357422,-0.082 -4.659064,-1.40077 -5.70766,-7.75277 -2.857422,-11.30322 2.005545,-3.10921 5.069817,-6.03866 4.906494,-10.02662 0.522724,-3.47979 4.715532,-5.24043 2.34462,-8.95261 -0.150302,-1.79744 -1.285619,-6.20575 1.741562,-3.88431 2.741408,0.83548 5.584999,4.13553 7.273438,4.91012 0.759342,-2.88107 3.926315,-6.52563 5.816955,-2.32368 0.415029,0.54855 0.777995,1.13586 1.090759,1.74829 z"
           style="fill:#ffffff;fill-opacity:1" />
        <path
           inkscape:connector-curvature="0"
           id="path5708"
           d="m -61.953125,137.58202 c 1.365644,-3.75507 -5.216998,0.44951 -2.452394,2.2644 1.839547,0.50923 1.06236,-1.87967 2.452394,-2.2644 z"
           style="fill:#ffffff;fill-opacity:1" />
        <path
           inkscape:connector-curvature="0"
           id="path5703"
           d="m -55.0625,123.96483 c 3.004751,-1.42513 -0.966979,-3.10048 -2.27594,-0.89209 -2.089268,0.39946 -3.2895,5.98485 -0.513122,3.79053 0.590311,-0.85961 3.713719,0.32466 3.035156,-2.3379 z"
           style="fill:#ffffff;fill-opacity:1" />
      </g>
      <g
         transform="translate(-75)"
         id="text5722"
         style="fill:#000000;fill-opacity:1;stroke:none"
         aria-label="n">
        <path
           inkscape:connector-curvature="0"
           id="path5724"
           d="m 21.058594,123.96483 c 1.466532,2.65967 -1.995704,2.35621 -2.789063,2.89844 -2.776377,2.19432 -1.576145,-3.39107 0.513123,-3.79053 1.341879,-1.92936 5.594501,-1.05512 2.27594,0.89209 z M 12.9375,137.0078 c -0.58738,1.0758 -2.501315,3.86144 -2.739929,1.03692 -0.2943864,-1.93471 4.054261,-4.24217 2.739929,-1.03692 z m 18.566406,-22.28516 c 7.782113,0.34695 14.576599,5.78761 17.781128,12.70939 4.57714,8.64158 3.978202,18.66274 4.039185,28.14217 -11.210938,0 -22.421875,0 -33.632813,0 -0.81422,-3.20396 0.721912,-6.7142 2.570312,-9.35839 2.764784,-3.40349 7.168354,-6.03688 7.595582,-10.80549 0.432466,-2.50965 -3.341726,1.32212 -4.880005,1.27619 -3.447741,1.55799 -5.877797,4.58586 -7.432373,7.95019 -2.020627,3.02263 -4.021026,-1.23144 -6.357422,-0.082 -4.6590633,-1.40077 -5.7076607,-7.75277 -2.8574219,-11.30322 2.0055449,-3.10921 5.0698169,-6.03866 4.9064939,-10.02662 0.522724,-3.47979 4.715532,-5.24043 2.34462,-8.95261 -0.150302,-1.79744 -1.285619,-6.20575 1.741562,-3.88431 2.741408,0.83548 5.584999,4.13553 7.273437,4.91012 0.759343,-2.88107 3.926316,-6.52563 5.816956,-2.32368 0.415029,0.54855 0.777995,1.13586 1.090759,1.74829 z m 18.511719,38.91016 c 0.07312,-5.88892 0.61379,-11.87329 -0.521451,-17.69387 -1.53059,-7.02654 -4.950733,-14.47137 -11.884065,-17.55906 -2.145826,-0.86033 -6.644971,-3.39802 -5.149171,0.88183 -2.386529,3.06457 -1.543015,-3.20622 -3.011658,-4.47177 -2.61716,-4.43326 -2.866602,3.55529 -4.617248,4.22568 -0.969034,-1.26728 -1.410595,-1.41026 -3.171873,-0.21875 -3.314486,0.28639 0.529825,-2.45042 0.633179,-2.75809 -1.281837,-1.08299 -5.931398,-5.53051 -4.809936,-1.7109 -0.419767,2.15162 3.834717,6.3051 0.596435,6.69238 -1.699273,-2.81376 -3.514233,2.9794 -3.253907,4.8877 -1.27257,4.11851 -4.9148488,7.07108 -6.154053,11.18188 -1.6248794,3.62212 4.336034,8.08303 5.863526,3.36499 2.11113,-2.61945 1.589035,2.34431 0.01538,3.0061 1.974578,2.52399 2.916982,-3.46573 4.585633,-4.57068 2.318989,-2.94903 5.893127,-4.15893 9.07257,-5.84046 2.725747,-1.45086 2.969914,-4.89596 3.616211,-7.19481 4.028588,0.76196 -1.257927,5.8965 0.0957,8.30908 0.39328,4.42861 -2.581175,8.16426 -5.937599,10.6733 -2.322691,2.066 -5.227046,6.11415 -3.95767,8.79545 9.329998,0 18.659996,0 27.989994,0 z" />
      </g>
    </g>
    <g
       transform="translate(240.00676,180.60547)"
       id="wp">
      <g
         aria-label="o"
         style="fill:#ffffff;fill-opacity:1;stroke:none"
         id="text5750-0"
         transform="translate(105,-30)">
        <path
           d="m -15,185.51952 c -4.921875,0 -9.84375,0 -14.765625,0 -2.979125,-7.03239 0.252341,-15.97846 6.996827,-19.5212 1.049055,-0.36218 2.807303,-1.22092 0.757947,-1.81139 -3.591985,-2.60767 -4.058605,-8.56968 -0.593956,-11.48863 0.829379,-1.27527 3.726645,-1.67653 3.952484,-2.16619 -3.106522,-2.39087 -2.252967,-7.97454 1.420566,-9.35182 3.432952,-1.57271 7.9979938,1.23207 7.8170981,5.10015 0.012892,1.71902 -0.7774231,3.4814 -2.2220641,4.45783 4.9257522,0.32662 8.3072478,6.44438 5.8240694,10.75918 -0.4210797,1.604 -3.0619825,2.94979 -3.2930053,3.60531 6.7292181,2.59214 11.1276069,10.23293 9.7010517,17.35013 0.12324798,1.57732 -0.81780298,3.61332 -2.6952431,3.06663 -4.3000499,0 -8.6000997,0 -12.9001497,0 z"
           id="path5756-6"
           inkscape:connector-curvature="0" />
      </g>
      <g
         aria-label="p"
         style="fill:#000000;fill-opacity:1;stroke:none"
         id="text5754-4">
        <path
           d="m 90,153.66014 c 4.47526,0 8.95052,0 13.42578,0 2.23621,-6.83882 -2.05328,-15.03929 -8.97473,-17.04797 -1.697289,-1.47052 0.189835,-3.38932 1.539377,-4.2667 3.54423,-2.15381 2.363836,-8.13352 -1.386349,-9.37459 -2.439164,0.33083 -4.157961,-2.75522 -1.794093,-4.19614 1.542423,-1.84289 0.960134,-5.07115 -1.411328,-5.88621 -2.220417,-0.92535 -4.96814,0.66979 -5.205939,3.07895 -0.174032,2.14685 2.411123,3.38194 2.102896,5.54813 -1.62076,1.80533 -4.910904,1.36732 -5.78605,4.02404 -1.322796,2.49182 -0.548409,6.21497 2.259789,7.29678 2.520592,1.26385 1.130089,4.65021 -1.371526,4.63746 -5.317149,2.74201 -8.451073,9.22642 -7.108912,15.08606 -0.119285,1.72095 2.026961,0.95443 3.139047,1.10019 3.524012,0 7.048025,0 10.572038,0 z m 0,1.85938 c -4.921875,0 -9.84375,0 -14.765625,0 -2.979125,-7.03239 0.252343,-15.97846 6.996827,-19.5212 1.049055,-0.36218 2.807303,-1.22092 0.757947,-1.81139 -3.591985,-2.60767 -4.058605,-8.56968 -0.593956,-11.48863 0.829379,-1.27527 3.726645,-1.67653 3.952484,-2.16619 -3.106522,-2.39087 -2.252967,-7.97454 1.420566,-9.35183 3.432967,-1.57274 7.998018,1.23206 7.817098,5.10016 0.01289,1.71902 -0.777423,3.4814 -2.222064,4.45783 4.925752,0.32662 8.307253,6.44438 5.82407,10.75918 -0.421078,1.604 -3.061988,2.9498 -3.293004,3.60531 6.729237,2.59214 11.127577,10.23295 9.701097,17.35015 0.12317,1.57733 -0.8178,3.61335 -2.69528,3.06661 -4.300056,0 -8.600108,0 -12.90016,0 z"
           id="path5759-8"
           inkscape:connector-curvature="0" />
      </g>
    </g>
  </g>
</svg>
